<svg xmlns="http://www.w3.org/2000/svg" xmlns:xlink="http://www.w3.org/1999/xlink" viewBox="0 0 508.71 357.98"><defs><style>.cls-1{font-size:107.84px;stroke:#000;stroke-miterlimit:10;}.cls-1,.cls-3{fill:none;}.cls-1,.cls-7{font-family:Montserrat-Bold, Montserrat;font-weight:700;}.cls-2{letter-spacing:-0.01em;}.cls-3{stroke-width:2px;stroke:url(#linear-gradient);}.cls-4{font-size:54.89px;font-family:Raleway-Medium, Raleway;font-weight:500;letter-spacing:-0.07em;}.cls-5{letter-spacing:-0.03em;}.cls-6{fill:url(#linear-gradient-7);}.cls-11,.cls-7{font-size:56.29px;}.cls-8{fill:url(#linear-gradient-9);}.cls-9{font-size:119.7px;font-family:Amigos;}.cls-10{fill:url(#linear-gradient-13);}.cls-11{font-family:Crystalsymphony-Personaluseonly, Crystal symphony  Personal use only;}.cls-12{letter-spacing:0.01em;}.cls-13{letter-spacing:0em;}.cls-14{letter-spacing:0em;}.cls-15{letter-spacing:0em;}.cls-16{letter-spacing:0.01em;}.cls-17{letter-spacing:0em;}.cls-18{fill:url(#linear-gradient-19);}.cls-19{fill:url(#linear-gradient-31);}.cls-20{fill:url(#linear-gradient-32);}.cls-21{fill:url(#linear-gradient-33);}.cls-22{fill:url(#linear-gradient-34);}.cls-23{fill:url(#linear-gradient-35);}.cls-24{fill:url(#linear-gradient-36);}</style><linearGradient id="linear-gradient" x1="2.48" y1="226.47" x2="480.49" y2="226.47" gradientUnits="userSpaceOnUse"><stop offset="0" stop-color="#b47a1a"/><stop offset="0.05" stop-color="#b9811e"/><stop offset="0.13" stop-color="#c69429"/><stop offset="0.22" stop-color="#dcb33c"/><stop offset="0.32" stop-color="#fade56"/><stop offset="0.33" stop-color="#ffe55a"/><stop offset="0.52" stop-color="#ffec88"/><stop offset="0.66" stop-color="#ffe55a"/><stop offset="1" stop-color="#b47a1a"/></linearGradient><linearGradient id="linear-gradient-7" x1="451.02" y1="245.55" x2="508.71" y2="245.55" xlink:href="#linear-gradient"/><linearGradient id="linear-gradient-9" x1="181.93" y1="287.96" x2="325.99" y2="287.96" xlink:href="#linear-gradient"/><linearGradient id="linear-gradient-13" x1="113.38" y1="161.9" x2="395.83" y2="161.9" xlink:href="#linear-gradient"/><linearGradient id="linear-gradient-19" x1="152.46" y1="321.28" x2="350" y2="321.28" xlink:href="#linear-gradient"/><linearGradient id="linear-gradient-31" x1="263.14" y1="132.74" x2="255.55" y2="13.85" xlink:href="#linear-gradient"/><linearGradient id="linear-gradient-32" x1="303.64" y1="-43.49" x2="303.64" y2="-61.71" gradientTransform="translate(-103.23 78.21) rotate(3.66)" xlink:href="#linear-gradient"/><linearGradient id="linear-gradient-33" x1="412.79" y1="-50.47" x2="412.79" y2="-68.69" gradientTransform="translate(-103.23 78.21) rotate(3.66)" xlink:href="#linear-gradient"/><linearGradient id="linear-gradient-34" x1="242.22" y1="-26.73" x2="242.22" y2="-44.95" gradientTransform="translate(-103.23 78.21) rotate(3.66)" xlink:href="#linear-gradient"/><linearGradient id="linear-gradient-35" x1="476.89" y1="-41.73" x2="476.89" y2="-59.95" gradientTransform="translate(-103.23 78.21) rotate(3.66)" xlink:href="#linear-gradient"/><linearGradient id="linear-gradient-36" x1="357.95" y1="-73.28" x2="357.95" y2="-101.22" gradientTransform="translate(-103.23 78.21) rotate(3.66)" xlink:href="#linear-gradient"/></defs><title>Asset 27contest_logo_new</title><g id="Layer_2" data-name="Layer 2"><g id="Layer_1-2" data-name="Layer 1"><text class="cls-1" transform="translate(0.5 264.32)"><tspan class="cls-2">C</tspan><tspan x="73.76" y="0">AMPUS</tspan></text><path class="cls-3" d="M53.77,207a20.94,20.94,0,0,0-10-2.75,19.65,19.65,0,0,0-10.4,2.86A20.3,20.3,0,0,0,26,215a24.43,24.43,0,0,0,0,22.33,20.3,20.3,0,0,0,7.39,7.87A19.65,19.65,0,0,0,43.74,248a22.81,22.81,0,0,0,9.71-2.38,30.58,30.58,0,0,0,9.06-6.47L74.05,251.6a46.2,46.2,0,0,1-14.61,10.29,40.6,40.6,0,0,1-37-1.34A37.78,37.78,0,0,1,8.16,246.42,39.35,39.35,0,0,1,3,226.36a37.65,37.65,0,0,1,19.79-33.75A43,43,0,0,1,60,191a41.2,41.2,0,0,1,13.91,9.55l-11.43,13.8A28.37,28.37,0,0,0,53.77,207Z"/><path class="cls-3" d="M137.13,264.32,132,251H99.28L94,264.32H73.72l32.46-75.6h20.28l31.7,75.6Zm-31.92-28.47h20.92l-10.35-27Z"/><path class="cls-3" d="M165,188.72h21.46l21.89,44.22,21.78-44.22h21.46v75.6H234.08l-.1-47.88-19.31,40.33H202l-19.41-40.33v47.88H165Z"/><path class="cls-3" d="M321.87,195.68q8,7,8,19.57,0,13.38-8,20.76t-22.43,7.39H286v20.92H266.22v-75.6h33.22Q313.89,188.72,321.87,195.68Zm-14.08,29q3.3-3,3.29-8.74c0-3.67-1.09-6.49-3.29-8.47s-5.3-3-9.33-3H286v23.18h12.5Q304.51,227.65,307.79,224.64Z"/><path class="cls-3" d="M362.2,244.59a14.29,14.29,0,0,0,10.68,4.31,13.35,13.35,0,0,0,10.29-4.26q3.94-4.26,3.94-11.49V188.72h19.74v44.43a34.53,34.53,0,0,1-4.16,17.21,28.12,28.12,0,0,1-11.86,11.37,38.78,38.78,0,0,1-18.06,4,39.45,39.45,0,0,1-18.17-4,28.61,28.61,0,0,1-12.08-11.37,33.85,33.85,0,0,1-4.26-17.21V188.72H358v44.43Q358,240.28,362.2,244.59Z"/><path class="cls-3" d="M459.53,205.65A38,38,0,0,0,448,203.39a10.59,10.59,0,0,0-5.77,1.35,4.39,4.39,0,0,0-2.1,3.93,5.41,5.41,0,0,0,1.83,4.16,14,14,0,0,0,4.53,2.69q2.7,1,8,2.64a103.31,103.31,0,0,1,13,4.53,22.65,22.65,0,0,1,8.79,7q3.68,4.69,3.67,12.24a20.93,20.93,0,0,1-4,12.89,24.19,24.19,0,0,1-11,8,42.39,42.39,0,0,1-15.47,2.7,56,56,0,0,1-18.71-3.29,51.16,51.16,0,0,1-16.12-9l7.65-15.42a47.63,47.63,0,0,0,13.54,8.31,37,37,0,0,0,13.86,3.23,12.83,12.83,0,0,0,7-1.62,5.27,5.27,0,0,0,2.53-4.74,5.61,5.61,0,0,0-1.88-4.32,14.15,14.15,0,0,0-4.75-2.75q-2.85-1-8-2.42a99.29,99.29,0,0,1-12.83-4.37,22.65,22.65,0,0,1-8.69-6.69q-3.6-4.47-3.61-11.91a20.83,20.83,0,0,1,3.72-12.3,23.71,23.71,0,0,1,10.57-8.14,41.18,41.18,0,0,1,15.91-2.86,57.89,57.89,0,0,1,16.17,2.32,53.24,53.24,0,0,1,14,6.2l-7.44,15.75A66.68,66.68,0,0,0,459.53,205.65Z"/><text class="cls-4" transform="translate(450.03 265.04)">T<tspan class="cls-5" x="30.14" y="0">v</tspan></text><path class="cls-6" d="M482.86,230.46H469.41V265h-4.94V230.46H451v-4.39h31.84Z"/><path class="cls-6" d="M492.25,265l-11.31-28.65h5L495,260.81l9.11-24.42h4.61L497.4,265Z"/><text class="cls-7" transform="translate(180.97 307.75)">2020</text><path class="cls-8" d="M213.18,299.47v8.28H183.11l-.05-6.81,14.35-14.75a20.06,20.06,0,0,0,2.76-3.49,6,6,0,0,0,1.07-3,2.92,2.92,0,0,0-1.18-2.51,5.53,5.53,0,0,0-3.32-.87,12.91,12.91,0,0,0-5.27,1.32,23,23,0,0,0-5.6,3.69l-3.94-7.6q8.16-5.91,16.38-5.91a18.37,18.37,0,0,1,7.07,1.29,11.59,11.59,0,0,1,4.9,3.66,8.8,8.8,0,0,1,1.77,5.41,12,12,0,0,1-2,6.27,38.9,38.9,0,0,1-5.66,6.9l-8,8.1Z"/><path class="cls-8" d="M247.83,273.13q4.51,5.17,4.53,14.86t-4.53,14.89q-4.54,5.21-12.93,5.21t-13-5.21q-4.53-5.2-4.53-14.89t4.53-14.86q4.53-5.17,13-5.18T247.83,273.13Zm-18.27,5.38q-1.63,2.89-1.64,9.48t1.64,9.54a6.28,6.28,0,0,0,10.61,0c1.1-1.95,1.66-5.12,1.66-9.51s-.56-7.55-1.66-9.48a6.3,6.3,0,0,0-10.61,0Z"/><path class="cls-8" d="M286.81,299.47v8.28H256.75l-.06-6.81,14.36-14.75a20.46,20.46,0,0,0,2.75-3.49,5.94,5.94,0,0,0,1.07-3,2.92,2.92,0,0,0-1.18-2.51,5.51,5.51,0,0,0-3.32-.87,12.83,12.83,0,0,0-5.26,1.32,23,23,0,0,0-5.61,3.69l-3.94-7.6q8.18-5.91,16.39-5.91a18.36,18.36,0,0,1,7.06,1.29,11.53,11.53,0,0,1,4.9,3.66,8.8,8.8,0,0,1,1.77,5.41,11.89,11.89,0,0,1-2,6.27,39.25,39.25,0,0,1-5.65,6.9l-8,8.1Z"/><path class="cls-8" d="M321.46,273.13Q326,278.3,326,288t-4.53,14.89q-4.53,5.21-12.92,5.21t-13-5.21Q291,297.68,291,288t4.53-14.86q4.54-5.17,13-5.18T321.46,273.13Zm-18.27,5.38q-1.63,2.89-1.63,9.48t1.63,9.54a6.28,6.28,0,0,0,10.61,0q1.67-2.92,1.66-9.51t-1.66-9.48a6.3,6.3,0,0,0-10.61,0Z"/><text class="cls-9" transform="translate(121.33 181.76)">face of</text><path class="cls-10" d="M155.08,152.56c-3,4.19-15.2,12.57-24.42,6.94,2.39,5.87,3.35,16.64,2.28,26.45-.84,7.66-2.76,17-10.54,17.36-8,.48-13-14.72-4.79-41.3,12-38.06,21.07-41.41,27.65-41.53,6-.12,8.86,8,2.16,19.39-4.79,8.14-12.81,13.89-16.16,16.28,8.86.6,23-5.87,24.18-6.82C156.51,149.69,156.51,150.52,155.08,152.56Zm-26.45,9.69c-8.74,23.94-5.63,27.65-4.07,27.65C127.43,189.9,131.5,182,128.63,162.25Zm4.9-11.49c10.9-9.45,14.73-19.87,12.81-21.06S141.55,132.33,133.53,150.76Z"/><path class="cls-10" d="M208.82,155.07c-3.11,9.58-14.24,33.87-26.93,30.28-6.82-1.91-4.67-10.77-1.2-20.7-5.5,9.21-13,19.87-20.34,21.3-11.73,2.4-17.12-11.13-12.33-24.41,7.66-21.07,23.46-28.37,32.31-26.58a9.57,9.57,0,0,1,7.66,6.95,16.29,16.29,0,0,0,.12-4.79c1.56-2.63,11.25-4.67,11.25,4.19,0,3.47-.83,8.5-3.35,15.32-3.47,9.45-5.14,17.47-3,17.35,2.75-.36,13.88-19.27,15.2-23.58C209.66,150.28,209.9,152,208.82,155.07Zm-22.5-6.82c-1-2.15-1.68-8.86-6.35-9.1-8.13-.36-24.77,29.21-16.63,34.23C168.6,176.62,182.37,156.63,186.32,148.25Z"/><path class="cls-10" d="M250.11,154c-4.54,13.64-14.72,33.75-33.27,31.95-11.25-1-18.31-10.89-14.36-24.41,5.5-18.68,21.06-28.25,30.88-26.34,8.14,1.68,9.09,9,7.06,14.13-2.51,6.58-10.41,6-10.41,3.95,2.15-1.32,7.54-14.13,3.35-14.13-8.26.12-21.19,27-15.56,34.83,4.07,5.51,18.79,4.07,30.76-24.77C250.59,149.21,251.19,150.88,250.11,154Z"/><path class="cls-10" d="M290.57,154c-6,18.19-16.4,32.43-32.2,32.07-11.37-.24-19.51-11-15.44-24.53,6.71-21.79,22.51-28.13,31.24-26.22,7.42,1.56,9.34,9.58,5.63,15.56-4.07,6.71-12.21,11.73-21.55,9.58-2.75,9.81-.95,14.72,3.71,15.8,8.38,2.15,19.75-9.1,27.05-27C291.05,149.21,291.65,150.88,290.57,154Zm-31,2.51c19.27.12,20.11-16.64,15.08-17.36C270.46,138.56,264.6,144.78,259.57,156.51Z"/><path class="cls-10" d="M369.09,145.38c-2,4.07-8.74,10.41-17.84,12.56-3.95,12.57-14.24,28-25.13,28-11.25,0-16.76-11.13-12-24.41,7.66-21.07,22.86-29.09,31.72-26.58a11.07,11.07,0,0,1,6.94,14.61v.12c5.27-1,12-3.24,15.32-7.42C369.21,142.15,369.81,143.7,369.09,145.38ZM345,158.18c-4.43-1.43-2.51-7.9,1.68-8.13,1.43-2.28,3.35-10.9-.84-10.9-8.14,0-26.33,29.81-17.84,34.35C333.42,176.38,340.6,167.16,345,158.18Z"/><path class="cls-10" d="M394.7,152.56c-3,4.19-15.2,12.57-24.41,6.94,2.39,5.87,3.35,16.64,2.27,26.45-.84,7.66-2.75,17-10.53,17.36-8,.48-13-14.72-4.79-41.3,12-38.06,21.07-41.41,27.65-41.53,6-.12,8.86,8,2.15,19.39-4.79,8.14-12.8,13.89-16.16,16.28,8.86.6,23-5.87,24.18-6.82C396.14,149.69,396.14,150.52,394.7,152.56Zm-26.45,9.69c-8.74,23.94-5.62,27.65-4.07,27.65C367.05,189.9,371.12,182,368.25,162.25Zm4.91-11.49c10.89-9.45,14.72-19.87,12.81-21.06S381.18,132.33,373.16,150.76Z"/><text class="cls-11" transform="translate(168.68 334.79)"><tspan class="cls-12">f</tspan><tspan x="12.54" y="0">ir</tspan><tspan class="cls-13" x="37" y="0">s</tspan><tspan x="50.51" y="0">t e</tspan><tspan class="cls-14" x="94.67" y="0">d</tspan><tspan class="cls-15" x="113.92" y="0">i</tspan><tspan class="cls-16" x="125.69" y="0">t</tspan><tspan x="138.22" y="0">i</tspan><tspan class="cls-17" x="149.79" y="0">o</tspan><tspan x="164.37" y="0">n</tspan></text><path class="cls-18" d="M173.8,325.84a1.75,1.75,0,0,1-.05.43,1.84,1.84,0,0,0-.05.44l.05,0q-2.46,2.91-4.91,2.91a3.57,3.57,0,0,1-1.9-.56q-2.55,6.56-5.27,13.38l-5.32,13.39h-3.89l6.14-15.56q1.34-3.84,2.38-7.55c.7-2.47,1.29-4.84,1.77-7.09l-.11-.1-.81,1c-.28.32-.5.59-.67.79l-.82-1a1.06,1.06,0,0,1,0-.34.64.64,0,0,0,.05-.28c.48-.68,1-1.35,1.51-2s1-1.18,1.36-1.56a14,14,0,0,1,.61-3.91c.35-1,.84-1.46,1.49-1.46a.92.92,0,0,1,.66.41,7.41,7.41,0,0,1,.72,1c.27-.38.59-.83,1-1.36s.67-1,.94-1.51l3.66-8.21q1.88-4.17,3.66-8.21,5.83-12,9.62-12a2.41,2.41,0,0,1,1.67.87,4.19,4.19,0,0,1,1.1,2.1,11.45,11.45,0,0,1-.95,6.19,30.65,30.65,0,0,1-4.63,7.42c-.38.41-1.36,1.43-2.94,3.05l-6.63,6.78c-.28.2-.86,1.5-1.77,3.89s-2.17,5.83-3.81,10.33a2.46,2.46,0,0,0,.56.34,1.62,1.62,0,0,0,.57.12,2.9,2.9,0,0,0,1.28-.3,4.86,4.86,0,0,0,1.17-.87c1-1,1.62-1.55,2-1.59Zm5.07-28.15c-.45,1.09-1,2.61-1.77,4.55s-1.64,4.42-2.74,7.43l.06.05q1.68-1.49,3.65-3.56a48.75,48.75,0,0,0,3.71-4.38,35.74,35.74,0,0,0,4.15-6.5,8.89,8.89,0,0,0,1.13-4.76,5.11,5.11,0,0,0-.62-1.38,1,1,0,0,0-.77-.51c-.88,0-1.91.79-3.09,2.36A35.27,35.27,0,0,0,178.87,297.69Z"/><path class="cls-18" d="M183.17,316.73c-.11.34-.24.71-.41,1.1s-.33.74-.46,1.05l-.67,1.64c-.38.78-.73,1.58-1.07,2.4s-.65,1.6-.93,2.35q-1.06,2.57-1.79,4.51a27.3,27.3,0,0,0-.87,2.66l.26.15q1.74,0,4.45-3.43c1-1.19,1.82-2.13,2.48-2.81s1.09-1.09,1.26-1.23l.51.72a5.35,5.35,0,0,1-1,2.38,17.43,17.43,0,0,1-2.74,3.14A26.57,26.57,0,0,1,179,334a4.36,4.36,0,0,1-2.13.89,1.92,1.92,0,0,1-1.51-.76,5.23,5.23,0,0,1-1-2.15,8.39,8.39,0,0,1-.1-2.25,17.38,17.38,0,0,1,.36-2.31v.05l.51-1.48-.1-.1c-.2.2-.4.42-.59.64a4,4,0,0,1-.64.59,2.79,2.79,0,0,1-.43-.59,3.77,3.77,0,0,0-.39-.59q.1-.21.18-.39a1.88,1.88,0,0,0,.13-.38v.05c1.23-1.53,2.35-3,3.35-4.48s1.9-2.77,2.69-4Zm1.68-5.48a3.88,3.88,0,0,1-1.38,2.87,12.64,12.64,0,0,1-3.17-2.66,3.67,3.67,0,0,1,1.13-2.77A14.33,14.33,0,0,1,184.85,311.25Z"/><path class="cls-18" d="M184.7,325.63c.17-.3.33-.62.49-.94a7.56,7.56,0,0,1,.48-.9c.58-1,1.1-1.89,1.56-2.71s.87-1.55,1.21-2.2a2.86,2.86,0,0,1-1.23-2.05c-.41-1.91.12-2.87,1.58-2.87a1.53,1.53,0,0,1,1.11.52,3,3,0,0,1,.69,1.38,2.71,2.71,0,0,1-.06,1.38,5,5,0,0,0,1.26-.23,6.15,6.15,0,0,0,1.15-.54l1.89,3.79-2.76,6.4-1.43,3.76a13.19,13.19,0,0,0-.67,2,.49.49,0,0,0,.36.15c1,0,2.07-.61,3.35-1.84a34.71,34.71,0,0,0,4.53-5.83L199,326a4.82,4.82,0,0,1-1.13,2.3,28,28,0,0,1-2.71,3.07A23.74,23.74,0,0,1,192,334a4.28,4.28,0,0,1-2.07.89,2,2,0,0,1-1.69-.87,5.88,5.88,0,0,1-1-2.5c-.21-1.78.29-4.16,1.48-7.17l.31-.61c.41-.79.77-1.53,1.08-2.23s.63-1.47,1-2.33a1.15,1.15,0,0,1-.77.05,44.6,44.6,0,0,1-3.1,5.66c-.87,1.28-1.52,2-2,2l-.56-.92Z"/><path class="cls-18" d="M208.75,327.47a14.43,14.43,0,0,0,1.21-1c.56-.51,1.1-1,1.61-1.53l.66.87v-.06a1.6,1.6,0,0,1-.28,1.44,6.78,6.78,0,0,1-1.46,1.38,8.93,8.93,0,0,1-1.38.74,3.9,3.9,0,0,1-1.23.33,16,16,0,0,1-3.17,3.92,5.16,5.16,0,0,1-3.33,1.46,3.07,3.07,0,0,1-2.32-.87,4.78,4.78,0,0,1-1.16-2.51c-.41-2.39.11-3.58,1.54-3.58a1.63,1.63,0,0,1,1.2.48,2.39,2.39,0,0,1,.64,1.31,4.27,4.27,0,0,1-.23,2,1.43,1.43,0,0,1-1.25.93,1.16,1.16,0,0,0,.46.25,1.7,1.7,0,0,0,.56.1q4.25,0,4.81-14.63c-.41.58-1,1.42-1.87,2.53s-1.8,2.31-2.89,3.61l-.36.41a26,26,0,0,0-1.69,2,3.41,3.41,0,0,1-.48-.61c-.15-.24-.3-.46-.44-.67a3.54,3.54,0,0,1,.39-.58c.25-.36.6-.85,1.05-1.46s1-1.32,1.56-2.13,1.25-1.66,2-2.58q2.2-2.87,3.61-4.61a12.69,12.69,0,0,1,1.92-2.09l1,1.12-.82,1.13-1.33,1.84-.1.2a3,3,0,0,0,.15.77l.2.92c0,.21.09.5.16.87a5.85,5.85,0,0,0,.36,1.18l.41,2.05.1-.05a14.46,14.46,0,0,1,.15,1.48c0,.55.05,1.07.05,1.59Z"/><path class="cls-18" d="M211.11,325.94a1.05,1.05,0,0,1,0-.26,1,1,0,0,0,.05-.3,82.46,82.46,0,0,0,5.25-7.17,46.41,46.41,0,0,0,3.4-6.14h-1.08l-.66-.82c0-.82.84-1.19,2.4-1.12.55-1.3,1.12-2.63,1.72-4s1.18-2.69,1.76-4h4l-3.43,7.93h3.07a1.07,1.07,0,0,0,.31.44,1.19,1.19,0,0,1,.3.43c-.07.38-.52.66-1.35.85a15.6,15.6,0,0,1-3,.33c-.27.69-.57,1.4-.89,2.15s-.63,1.47-.9,2.15l-2.66,6.35c-.1.3-.24.65-.41,1.05s-.32.74-.46,1c-.85,2-1.53,3.65-2,5a19.55,19.55,0,0,0-.85,2.64.47.47,0,0,0,.31.15q3.12-.15,8.09-7.72l.66,1a5.31,5.31,0,0,1-1.05,2.53,18.63,18.63,0,0,1-2.63,3.1A29.14,29.14,0,0,1,218,334a4.33,4.33,0,0,1-2.22.89,2,2,0,0,1-1.59-.76,4.84,4.84,0,0,1-1-2.05,5.92,5.92,0,0,1-.13-.9c0-.28,0-.55,0-.79a13.33,13.33,0,0,1,.18-2.2,9.6,9.6,0,0,1,.69-2.25l.16-.31c.17-.34.3-.6.41-.77a7.89,7.89,0,0,0,.41-.92l-.11-.15-1.46,1.69c-.52.61-1,1.16-1.51,1.64Z"/><path class="cls-18" d="M257.11,325.94l-.05-.05c0,.14,0,.26,0,.38a2.38,2.38,0,0,0,0,.39l.05-.11q-6.13,8.29-9.16,8.29-3.93,0-4.71-4.35c-.06-.47-.11-.87-.15-1.17s0-.58,0-.82a10.92,10.92,0,0,1,.69-3.56,18.47,18.47,0,0,1,1.71-3.61,15,15,0,0,1,3-3.4,5.06,5.06,0,0,1,3.07-1.25c1.37,0,2.17.83,2.41,2.5a4.73,4.73,0,0,1-.15,2.49,4.64,4.64,0,0,1-1.49,2l-4.6,3.38a6.34,6.34,0,0,0-1.41,2.2,4.73,4.73,0,0,0-.18,2.55,1.24,1.24,0,0,0,1.23,1.08,4.67,4.67,0,0,0,2.61-1.08,15.66,15.66,0,0,0,2.86-2.71l1.08-1.23a5.45,5.45,0,0,0,.54-.64c.18-.25.36-.48.53-.69a4.31,4.31,0,0,1,.57-.56c.2-.17.39-.34.56-.51l.56-.46ZM252,318.62c-1.13,0-2.37,1.86-3.74,5.58a13.14,13.14,0,0,0,3.1-2.64,4.29,4.29,0,0,0,1.1-2.32,4,4,0,0,1-.23-.39C252.14,318.7,252.06,318.62,252,318.62Z"/><path class="cls-18" d="M255.12,330.44c-.07-.44-.12-.83-.16-1.17s-.05-.6-.05-.77a11.94,11.94,0,0,1,2.82-7.47q3.38-4.3,6.7-4.3a3.52,3.52,0,0,1,3.23,2.1c.88-2.26,1.78-4.54,2.68-6.86s1.82-4.61,2.74-6.86l5.48-13.61H283l-8.91,22-2.89,7.22Q269.9,324,269,326.45c-.63,1.64-1.13,3-1.51,4a11.67,11.67,0,0,0-.61,2l.25.15a3.72,3.72,0,0,0,2.05-.84,13,13,0,0,0,2.51-2.59q3-3.84,3.68-4l.46.72a5.36,5.36,0,0,1-1,2.28,19.56,19.56,0,0,1-2.74,3.19,31.42,31.42,0,0,1-3.2,2.56,4.28,4.28,0,0,1-2.07.92,1.92,1.92,0,0,1-1.44-.58,3.73,3.73,0,0,1-.82-1.51,4.12,4.12,0,0,1-.15-1.23,11.75,11.75,0,0,1-2.79,2.48,5.2,5.2,0,0,1-2.68.9Q255.88,334.9,255.12,330.44Zm3.58,2.61a4.33,4.33,0,0,0,2.53-1.25,16.44,16.44,0,0,0,2.84-3.1,18.94,18.94,0,0,0,2.2-4.35,8.14,8.14,0,0,0,.47-3.83,2.39,2.39,0,0,0-.54-1.36,1.43,1.43,0,0,0-1.1-.49c-.58,0-1.28.46-2.1,1.36a24.39,24.39,0,0,0-2.76,4,25,25,0,0,0-2.18,4.52,7.06,7.06,0,0,0-.43,3.46C257.73,332.69,258.09,333.05,258.7,333.05Z"/><path class="cls-18" d="M284.54,316.73a8,8,0,0,1-.41,1.1l-.46,1.05-.66,1.64c-.38.78-.73,1.58-1.08,2.4s-.64,1.6-.92,2.35q-1.06,2.57-1.79,4.51a22.54,22.54,0,0,0-.87,2.66l.26.15q1.74,0,4.45-3.43c1-1.19,1.82-2.13,2.48-2.81s1.09-1.09,1.26-1.23l.51.72a5.47,5.47,0,0,1-1,2.38,17.43,17.43,0,0,1-2.74,3.14,26.56,26.56,0,0,1-3.2,2.59,4.3,4.3,0,0,1-2.12.89,1.92,1.92,0,0,1-1.51-.76,5.1,5.1,0,0,1-.95-2.15,8.39,8.39,0,0,1-.1-2.25,17.38,17.38,0,0,1,.36-2.31v.05l.51-1.48-.1-.1c-.21.2-.4.42-.59.64a4,4,0,0,1-.64.59,3.24,3.24,0,0,1-.44-.59,3.15,3.15,0,0,0-.38-.59q.1-.21.18-.39a2.8,2.8,0,0,0,.13-.38v.05c1.23-1.53,2.34-3,3.35-4.48s1.9-2.77,2.69-4Zm1.69-5.48a3.88,3.88,0,0,1-1.38,2.87,12.64,12.64,0,0,1-3.17-2.66,3.66,3.66,0,0,1,1.12-2.77A14.35,14.35,0,0,1,286.23,311.25Z"/><path class="cls-18" d="M286.28,325.94a1.05,1.05,0,0,1,.05-.26.8.8,0,0,0,.06-.3,84.35,84.35,0,0,0,5.24-7.17,46.58,46.58,0,0,0,3.41-6.14H294l-.67-.82c0-.82.84-1.19,2.41-1.12.55-1.3,1.12-2.63,1.72-4s1.18-2.69,1.76-4h4l-3.43,7.93h3.07a1.07,1.07,0,0,0,.31.44,1.1,1.1,0,0,1,.31.43c-.07.38-.52.66-1.36.85a15.39,15.39,0,0,1-3,.33c-.28.69-.57,1.4-.9,2.15s-.62,1.47-.89,2.15l-2.66,6.35c-.11.3-.24.65-.41,1.05l-.46,1c-.86,2-1.53,3.65-2,5a20.53,20.53,0,0,0-.84,2.64.43.43,0,0,0,.31.15q3.12-.15,8.08-7.72l.67,1a5.53,5.53,0,0,1-1.05,2.53,18.73,18.73,0,0,1-2.64,3.1,30.2,30.2,0,0,1-3.09,2.43,4.38,4.38,0,0,1-2.23.89,2.05,2.05,0,0,1-1.59-.76,5,5,0,0,1-1-2.05,5.92,5.92,0,0,1-.13-.9c0-.28,0-.55,0-.79a13.33,13.33,0,0,1,.18-2.2,9.6,9.6,0,0,1,.69-2.25l.15-.31c.17-.34.31-.6.41-.77a6.47,6.47,0,0,0,.41-.92l-.1-.15-1.46,1.69c-.53.61-1,1.16-1.51,1.64Z"/><path class="cls-18" d="M308.85,316.73a9.53,9.53,0,0,1-.41,1.1l-.46,1.05-.66,1.64q-.57,1.17-1.08,2.4c-.34.82-.65,1.6-.92,2.35-.72,1.71-1.31,3.21-1.79,4.51a22.54,22.54,0,0,0-.87,2.66l.26.15q1.74,0,4.45-3.43c1-1.19,1.81-2.13,2.48-2.81s1.08-1.09,1.25-1.23l.52.72a5.47,5.47,0,0,1-1,2.38,17.83,17.83,0,0,1-2.74,3.14,27.36,27.36,0,0,1-3.2,2.59,4.3,4.3,0,0,1-2.12.89,1.9,1.9,0,0,1-1.51-.76,5.1,5.1,0,0,1-.95-2.15,8,8,0,0,1-.1-2.25,17.38,17.38,0,0,1,.36-2.31v.05l.51-1.48-.1-.1c-.21.2-.4.42-.59.64a4,4,0,0,1-.64.59,2.83,2.83,0,0,1-.44-.59,3.74,3.74,0,0,0-.38-.59q.11-.21.18-.39a2.8,2.8,0,0,0,.13-.38v.05c1.22-1.53,2.34-3,3.35-4.48s1.9-2.77,2.68-4Zm1.69-5.48a4,4,0,0,1-1.38,2.87,12.64,12.64,0,0,1-3.17-2.66,3.66,3.66,0,0,1,1.12-2.77A14.55,14.55,0,0,1,310.54,311.25Z"/><path class="cls-18" d="M326.05,325.48a2.63,2.63,0,0,1-.05.49,1.65,1.65,0,0,0-.06.43,4.11,4.11,0,0,1-1.89,1.28,8.68,8.68,0,0,1-2.56.46,19.3,19.3,0,0,1-3.63,5,5.34,5.34,0,0,1-3.48,1.72,3.46,3.46,0,0,1-2.66-1.18,6.71,6.71,0,0,1-1.49-3.28c-.06-.37-.12-.75-.15-1.12s-.05-.65-.05-.82a12,12,0,0,1,2.81-7.47q3.44-4.3,6.76-4.3a3.64,3.64,0,0,1,2.2.92,6.45,6.45,0,0,1,.95,1.23,4.69,4.69,0,0,1,.58,1.38,10.72,10.72,0,0,1,0,2.71,11.89,11.89,0,0,1-.85,3.17l.93-.3a12.42,12.42,0,0,1,1.22-.69,3.28,3.28,0,0,1,1-.34Zm-12.23,7.57a4.36,4.36,0,0,0,2.53-1.25,16.78,16.78,0,0,0,2.84-3.1,19.35,19.35,0,0,0,2.2-4.35,8.13,8.13,0,0,0,.46-3.83,2.39,2.39,0,0,0-.54-1.36,1.42,1.42,0,0,0-1.1-.49c-.58,0-1.28.46-2.1,1.36a30.83,30.83,0,0,0-4.93,8.49,7,7,0,0,0-.44,3.46C312.84,332.69,313.2,333.05,313.82,333.05Z"/><path class="cls-18" d="M332.54,318.62a9.37,9.37,0,0,0-2.66,2.56c-1.22,1.5-2.71,3.46-4.45,5.89l-.54-.7c-.22-.28-.29-.41-.23-.38a.28.28,0,0,1,0-.15.37.37,0,0,0,0-.16c.62-1.09,1.25-2.09,1.9-3s1.26-1.74,1.84-2.45a27.29,27.29,0,0,1,2.64-2.43,3.57,3.57,0,0,1,2-.95,1.51,1.51,0,0,1,1.3.69,5.17,5.17,0,0,1,.75,1.87,1.4,1.4,0,0,1,.1.64v1.89a1.91,1.91,0,0,1-.1.64v.05a31.43,31.43,0,0,1,3.81-4.32,4.81,4.81,0,0,1,2.94-1.56,1.8,1.8,0,0,1,1.51.79,5.39,5.39,0,0,1,.84,2.28,14.44,14.44,0,0,1-1.48,7.78,36.38,36.38,0,0,0-1.84,4.91.33.33,0,0,0,.25.1c1.27,0,2.84-1.17,4.71-3.53,1.06-1.29,1.91-2.29,2.56-3a10.52,10.52,0,0,0,1.08-1.26l.46,1.08a4.9,4.9,0,0,1-.9,2.46,15.6,15.6,0,0,1-2.79,3.12q-3.69,3.38-5.37,3.37a2,2,0,0,1-1.61-.79,5.24,5.24,0,0,1-.95-2.28,13.19,13.19,0,0,1,.1-3.22,20.26,20.26,0,0,1,1.08-4v.05l2.66-6q-2.25.21-5.09,4.3A69.48,69.48,0,0,0,331,334.74h-3.89c.95-2.45,1.91-5,2.86-7.67s1.9-5.39,2.82-8.19Zm2.62,4s-.06,0-.06.05S335.12,322.61,335.16,322.61Z"/><path class="cls-19" d="M158.7,113.89c.84,2.46,1.64,4.94,2.46,7.42h4.59c-.88-2.68-1.84-5.55-2.94-8.8q-2.31-6.89-4.73-13.79c6.13,8.28,13.26,14,21.26,14,.55,0,1.11,0,1.66-.08,17.35-1.48,22.64-24.08,23.91-44,3.38,21.61,10.31,42,24.46,42l.69,0c11-.35,19.28-11.56,24.53-33.33a202.33,202.33,0,0,0,3.75-20.91,202.35,202.35,0,0,0,3.76,20.91c5.25,21.77,13.5,33,24.53,33.33l.69,0c14.14,0,21.08-20.37,24.46-42,1.27,19.88,6.56,42.48,23.91,44,.54,0,1.1.08,1.65.08,8,0,15.14-5.74,21.27-14q-2.42,6.9-4.73,13.78c-1.1,3.26-2.06,6.13-2.95,8.81h4.59c.82-2.48,1.63-5,2.47-7.42q7.93-23.61,16.85-46.95c1.17-3.09,2.36-6.2,3.57-9.3-1.53-.27-3.06-.53-4.6-.78-.06,0-1.11,3.37-3,8.37-5.5,14.6-18.07,43.17-33.47,43.17-.41,0-.83,0-1.25-.06-18.78-1.57-20.61-36.82-20.28-54.47.11-5.91.45-9.85.49-9.88-2.12-.1-4.23-.19-6.35-.25,0,0-.15,3.72-.64,9.28-1.57,17.44-6.68,53.33-22,53.33h-.52c-20.33-.59-25.45-53.17-26.57-78.81-.35-8.24-.3-13.7-.21-13.75l-1.68.11-1.67-.11c.09.05.14,5.51-.22,13.75-1.12,25.64-6.23,78.22-26.57,78.81h-.51c-15.31,0-20.42-35.89-22-53.33-.5-5.56-.64-9.25-.64-9.28-2.12.06-4.24.15-6.36.25,0,0,.39,4,.5,9.88.33,17.65-1.51,52.9-20.28,54.47q-.63.06-1.26.06c-15.39,0-28-28.57-33.46-43.17-1.89-5-2.95-8.36-3-8.37-1.54.25-3.07.51-4.6.78,1.2,3.1,2.39,6.21,3.57,9.3Q150.76,90.28,158.7,113.89Z"/><path class="cls-20" d="M211.72,45.67a8.77,8.77,0,0,1-9.11,8.51,8.94,8.94,0,0,1-8-9.68A8.77,8.77,0,0,1,203.71,36,8.94,8.94,0,0,1,211.72,45.67Z"/><path class="cls-21" d="M321.1,45.67A8.78,8.78,0,0,1,312,54.18a8.93,8.93,0,0,1-8-9.68,8.77,8.77,0,0,1,9.1-8.51A9,9,0,0,1,321.1,45.67Z"/><path class="cls-22" d="M149.35,58.48a8.77,8.77,0,0,1-9.1,8.51,8.94,8.94,0,0,1-8-9.68,8.77,8.77,0,0,1,9.1-8.51A8.93,8.93,0,0,1,149.35,58.48Z"/><path class="cls-23" d="M384.51,58.48a8.77,8.77,0,0,1-9.1,8.51,9,9,0,0,1-8-9.68,8.78,8.78,0,0,1,9.11-8.51A8.94,8.94,0,0,1,384.51,58.48Z"/><path class="cls-24" d="M272.7,14.86c-.47,7.7-6.72,13.54-14,13.05S246,20.78,246.45,13.08s6.71-13.54,14-13S273.16,7.16,272.7,14.86Z"/></g></g></svg>