<svg xmlns="http://www.w3.org/2000/svg" xmlns:xlink="http://www.w3.org/1999/xlink" viewBox="0 0 111.43 96.23"><defs><style>.cls-1{fill:url(#linear-gradient);}.cls-2{fill:url(#linear-gradient-2);}.cls-3{fill:url(#linear-gradient-3);}.cls-4{fill:url(#linear-gradient-4);}.cls-5{fill:url(#linear-gradient-5);}.cls-6{fill:url(#linear-gradient-6);}.cls-7{fill:url(#linear-gradient-7);}.cls-8{fill:url(#linear-gradient-8);}.cls-9{fill:url(#linear-gradient-9);}.cls-10{fill:url(#linear-gradient-10);}.cls-11{fill:url(#linear-gradient-11);}.cls-12{fill:url(#linear-gradient-12);}.cls-13{fill:url(#linear-gradient-13);}.cls-14{fill:url(#linear-gradient-14);}.cls-15{fill:url(#linear-gradient-15);}.cls-16{fill:url(#linear-gradient-16);}.cls-17{fill:url(#linear-gradient-17);}.cls-18{fill:url(#linear-gradient-18);}.cls-19{fill:url(#linear-gradient-19);}.cls-20{fill:url(#linear-gradient-20);}.cls-21{fill:url(#linear-gradient-21);}.cls-22{fill:url(#linear-gradient-22);}.cls-23{fill:url(#linear-gradient-23);}.cls-24{fill:url(#linear-gradient-24);}.cls-25{fill:url(#linear-gradient-25);}</style><linearGradient id="linear-gradient" y1="2.34" x2="4.69" y2="2.34" gradientUnits="userSpaceOnUse"><stop offset="0" stop-color="#b47a1a"/><stop offset="0.05" stop-color="#b9811e"/><stop offset="0.13" stop-color="#c69429"/><stop offset="0.22" stop-color="#dcb33c"/><stop offset="0.32" stop-color="#fade56"/><stop offset="0.33" stop-color="#ffe55a"/><stop offset="0.52" stop-color="#ffec88"/><stop offset="0.66" stop-color="#ffe55a"/><stop offset="1" stop-color="#b47a1a"/></linearGradient><linearGradient id="linear-gradient-2" x1="26.69" y1="2.34" x2="31.37" y2="2.34" xlink:href="#linear-gradient"/><linearGradient id="linear-gradient-3" x1="53.37" y1="2.34" x2="58.06" y2="2.34" xlink:href="#linear-gradient"/><linearGradient id="linear-gradient-4" x1="80.06" y1="2.34" x2="84.74" y2="2.34" xlink:href="#linear-gradient"/><linearGradient id="linear-gradient-5" x1="106.74" y1="2.34" x2="111.43" y2="2.34" xlink:href="#linear-gradient"/><linearGradient id="linear-gradient-6" y1="25.23" x2="4.69" y2="25.23" xlink:href="#linear-gradient"/><linearGradient id="linear-gradient-7" x1="26.69" y1="25.23" x2="31.37" y2="25.23" xlink:href="#linear-gradient"/><linearGradient id="linear-gradient-8" x1="53.37" y1="25.23" x2="58.06" y2="25.23" xlink:href="#linear-gradient"/><linearGradient id="linear-gradient-9" x1="80.06" y1="25.23" x2="84.74" y2="25.23" xlink:href="#linear-gradient"/><linearGradient id="linear-gradient-10" x1="106.74" y1="25.23" x2="111.43" y2="25.23" xlink:href="#linear-gradient"/><linearGradient id="linear-gradient-11" y1="48.12" x2="4.69" y2="48.12" xlink:href="#linear-gradient"/><linearGradient id="linear-gradient-12" x1="26.69" y1="48.12" x2="31.37" y2="48.12" xlink:href="#linear-gradient"/><linearGradient id="linear-gradient-13" x1="53.37" y1="48.12" x2="58.06" y2="48.12" xlink:href="#linear-gradient"/><linearGradient id="linear-gradient-14" x1="80.06" y1="48.12" x2="84.74" y2="48.12" xlink:href="#linear-gradient"/><linearGradient id="linear-gradient-15" x1="106.74" y1="48.12" x2="111.43" y2="48.12" xlink:href="#linear-gradient"/><linearGradient id="linear-gradient-16" y1="71" x2="4.69" y2="71" xlink:href="#linear-gradient"/><linearGradient id="linear-gradient-17" x1="26.69" y1="71" x2="31.37" y2="71" xlink:href="#linear-gradient"/><linearGradient id="linear-gradient-18" x1="53.37" y1="71" x2="58.06" y2="71" xlink:href="#linear-gradient"/><linearGradient id="linear-gradient-19" x1="80.06" y1="71" x2="84.74" y2="71" xlink:href="#linear-gradient"/><linearGradient id="linear-gradient-20" x1="106.74" y1="71" x2="111.43" y2="71" xlink:href="#linear-gradient"/><linearGradient id="linear-gradient-21" y1="93.89" x2="4.69" y2="93.89" xlink:href="#linear-gradient"/><linearGradient id="linear-gradient-22" x1="26.69" y1="93.89" x2="31.37" y2="93.89" xlink:href="#linear-gradient"/><linearGradient id="linear-gradient-23" x1="53.37" y1="93.89" x2="58.06" y2="93.89" xlink:href="#linear-gradient"/><linearGradient id="linear-gradient-24" x1="80.06" y1="93.89" x2="84.74" y2="93.89" xlink:href="#linear-gradient"/><linearGradient id="linear-gradient-25" x1="106.74" y1="93.89" x2="111.43" y2="93.89" xlink:href="#linear-gradient"/></defs><title>Asset 12dots</title><g id="Layer_2" data-name="Layer 2"><g id="Layer_1-2" data-name="Layer 1"><path class="cls-1" d="M4.69,2.34A2.35,2.35,0,1,1,2.34,0,2.35,2.35,0,0,1,4.69,2.34Z"/><path class="cls-2" d="M31.37,2.34A2.34,2.34,0,1,1,29,0,2.35,2.35,0,0,1,31.37,2.34Z"/><path class="cls-3" d="M58.06,2.34A2.35,2.35,0,1,1,55.71,0,2.35,2.35,0,0,1,58.06,2.34Z"/><path class="cls-4" d="M84.74,2.34A2.34,2.34,0,1,1,82.4,0,2.35,2.35,0,0,1,84.74,2.34Z"/><path class="cls-5" d="M111.43,2.34A2.35,2.35,0,1,1,109.08,0,2.35,2.35,0,0,1,111.43,2.34Z"/><path class="cls-6" d="M4.69,25.23a2.35,2.35,0,1,1-2.35-2.34A2.35,2.35,0,0,1,4.69,25.23Z"/><path class="cls-7" d="M31.37,25.23A2.34,2.34,0,1,1,29,22.89,2.34,2.34,0,0,1,31.37,25.23Z"/><path class="cls-8" d="M58.06,25.23a2.35,2.35,0,1,1-2.35-2.34A2.35,2.35,0,0,1,58.06,25.23Z"/><path class="cls-9" d="M84.74,25.23a2.34,2.34,0,1,1-2.34-2.34A2.34,2.34,0,0,1,84.74,25.23Z"/><path class="cls-10" d="M111.43,25.23a2.35,2.35,0,1,1-2.35-2.34A2.35,2.35,0,0,1,111.43,25.23Z"/><path class="cls-11" d="M4.69,48.12a2.35,2.35,0,1,1-2.35-2.35A2.35,2.35,0,0,1,4.69,48.12Z"/><circle class="cls-12" cx="29.03" cy="48.12" r="2.34"/><path class="cls-13" d="M58.06,48.12a2.35,2.35,0,1,1-2.35-2.35A2.35,2.35,0,0,1,58.06,48.12Z"/><circle class="cls-14" cx="82.4" cy="48.12" r="2.34"/><path class="cls-15" d="M111.43,48.12a2.35,2.35,0,1,1-2.35-2.35A2.35,2.35,0,0,1,111.43,48.12Z"/><path class="cls-16" d="M4.69,71a2.35,2.35,0,1,1-2.35-2.34A2.35,2.35,0,0,1,4.69,71Z"/><circle class="cls-17" cx="29.03" cy="71" r="2.34"/><path class="cls-18" d="M58.06,71a2.35,2.35,0,1,1-2.35-2.34A2.35,2.35,0,0,1,58.06,71Z"/><circle class="cls-19" cx="82.4" cy="71" r="2.34"/><path class="cls-20" d="M111.43,71a2.35,2.35,0,1,1-2.35-2.34A2.35,2.35,0,0,1,111.43,71Z"/><path class="cls-21" d="M4.69,93.89a2.35,2.35,0,1,1-2.35-2.35A2.35,2.35,0,0,1,4.69,93.89Z"/><path class="cls-22" d="M31.37,93.89A2.34,2.34,0,1,1,29,91.54,2.34,2.34,0,0,1,31.37,93.89Z"/><path class="cls-23" d="M58.06,93.89a2.35,2.35,0,1,1-2.35-2.35A2.35,2.35,0,0,1,58.06,93.89Z"/><path class="cls-24" d="M84.74,93.89a2.34,2.34,0,1,1-2.34-2.35A2.34,2.34,0,0,1,84.74,93.89Z"/><path class="cls-25" d="M111.43,93.89a2.35,2.35,0,1,1-2.35-2.35A2.35,2.35,0,0,1,111.43,93.89Z"/></g></g></svg>