<svg xmlns="http://www.w3.org/2000/svg" xmlns:xlink="http://www.w3.org/1999/xlink" viewBox="0 0 462.87 381.4"><defs><style>.cls-1{isolation:isolate;}.cls-2{fill:url(#linear-gradient);}.cls-3{fill:url(#linear-gradient-2);}.cls-4{fill:url(#linear-gradient-3);}.cls-5{opacity:0.7;fill:url(#linear-gradient-4);}.cls-5,.cls-8{mix-blend-mode:multiply;}.cls-6{fill:url(#linear-gradient-5);}.cls-7{fill:url(#linear-gradient-6);}.cls-8{opacity:0.6;fill:url(#linear-gradient-7);}</style><linearGradient id="linear-gradient" x1="-41.35" y1="267.22" x2="184.18" y2="267.22" gradientTransform="matrix(-0.99, -0.16, -0.16, 0.99, 361.47, -96.6)" gradientUnits="userSpaceOnUse"><stop offset="0" stop-color="#b47a1a"/><stop offset="0.05" stop-color="#b9811e"/><stop offset="0.13" stop-color="#c69429"/><stop offset="0.22" stop-color="#dcb33c"/><stop offset="0.32" stop-color="#fade56"/><stop offset="0.33" stop-color="#ffe55a"/><stop offset="0.52" stop-color="#ffec88"/><stop offset="0.66" stop-color="#ffe55a"/><stop offset="1" stop-color="#b47a1a"/></linearGradient><linearGradient id="linear-gradient-2" x1="162.84" y1="133.72" x2="297.23" y2="133.72" gradientTransform="matrix(-0.98, 0.17, 0.17, 0.98, 350.73, 86.22)" xlink:href="#linear-gradient"/><linearGradient id="linear-gradient-3" x1="271.64" y1="153.44" x2="373.24" y2="153.44" gradientTransform="matrix(-0.98, 0.17, 0.17, 0.98, 350.73, 86.22)" xlink:href="#linear-gradient"/><linearGradient id="linear-gradient-4" x1="-20" y1="242.26" x2="188.33" y2="242.26" gradientTransform="matrix(-1, 0, 0, 1, 358.04, 0)" xlink:href="#linear-gradient"/><linearGradient id="linear-gradient-5" x1="-497.42" y1="232.44" x2="-373.67" y2="232.44" gradientTransform="matrix(-1, 0, 0, 1, -207.44, 0)" xlink:href="#linear-gradient"/><linearGradient id="linear-gradient-6" x1="-314.78" y1="139.29" x2="-101.08" y2="139.29" gradientTransform="matrix(-1, -0.02, -0.02, 1, 150.87, 1.51)" xlink:href="#linear-gradient"/><linearGradient id="linear-gradient-7" x1="-380.66" y1="199.18" x2="-187.53" y2="199.18" gradientTransform="matrix(-1, 0, 0, 1, 40.57, 0)" xlink:href="#linear-gradient"/></defs><title>Asset 14left-right</title><g class="cls-1"><g id="Layer_2" data-name="Layer 2"><g id="Layer_1-2" data-name="Layer 1"><path class="cls-2" d="M225.4,67.84l-.65-1.17a300.43,300.43,0,0,0-61-23.42,278.36,278.36,0,0,1,46.19,5,319.62,319.62,0,0,0-38.26-17.39,281.76,281.76,0,0,1,34.24,3.76c-.21-.32-.4-.66-.61-1q-14.14-8.12-28.72-14.74c5.72-.89,14.84-.89,22.78,5.52-3.91-5.95-3.07-5.47,1.21.75-.49-.8-1.11-1.72-1.9-2.86C197.2,13,200,6.57,202.9,1.46q1.71,16,3,31.53l.83,1.27c3.35-10.7,6.71-21.56,10.16-32.53q.65,21.56.75,42.3Q224.83,22.53,232.37.3q-2.56,33.87-5.9,65.75c.23.37.44.73.66,1.11,6.19-21.16,12.47-43,19-65.3q-3.61,37.47-8,72.58c7.13-22.75,14.45-46.26,22.13-70.25Q254,46.51,247.28,86c8.15-24.26,16.54-49.4,25.41-75q-8.34,44.84-16.89,86.6c11.22-26.11,23-53.09,35.79-80.32-10.39,34.54-20.19,68.1-29.78,100.12,14.72-29.78,30.41-60.66,47.94-91.44-14.07,35.62-26.94,70.52-39.23,103.83,14.43-27.77,29.81-56.42,46.83-85-14.58,34.87-28,69.05-40.69,101.68,14.69-27,30.38-55,47.7-82.75-15.07,34.12-28.92,67.56-42.07,99.54,14.94-26.35,30.9-53.51,48.49-80.54-15.54,33.39-29.84,66.14-43.36,97.48,15.14-25.68,31.36-52.12,49.16-78.42-16,32.66-30.67,64.71-44.56,95.44,15.34-25,31.77-50.76,49.76-76.33-16.36,31.94-31.46,63.32-45.68,93.44,15.5-24.4,32.11-49.44,50.29-74.31-16.74,31.24-32.19,61.94-46.71,91.48,15.62-23.79,32.39-48.17,50.71-72.34-17.07,30.55-32.86,60.61-47.67,89.59,15.74-23.22,32.65-46.94,51.07-70.46-17.38,29.89-33.46,59.31-48.55,87.72,15.83-22.64,32.85-45.73,51.37-68.59-19.91,32.91-38.16,65.29-55.12,96.42.84,8,1.53,16,2,24-1.87-.06-3.74-.13-5.6-.15q-.69-12-1.91-24a252.93,252.93,0,0,0-85.54-71.56,245.4,245.4,0,0,1,74.5,44.58,254.1,254.1,0,0,0-80.64-58.24,248.56,248.56,0,0,1,77.47,41.69,256.33,256.33,0,0,0-84-55.12,251.62,251.62,0,0,1,80.3,38.65,258.22,258.22,0,0,0-87.19-51.83A254.5,254.5,0,0,1,274,217.3a260.22,260.22,0,0,0-90.3-48.44,257.56,257.56,0,0,1,85.64,32.19,262.12,262.12,0,0,0-93.24-44.87A260.18,260.18,0,0,1,264.19,185a263.84,263.84,0,0,0-96.06-41.21A262.79,262.79,0,0,1,258.57,169a265.58,265.58,0,0,0-98.69-37.38,265.4,265.4,0,0,1,92.59,21.56A267.15,267.15,0,0,0,151.3,119.76a267.33,267.33,0,0,1,94.62,17.78,267.88,267.88,0,0,0-103.5-29.36A269.53,269.53,0,0,1,243.6,123.69,272.85,272.85,0,0,0,146.89,93.1a270.84,270.84,0,0,1,85.84,13.58,282,282,0,0,0-80.09-29,273.37,273.37,0,0,1,76.52,16,286.3,286.3,0,0,0-75.51-27.38,276.11,276.11,0,0,1,71.5,13.91,295,295,0,0,0-66.47-25.52A280.38,280.38,0,0,1,225.4,67.84Z"/><path class="cls-3" d="M136,188.46c-.05-.33-.08-.65-.11-1a203.43,203.43,0,0,1,26.64-38.1A187.7,187.7,0,0,0,137,170.31a217.41,217.41,0,0,1,15.57-25.57,191,191,0,0,0-18.86,15.53c0-.28,0-.56,0-.84a227.94,227.94,0,0,1,11-20.24,19.33,19.33,0,0,0-11.29,12.21c-.15-5.22-.44-4.59-.43.93,0-.69,0-1.5,0-2.51a23.8,23.8,0,0,0-11.23-11.35q5.64,10.6,11.36,20.78l0,1.11L113.46,144q8.6,13.66,17.2,26.61-13.27-10.6-27-21.52,15.66,20.07,30.94,38.64c0,.31.05.63.08.94-12.52-10.78-25.38-21.95-38.59-33.31q17.79,21.92,35.05,42.09c-13.74-11.41-27.91-23.22-42.51-35.2q21.39,23.92,41.87,45.91c-15-12-30.47-24.39-46.46-36.92q23.69,24.69,46.2,47.4c-17.58-11.93-35.85-24.19-54.86-36.2C96,200,115.81,217.07,134.87,233.29c-21.19-12.85-43.43-26-66.73-38.42,23.25,16.75,45.48,33.51,66.7,49.5-20.18-11.72-41.31-23.62-63.38-34.84,23.24,16.08,45.48,32.2,66.69,47.6C118.1,246,97.1,234.64,75.17,224c23.23,15.42,45.44,30.9,66.62,45.73-19.9-10.64-40.76-21.39-62.51-31.44,23.19,14.8,45.38,29.66,66.52,44-19.75-10.15-40.45-20.35-62-29.86,23.14,14.18,45.29,28.46,66.38,42.23C130.56,285,110,275.28,88.63,266.31c23.08,13.58,45.18,27.28,66.22,40.55-19.42-9.21-39.77-18.4-61-26.87,23,13,45,26.15,66,38.94-19.24-8.79-39.42-17.5-60.43-25.49,22.93,12.45,44.89,25.07,65.8,37.39-19.06-8.39-39-16.63-59.85-24.16,22.84,11.9,44.7,24,65.56,35.88-18.9-8-38.68-15.81-59.26-22.9,25.61,12.81,50,25.93,73.1,38.77q4.24,7.95,8.82,15.72l3.28-2.26q-4.6-7.75-8.89-15.69a177.78,177.78,0,0,1,21.19-77.51,169.29,169.29,0,0,0-25.86,56.45,176.74,176.74,0,0,1,23.83-67.32,170.24,170.24,0,0,0-28.84,55.8,177.09,177.09,0,0,1,27.13-66.67,171.57,171.57,0,0,0-31.8,55,177.5,177.5,0,0,1,30.41-65.87,172.64,172.64,0,0,0-34.75,54.1A178,178,0,0,1,203,235.24a174.24,174.24,0,0,0-37.67,53,178.84,178.84,0,0,1,36.91-63.86,175.29,175.29,0,0,0-40.57,51.89,179,179,0,0,1,40.12-62.67,176.77,176.77,0,0,0-43.42,50.56,179.26,179.26,0,0,1,43.28-61.3A178.25,178.25,0,0,0,155.39,252a180.09,180.09,0,0,1,46.42-59.78,179.26,179.26,0,0,0-49,47.52,180.41,180.41,0,0,1,49.5-58.15,181.3,181.3,0,0,0-53.9,48.62,184.23,184.23,0,0,1,45-56.29,181.48,181.48,0,0,0-45.56,41.54,190.35,190.35,0,0,1,35.67-49,183.65,183.65,0,0,0-39,39.49,193.84,193.84,0,0,1,33.63-46.15,185.29,185.29,0,0,0-36.85,36.23,199.16,199.16,0,0,1,29-41.51A187.75,187.75,0,0,0,136,188.46Z"/><path class="cls-4" d="M51.26,241c0-.25,0-.5-.08-.74a153.75,153.75,0,0,1,20.14-28.8,142,142,0,0,0-19.26,15.82A165.36,165.36,0,0,1,63.84,208a143.75,143.75,0,0,0-14.26,11.74l0-.64a172.44,172.44,0,0,1,8.31-15.3A14.64,14.64,0,0,0,49.32,213c-.11-3.94-.33-3.47-.32.71,0-.52,0-1.14,0-1.9a18,18,0,0,0-8.49-8.58q4.26,8,8.58,15.7l0,.85L34.26,207.44q6.5,10.34,13,20.12-10-8-20.44-16.27Q38.66,226.47,50.2,240.5c0,.24,0,.48.07.71C40.8,233.06,31.08,224.62,21.09,216q13.46,16.58,26.5,31.81c-10.39-8.62-21.1-17.54-32.13-26.6q16.16,18.07,31.65,34.7c-11.33-9.05-23-18.43-35.12-27.9q17.9,18.66,34.92,35.83c-13.28-9-27.1-18.29-41.47-27.37C21,249.72,36,262.66,50.44,274.92c-16-9.72-32.83-19.67-50.44-29.05,17.57,12.67,34.38,25.33,50.42,37.42C35.17,274.43,19.19,265.43,2.51,257c17.57,12.15,34.38,24.33,50.41,36-15.15-8.44-31-17-47.61-25,17.56,11.66,34.35,23.36,50.36,34.57-15-8-30.81-16.17-47.25-23.76C26,289.9,42.72,301.14,58.71,312c-14.94-7.68-30.58-15.39-46.9-22.58,17.5,10.72,34.24,21.51,50.19,31.92C47.19,314,31.66,306.66,15.49,299.88c17.45,10.26,34.15,20.62,50.06,30.65-14.68-7-30.07-13.91-46.11-20.31C36.83,320,53.49,330,69.35,339.66,54.8,333,39.54,326.43,23.67,320.39,41,329.8,57.6,339.34,73.41,348.65,59,342.31,43.89,336.08,28.16,330.39c17.27,9,33.8,18.15,49.56,27.12-14.28-6-29.24-11.95-44.79-17.31,19.36,9.69,37.79,19.6,55.26,29.31q3.21,6,6.66,11.89c.83-.58,1.65-1.15,2.48-1.71q-3.48-5.87-6.71-11.87a134.24,134.24,0,0,1,16-58.59A127.89,127.89,0,0,0,87.08,351.9a133.68,133.68,0,0,1,18-50.88A128.52,128.52,0,0,0,83.3,343.2a133.76,133.76,0,0,1,20.5-50.4,129.67,129.67,0,0,0-24,41.58,134.33,134.33,0,0,1,23-49.79,130.63,130.63,0,0,0-26.27,40.89,134.77,134.77,0,0,1,25.46-49.09,131.64,131.64,0,0,0-28.48,40.1,135.14,135.14,0,0,1,27.91-48.28,132.47,132.47,0,0,0-30.68,39.23A135.24,135.24,0,0,1,101,260.07,133.42,133.42,0,0,0,68.2,298.29a135.55,135.55,0,0,1,32.72-46.35,134.63,134.63,0,0,0-35,37.12,136,136,0,0,1,35.09-45.19A135.72,135.72,0,0,0,64,279.79a136.5,136.5,0,0,1,37.42-44,137,137,0,0,0-40.75,36.76,139.28,139.28,0,0,1,34-42.55,137.06,137.06,0,0,0-34.44,31.4,143.89,143.89,0,0,1,27-37,139,139,0,0,0-29.45,29.85A146.72,146.72,0,0,1,83.13,219.4a140.46,140.46,0,0,0-27.85,27.39,150.48,150.48,0,0,1,21.93-31.38A142,142,0,0,0,51.26,241Z"/><path class="cls-5" d="M313.46,307.44s22.12,9.86,33.69,3.05c0,0-32.72,26.77-65.07-.15a2,2,0,0,1,0,.34c-.16,1.22-.44,2.4-.64,3.58s-.44,2.32-.66,3.45-.54,2.24-.81,3.33c-.6,2.17-1.09,4.27-1.83,6.23s-1.29,3.86-2,5.6-1.46,3.39-2.17,4.92c-1.44,3-3,5.55-4.13,7.64-2.7,4-4.3,6.2-4.3,6.2l-.51-.3s1-2.56,2.91-6.85c.39-1.11.83-2.33,1.3-3.67.25-.66.51-1.35.77-2.06.14-.36.27-.72.4-1.09s.22-.76.34-1.15c.44-1.58,1-3.22,1.49-5s.86-3.63,1.36-5.56.82-4,1.2-6.07c.09-.52.19-1,.3-1.56-8.82,17.56-31.93,49.88-78,34.66,0,0,31.56-5.1,49.25-19.88,0,0-32.7,11.15-53.43-4.27,0,0,32,1.46,54.81-19.74,0,0-35.62,13.11-71-16.16,0,0,53.91,9.19,74.76-7.67,0,0-49.35,13.84-78.12-7.5,0,0,67.81-1.65,86.84-12.89,0,0-53.52,8.77-70-3.2,0,0,32-16.57,56.2-18.25,0,0-30.46-13.59-64.84-1.12,0,0,19.92-25.46,52.16-22.45,0,0-18.32-11.33-64.08-17.46,0,0,26.17-14.72,51.59-8,0,0-45.07-12.1-50.35-33.5,0,0,37.79,17.84,51.06,13.44,0,0-5.09-20.4-49.13-46.79,0,0,32.57-3.43,65.55,33.05a112.56,112.56,0,0,0-33-31.53s22.64,0,40.42,21.9c0,0-5.86-15.77-16.17-23.05,0,0,23.9,5.05,37.65,31.68,0,0-7.61-23.81-18-32.14,0,0,33.07,19,32.85,49,0,0,4.64-23.78-9.55-41.43,0,0,28,29.38,21,61.09,0,0,11.72-43,.92-60.21,0,0,29.28,23,6.56,81.28,0,0,14.92-24.79,16.08-44.31,0,0,15,11.92-2.78,53.18,0,0,16.46-21.19,17.8-41.26,0,0,17.09,13.82-9.49,58.46,0,0,23.44-13.95,26.39-36.41,0,0,5.75,24.44-13.8,49.4,0,0,35.05-15.79,42.38-37,0,0,5.95,27-30.82,53.2,0,0,18.59-2.88,25.12-13.4,0,0-8.42,32.9-48.17,37,0,0,25.64,4.16,35.87-5.57C359.68,290.52,345.62,313.94,313.46,307.44Z"/><path class="cls-6" d="M228.74,167.45q0-.47.06-.9a186.87,186.87,0,0,1,30.3-30.26,172.44,172.44,0,0,0-26.47,14.87,200.54,200.54,0,0,1,18.24-20.67,175.73,175.73,0,0,0-19.6,11l.09-.77c4.19-5.8,8.6-11.35,13.23-16.58a17.88,17.88,0,0,0-12.2,9.25c.7-4.74.34-4.23-.54.79.1-.63.21-1.37.37-2.29a21.88,21.88,0,0,0-8.35-12.09q3.4,10.51,6.94,20.66c-.05.34-.09.68-.15,1q-7.47-8.85-15.15-17.95,5.6,13.77,11.3,26.88-10.32-11.73-21-23.85,11,20.72,21.81,40c0,.29-.06.57-.07.86-9.61-11.78-19.47-24-29.62-36.39q12.6,22.74,25,43.78c-10.62-12.55-21.56-25.53-32.86-38.73q15.53,25.13,30.55,48.34c-11.65-13.27-23.69-27-36.16-40.93q17.49,26.19,34.24,50.39c-14-13.64-28.6-27.68-43.9-41.63,15.87,19.17,31.1,37.87,45.77,55.64-17.14-15.06-35.18-30.57-54.29-45.55,18.37,18.92,35.82,37.68,52.48,55.58-16.41-13.86-33.64-28-51.84-41.76,18.47,18.31,36,36.49,52.78,53.86-16.37-13.34-33.58-27-51.75-40.13,18.56,17.71,36.2,35.31,53,52.16-16.33-12.84-33.5-25.94-51.6-38.54,18.64,17.14,36.35,34.18,53.22,50.53-16.27-12.38-33.39-24.94-51.42-37,18.69,16.58,36.46,33.07,53.37,49-16.2-11.92-33.25-24-51.21-35.57,18.74,16,36.56,32,53.49,47.4-16.12-11.48-33.09-23.07-50.95-34.16,18.76,15.48,36.6,30.94,53.57,45.91-16-11.06-32.92-22.2-50.67-32.82,18.77,15,36.64,29.94,53.62,44.47-15.94-10.67-32.72-21.35-50.37-31.52,18.79,14.46,36.66,28.95,53.64,43.06-15.83-10.28-32.51-20.54-50-30.27,21.15,15.72,41.14,31.53,60,46.88q2.57,7.89,5.45,15.67c1.11-.52,2.23-1,3.34-1.52q-2.92-7.78-5.52-15.66A163.74,163.74,0,0,1,280.58,261,155.78,155.78,0,0,0,248,308a162.89,162.89,0,0,1,32.46-57.21,156.9,156.9,0,0,0-35.14,46,163.16,163.16,0,0,1,35.35-56.09A158.21,158.21,0,0,0,243,285.45a163.84,163.84,0,0,1,38.2-54.83A159.1,159.1,0,0,0,241,274.09a164.19,164.19,0,0,1,41-53.47,160.39,160.39,0,0,0-42.7,42,164.7,164.7,0,0,1,43.76-52,161.57,161.57,0,0,0-45.16,40.53,165.13,165.13,0,0,1,46.48-50.37,163,163,0,0,0-47.52,38.86A165.41,165.41,0,0,1,286,191.09a164.09,164.09,0,0,0-49.85,37.09,165.9,165.9,0,0,1,51.72-46.75,165.46,165.46,0,0,0-52.12,35.21A166.52,166.52,0,0,1,290,171.87a167,167,0,0,0-56.71,35.43,170,170,0,0,1,49.84-43.82,167.39,167.39,0,0,0-48,30.34,175.72,175.72,0,0,1,40.23-38.64,169.59,169.59,0,0,0-41.69,29.54,178.63,178.63,0,0,1,37.93-36.43,170.33,170.33,0,0,0-39.24,26.92,183.18,183.18,0,0,1,33-33A173.3,173.3,0,0,0,228.74,167.45Z"/><path class="cls-7" d="M322.54,64.65l-.76-1a284.55,284.55,0,0,0-60.37-13.89,265.06,265.06,0,0,1,44-1.42,303.51,303.51,0,0,0-38.2-11.24,269.85,269.85,0,0,1,32.62-1c-.25-.27-.47-.56-.71-.83q-14.34-5.75-28.9-10c5.24-1.59,13.8-2.8,22.1,2.15-4.46-5.06-3.61-4.72,1.24.55-.57-.68-1.28-1.46-2.17-2.43-2.61-8.56-.84-14.95,1.2-20.13q3.74,14.78,7,29.18l.94,1.08c1.72-10.48,3.43-21.11,5.2-31.87q3.48,20.15,6.33,39.59,3.89-21.12,8-43,2.12,32.1,3.23,62.45c.26.33.51.63.76,1,3-20.67,6-42,9.15-63.78q1.59,35.63,2.15,69.15c3.66-22.29,7.4-45.31,11.4-68.83-.15,27-.55,53.2-1.29,78.43,4.41-23.84,8.94-48.53,13.85-73.75Q357.47,48.17,355,88.48c7-26,14.49-52.85,22.88-80.09C372.74,42.17,368,75,363.29,106.26c9.84-29.88,20.45-60.94,32.79-92.13-8.45,35.28-15.87,69.72-23,102.6,9.84-28,20.45-56.88,32.62-85.93-9,34.65-17,68.49-24.64,100.79,10.18-27.33,21.18-55.59,33.73-83.95-9.59,34-18.13,67.21-26.21,99,10.51-26.7,21.86-54.3,34.76-82-10.13,33.38-19.18,66-27.69,97.19,10.78-26.1,22.48-53.06,35.67-80.08-10.62,32.75-20.15,64.76-29.09,95.44,11.06-25.52,23-51.84,36.51-78.21-11.09,32.14-21.08,63.58-30.4,93.72,11.29-24.95,23.53-50.64,37.28-76.38-11.54,31.52-21.95,62.37-31.64,92,11.49-24.39,24-49.49,37.94-74.59-11.95,30.93-22.75,61.22-32.79,90.36,11.68-23.86,24.38-48.36,38.53-72.86-12.33,30.34-23.5,60.07-33.87,88.73,11.84-23.34,24.73-47.26,39.05-71.16-14.28,33.51-27.09,66.3-38.86,97.76,1.85,7.39,3.56,14.8,5.08,22.26-1.76.19-3.53.37-5.28.6q-2.25-11.2-5-22.3a239.92,239.92,0,0,0-89.77-55.79,232.61,232.61,0,0,1,75.82,31.94,240.81,240.81,0,0,0-83.41-43.94,235.5,235.5,0,0,1,78.23,28.84,243,243,0,0,0-86.12-40.57A238.36,238.36,0,0,1,394,213.19a244.78,244.78,0,0,0-88.7-37.07A241.62,241.62,0,0,1,388,198.41,246.82,246.82,0,0,0,296.83,165a244.12,244.12,0,0,1,84.63,18.84A248.37,248.37,0,0,0,288,154.06a246.71,246.71,0,0,1,86.51,15.32,250.15,250.15,0,0,0-95.6-25.92,248.81,248.81,0,0,1,88.19,11.69,251.28,251.28,0,0,0-97.55-22,251.45,251.45,0,0,1,89.73,7.94,253.05,253.05,0,0,0-99.36-17.93,253.28,253.28,0,0,1,91.13,4.13,254.18,254.18,0,0,0-101-13.83,256,256,0,0,1,97,1.14,259,259,0,0,0-94.8-15.87,256.54,256.54,0,0,1,82.34,1.36,267.33,267.33,0,0,0-79-16.62A259.57,259.57,0,0,1,329.5,88.4,271.77,271.77,0,0,0,255,72.73,261.43,261.43,0,0,1,324,76.31,279.37,279.37,0,0,0,258.2,61.17,266.12,266.12,0,0,1,322.54,64.65Z"/><path class="cls-8" d="M361.37,259.61s20.51,9.14,31.23,2.82c0,0-30.33,24.82-60.32-.14,0,.11,0,.21,0,.32-.16,1.12-.41,2.22-.6,3.31s-.41,2.16-.61,3.21-.51,2.08-.75,3.08c-.56,2-1,4-1.7,5.77s-1.2,3.59-1.87,5.2-1.36,3.14-2,4.56c-1.34,2.81-2.77,5.14-3.83,7.08-2.5,3.72-4,5.75-4,5.75l-.47-.28s.94-2.37,2.7-6.34c.36-1,.77-2.17,1.2-3.41.24-.61.47-1.25.72-1.91.12-.33.25-.67.37-1s.2-.71.31-1.07c.41-1.46.9-3,1.38-4.59s.8-3.37,1.26-5.15.76-3.69,1.11-5.63c.09-.49.19-1,.28-1.45C317.58,286,296.16,316,253.48,301.86c0,0,29.26-4.73,45.66-18.43,0,0-30.32,10.34-49.53-4,0,0,29.68,1.36,50.81-18.3,0,0-33,12.15-65.77-15,0,0,50,8.52,69.3-7.11,0,0-45.75,12.83-72.42-7,0,0,62.87-1.52,80.5-11.94,0,0-49.61,8.13-64.87-3,0,0,29.64-15.36,52.1-16.92,0,0-28.24-12.6-60.11-1,0,0,18.46-23.6,48.36-20.81,0,0-17-10.5-59.41-16.18,0,0,24.26-13.65,47.83-7.37,0,0-41.79-11.23-46.68-31.07,0,0,35,16.55,47.34,12.47,0,0-4.72-18.91-45.55-43.38,0,0,30.19-3.18,60.76,30.64a104.29,104.29,0,0,0-30.61-29.23s21,0,37.47,20.31c0,0-5.44-14.63-15-21.38,0,0,22.15,4.69,34.91,29.37,0,0-7.06-22.07-16.67-29.8,0,0,30.65,17.62,30.45,45.41,0,0,4.3-22-8.86-38.4,0,0,26,27.24,19.48,56.64,0,0,10.87-39.89.85-55.82,0,0,27.14,21.28,6.08,75.34,0,0,13.83-23,14.91-41.07,0,0,13.92,11.05-2.58,49.3,0,0,15.26-19.65,16.5-38.25,0,0,15.85,12.81-8.79,54.19,0,0,21.73-12.93,24.46-33.75,0,0,5.33,22.66-12.79,45.79,0,0,32.49-14.63,39.29-34.32,0,0,5.51,25-28.58,49.32,0,0,17.24-2.67,23.3-12.43,0,0-7.81,30.51-44.67,34.31,0,0,23.78,3.86,33.26-5.17C404.22,243.91,391.18,265.63,361.37,259.61Z"/></g></g></g></svg>