<svg xmlns="http://www.w3.org/2000/svg" xmlns:xlink="http://www.w3.org/1999/xlink" viewBox="0 0 538.92 357.98"><defs><style>.cls-1{font-size:119.7px;font-family:Amigos;}.cls-2{fill:url(#linear-gradient);}.cls-3{font-size:107.84px;stroke:#000;stroke-miterlimit:10;}.cls-3,.cls-5{fill:none;}.cls-3,.cls-9{font-family:Montserrat-Bold, Montserrat;font-weight:700;}.cls-4{letter-spacing:-0.01em;}.cls-5{stroke-width:2px;stroke:url(#linear-gradient-7);}.cls-6{font-size:75.37px;font-family:Raleway-Medium, Raleway;font-weight:500;letter-spacing:-0.07em;}.cls-7{letter-spacing:-0.03em;}.cls-8{fill:url(#linear-gradient-13);}.cls-11,.cls-9{font-size:56.29px;}.cls-10{fill:url(#linear-gradient-15);}.cls-11{font-family:Crystalsymphony-Personaluseonly, Crystal symphony  Personal use only;}.cls-12{letter-spacing:0.01em;}.cls-13{letter-spacing:0em;}.cls-14{letter-spacing:0em;}.cls-15{letter-spacing:0em;}.cls-16{letter-spacing:0.01em;}.cls-17{letter-spacing:0em;}.cls-18{fill:url(#linear-gradient-19);}.cls-19{fill:url(#linear-gradient-31);}.cls-20{fill:url(#linear-gradient-32);}.cls-21{fill:url(#linear-gradient-33);}.cls-22{fill:url(#linear-gradient-34);}.cls-23{fill:url(#linear-gradient-35);}.cls-24{fill:url(#linear-gradient-36);}</style><linearGradient id="linear-gradient" x1="100.35" y1="161.9" x2="382.8" y2="161.9" gradientUnits="userSpaceOnUse"><stop offset="0" stop-color="#b47a1a"/><stop offset="0.05" stop-color="#b9811e"/><stop offset="0.13" stop-color="#c69429"/><stop offset="0.22" stop-color="#dcb33c"/><stop offset="0.32" stop-color="#fade56"/><stop offset="0.33" stop-color="#ffe55a"/><stop offset="0.52" stop-color="#ffec88"/><stop offset="0.66" stop-color="#ffe55a"/><stop offset="1" stop-color="#b47a1a"/></linearGradient><linearGradient id="linear-gradient-7" x1="2.48" y1="226.47" x2="480.49" y2="226.47" xlink:href="#linear-gradient"/><linearGradient id="linear-gradient-13" x1="459.71" y1="238.73" x2="538.92" y2="238.73" xlink:href="#linear-gradient"/><linearGradient id="linear-gradient-15" x1="168.9" y1="287.96" x2="312.96" y2="287.96" xlink:href="#linear-gradient"/><linearGradient id="linear-gradient-19" x1="139.43" y1="321.28" x2="336.97" y2="321.28" xlink:href="#linear-gradient"/><linearGradient id="linear-gradient-31" x1="250.11" y1="132.74" x2="242.52" y2="13.85" xlink:href="#linear-gradient"/><linearGradient id="linear-gradient-32" x1="290.61" y1="-43.49" x2="290.61" y2="-61.71" gradientTransform="translate(-103.25 79.04) rotate(3.66)" xlink:href="#linear-gradient"/><linearGradient id="linear-gradient-33" x1="399.76" y1="-50.47" x2="399.76" y2="-68.69" gradientTransform="translate(-103.25 79.04) rotate(3.66)" xlink:href="#linear-gradient"/><linearGradient id="linear-gradient-34" x1="229.19" y1="-26.73" x2="229.19" y2="-44.95" gradientTransform="translate(-103.25 79.04) rotate(3.66)" xlink:href="#linear-gradient"/><linearGradient id="linear-gradient-35" x1="463.86" y1="-41.73" x2="463.86" y2="-59.95" gradientTransform="translate(-103.25 79.04) rotate(3.66)" xlink:href="#linear-gradient"/><linearGradient id="linear-gradient-36" x1="344.92" y1="-73.28" x2="344.92" y2="-101.22" gradientTransform="translate(-103.25 79.04) rotate(3.66)" xlink:href="#linear-gradient"/></defs><title>Asset 8contest_logo</title><g id="Layer_2" data-name="Layer 2"><g id="Layer_1-2" data-name="Layer 1"><text class="cls-1" transform="translate(108.3 181.76)">face of</text><path class="cls-2" d="M142.05,152.56c-3,4.19-15.2,12.57-24.42,6.94,2.4,5.87,3.35,16.64,2.28,26.45-.84,7.66-2.76,17-10.54,17.36-8,.48-13-14.72-4.78-41.3,12-38.06,21.06-41.41,27.64-41.53,6-.12,8.86,8,2.16,19.39-4.79,8.14-12.81,13.89-16.16,16.28,8.86.6,23-5.87,24.18-6.82C143.49,149.69,143.49,150.52,142.05,152.56Zm-26.45,9.69c-8.74,23.94-5.63,27.65-4.07,27.65C114.4,189.9,118.47,182,115.6,162.25Zm4.91-11.49c10.89-9.45,14.72-19.87,12.8-21.06S128.52,132.33,120.51,150.76Z"/><path class="cls-2" d="M195.79,155.07c-3.11,9.58-14.24,33.87-26.93,30.28-6.82-1.91-4.67-10.77-1.2-20.7-5.5,9.21-13,19.87-20.34,21.3-11.73,2.4-17.12-11.13-12.33-24.41,7.66-21.07,23.46-28.37,32.32-26.58a9.6,9.6,0,0,1,7.66,6.95,16.64,16.64,0,0,0,.12-4.79c1.55-2.63,11.25-4.67,11.25,4.19,0,3.47-.84,8.5-3.36,15.32-3.47,9.45-5.14,17.47-3,17.35,2.76-.36,13.89-19.27,15.2-23.58C196.63,150.28,196.87,152,195.79,155.07Zm-22.5-6.82c-1-2.15-1.68-8.86-6.34-9.1-8.14-.36-24.78,29.21-16.64,34.23C155.58,176.62,169.34,156.63,173.29,148.25Z"/><path class="cls-2" d="M237.09,154c-4.55,13.64-14.73,33.75-33.28,31.95-11.25-1-18.31-10.89-14.36-24.41,5.51-18.68,21.06-28.25,30.88-26.34,8.14,1.68,9.1,9,7.06,14.13-2.51,6.58-10.41,6-10.41,3.95,2.15-1.32,7.54-14.13,3.35-14.13-8.26.12-21.19,27-15.56,34.83,4.07,5.51,18.79,4.07,30.76-24.77C237.56,149.21,238.16,150.88,237.09,154Z"/><path class="cls-2" d="M277.54,154c-6,18.19-16.4,32.43-32.19,32.07-11.37-.24-19.51-11-15.44-24.53,6.7-21.79,22.5-28.13,31.23-26.22,7.43,1.56,9.34,9.58,5.63,15.56-4.07,6.71-12.21,11.73-21.54,9.58-2.76,9.81-1,14.72,3.71,15.8,8.37,2.15,19.75-9.1,27.05-27C278,149.21,278.62,150.88,277.54,154Zm-31,2.51c19.27.12,20.11-16.64,15.08-17.36C257.43,138.56,251.57,144.78,246.54,156.51Z"/><path class="cls-2" d="M356.06,145.38c-2,4.07-8.74,10.41-17.83,12.56-4,12.57-14.25,28-25.14,28-11.25,0-16.76-11.13-12-24.41,7.66-21.07,22.86-29.09,31.72-26.58a11.05,11.05,0,0,1,6.94,14.61v.12c5.27-1,12-3.24,15.32-7.42C356.18,142.15,356.78,143.7,356.06,145.38ZM332,158.18c-4.43-1.43-2.51-7.9,1.68-8.13,1.43-2.28,3.35-10.9-.84-10.9-8.14,0-26.33,29.81-17.83,34.35C320.39,176.38,327.57,167.16,332,158.18Z"/><path class="cls-2" d="M381.67,152.56c-3,4.19-15.2,12.57-24.41,6.94,2.39,5.87,3.35,16.64,2.27,26.45-.84,7.66-2.75,17-10.53,17.36-8,.48-13.05-14.72-4.79-41.3,12-38.06,21.07-41.41,27.65-41.53,6-.12,8.86,8,2.15,19.39-4.78,8.14-12.8,13.89-16.15,16.28,8.85.6,23-5.87,24.17-6.82C383.11,149.69,383.11,150.52,381.67,152.56Zm-26.45,9.69c-8.73,23.94-5.62,27.65-4.07,27.65C354,189.9,358.1,182,355.22,162.25Zm4.91-11.49c10.89-9.45,14.72-19.87,12.81-21.06S368.15,132.33,360.13,150.76Z"/><text class="cls-3" transform="translate(0.5 264.32)"><tspan class="cls-4">C</tspan><tspan x="73.76" y="0">AMPUS</tspan></text><path class="cls-5" d="M53.77,207a20.94,20.94,0,0,0-10-2.75,19.65,19.65,0,0,0-10.4,2.86A20.3,20.3,0,0,0,26,215a24.43,24.43,0,0,0,0,22.33,20.3,20.3,0,0,0,7.39,7.87A19.65,19.65,0,0,0,43.74,248a22.81,22.81,0,0,0,9.71-2.38,30.58,30.58,0,0,0,9.06-6.47L74.05,251.6a46.2,46.2,0,0,1-14.61,10.29,40.6,40.6,0,0,1-37-1.34A37.78,37.78,0,0,1,8.16,246.42,39.35,39.35,0,0,1,3,226.36a37.65,37.65,0,0,1,19.79-33.75A43,43,0,0,1,60,191a41.2,41.2,0,0,1,13.91,9.55l-11.43,13.8A28.37,28.37,0,0,0,53.77,207Z"/><path class="cls-5" d="M137.13,264.32,132,251H99.28L94,264.32H73.72l32.46-75.6h20.28l31.7,75.6Zm-31.92-28.47h20.92l-10.35-27Z"/><path class="cls-5" d="M165,188.72h21.46l21.89,44.22,21.78-44.22h21.46v75.6H234.08l-.1-47.88-19.31,40.33H202l-19.41-40.33v47.88H165Z"/><path class="cls-5" d="M321.87,195.68q8,7,8,19.57,0,13.38-8,20.76t-22.43,7.39H286v20.92H266.22v-75.6h33.22Q313.89,188.72,321.87,195.68Zm-14.08,29q3.3-3,3.29-8.74c0-3.67-1.09-6.49-3.29-8.47s-5.3-3-9.33-3H286v23.18h12.5Q304.51,227.65,307.79,224.64Z"/><path class="cls-5" d="M362.2,244.59a14.29,14.29,0,0,0,10.68,4.31,13.35,13.35,0,0,0,10.29-4.26q3.94-4.26,3.94-11.49V188.72h19.74v44.43a34.53,34.53,0,0,1-4.16,17.21,28.12,28.12,0,0,1-11.86,11.37,38.78,38.78,0,0,1-18.06,4,39.45,39.45,0,0,1-18.17-4,28.61,28.61,0,0,1-12.08-11.37,33.85,33.85,0,0,1-4.26-17.21V188.72H358v44.43Q358,240.28,362.2,244.59Z"/><path class="cls-5" d="M459.53,205.65A38,38,0,0,0,448,203.39a10.59,10.59,0,0,0-5.77,1.35,4.39,4.39,0,0,0-2.1,3.93,5.41,5.41,0,0,0,1.83,4.16,14,14,0,0,0,4.53,2.69q2.7,1,8,2.64a103.31,103.31,0,0,1,13,4.53,22.65,22.65,0,0,1,8.79,7q3.68,4.69,3.67,12.24a20.93,20.93,0,0,1-4,12.89,24.19,24.19,0,0,1-11,8,42.39,42.39,0,0,1-15.47,2.7,56,56,0,0,1-18.71-3.29,51.16,51.16,0,0,1-16.12-9l7.65-15.42a47.63,47.63,0,0,0,13.54,8.31,37,37,0,0,0,13.86,3.23,12.83,12.83,0,0,0,7-1.62,5.27,5.27,0,0,0,2.53-4.74,5.61,5.61,0,0,0-1.88-4.32,14.15,14.15,0,0,0-4.75-2.75q-2.85-1-8-2.42a99.29,99.29,0,0,1-12.83-4.37,22.65,22.65,0,0,1-8.69-6.69q-3.6-4.47-3.61-11.91a20.83,20.83,0,0,1,3.72-12.3,23.71,23.71,0,0,1,10.57-8.14,41.18,41.18,0,0,1,15.91-2.86,57.89,57.89,0,0,1,16.17,2.32,53.24,53.24,0,0,1,14,6.2l-7.44,15.75A66.68,66.68,0,0,0,459.53,205.65Z"/><text class="cls-6" transform="translate(458.35 265.49)">T<tspan class="cls-7" x="41.38" y="0">v</tspan></text><path class="cls-8" d="M503.42,218H485v47.48h-6.78V218H459.71v-6h43.71Z"/><path class="cls-8" d="M516.31,265.49l-15.52-39.34h6.86l12.43,33.54,12.51-33.54h6.33L523.4,265.49Z"/><text class="cls-9" transform="translate(167.95 307.75)">2020</text><path class="cls-10" d="M200.15,299.47v8.28H170.09l-.06-6.81,14.35-14.75a20.06,20.06,0,0,0,2.76-3.49,5.94,5.94,0,0,0,1.07-3,2.92,2.92,0,0,0-1.18-2.51,5.53,5.53,0,0,0-3.32-.87,12.83,12.83,0,0,0-5.26,1.32,23,23,0,0,0-5.61,3.69l-3.94-7.6q8.16-5.91,16.39-5.91a18.36,18.36,0,0,1,7.06,1.29,11.53,11.53,0,0,1,4.9,3.66A8.8,8.8,0,0,1,199,278.2a12,12,0,0,1-2,6.27,38.9,38.9,0,0,1-5.66,6.9l-8.05,8.1Z"/><path class="cls-10" d="M234.8,273.13q4.53,5.17,4.53,14.86t-4.53,14.89q-4.55,5.21-12.92,5.21t-13-5.21q-4.53-5.2-4.53-14.89t4.53-14.86q4.53-5.17,13-5.18T234.8,273.13Zm-18.27,5.38q-1.64,2.89-1.63,9.48t1.63,9.54a6.28,6.28,0,0,0,10.61,0q1.67-2.92,1.66-9.51t-1.66-9.48a6.3,6.3,0,0,0-10.61,0Z"/><path class="cls-10" d="M273.78,299.47v8.28H243.72l-.06-6.81L258,286.19a21.06,21.06,0,0,0,2.76-3.49,6,6,0,0,0,1.06-3,2.92,2.92,0,0,0-1.18-2.51,5.49,5.49,0,0,0-3.32-.87,12.87,12.87,0,0,0-5.26,1.32,22.77,22.77,0,0,0-5.6,3.69l-3.94-7.6q8.16-5.91,16.38-5.91a18.36,18.36,0,0,1,7.06,1.29,11.47,11.47,0,0,1,4.9,3.66,8.8,8.8,0,0,1,1.77,5.41,12,12,0,0,1-2,6.27,39.35,39.35,0,0,1-5.66,6.9l-8.05,8.1Z"/><path class="cls-10" d="M308.43,273.13Q313,278.3,313,288t-4.53,14.89q-4.53,5.21-12.92,5.21t-13-5.21q-4.53-5.2-4.54-14.89t4.54-14.86q4.53-5.17,13-5.18T308.43,273.13Zm-18.27,5.38q-1.64,2.89-1.63,9.48t1.63,9.54a5.65,5.65,0,0,0,5.35,2.9,5.59,5.59,0,0,0,5.26-2.93q1.67-2.92,1.66-9.51t-1.66-9.48a6.3,6.3,0,0,0-10.61,0Z"/><text class="cls-11" transform="translate(155.66 334.79)"><tspan class="cls-12">f</tspan><tspan x="12.54" y="0">ir</tspan><tspan class="cls-13" x="37" y="0">s</tspan><tspan x="50.51" y="0">t e</tspan><tspan class="cls-14" x="94.67" y="0">d</tspan><tspan class="cls-15" x="113.92" y="0">i</tspan><tspan class="cls-16" x="125.69" y="0">t</tspan><tspan x="138.22" y="0">i</tspan><tspan class="cls-17" x="149.79" y="0">o</tspan><tspan x="164.37" y="0">n</tspan></text><path class="cls-18" d="M160.77,325.84a1.37,1.37,0,0,1-.05.43,1.84,1.84,0,0,0-.05.44l.05,0c-1.64,1.94-3.27,2.91-4.91,2.91a3.52,3.52,0,0,1-1.89-.56q-2.56,6.56-5.28,13.38t-5.32,13.39h-3.89l6.14-15.56q1.34-3.84,2.38-7.55c.7-2.47,1.29-4.84,1.77-7.09l-.1-.1-.82,1c-.28.32-.5.59-.67.79l-.82-1a1.06,1.06,0,0,1,.05-.34.64.64,0,0,0,.06-.28c.47-.68,1-1.35,1.51-2s1-1.18,1.35-1.56a13.94,13.94,0,0,1,.62-3.91c.34-1,.83-1.46,1.48-1.46a1,1,0,0,1,.67.41,8.45,8.45,0,0,1,.71,1c.28-.38.59-.83,1-1.36s.67-1,.95-1.51q1.78-4,3.65-8.21t3.66-8.21q5.84-12,9.62-12a2.39,2.39,0,0,1,1.67.87,4.19,4.19,0,0,1,1.1,2.1,11.36,11.36,0,0,1-1,6.19,30.65,30.65,0,0,1-4.63,7.42c-.38.41-1.36,1.43-2.94,3.05l-6.63,6.78a15.9,15.9,0,0,0-1.77,3.89q-1.35,3.57-3.81,10.33a2.46,2.46,0,0,0,.56.34,1.62,1.62,0,0,0,.57.12,2.9,2.9,0,0,0,1.28-.3,4.68,4.68,0,0,0,1.17-.87c1-1,1.62-1.55,2-1.59Zm5.07-28.15q-.66,1.63-1.77,4.55c-.73,1.95-1.64,4.42-2.73,7.43l0,.05q1.68-1.49,3.66-3.56a50.45,50.45,0,0,0,3.71-4.38,36.18,36.18,0,0,0,4.14-6.5,8.89,8.89,0,0,0,1.13-4.76,4.82,4.82,0,0,0-.62-1.38,1,1,0,0,0-.76-.51c-.89,0-1.92.79-3.1,2.36A35.84,35.84,0,0,0,165.84,297.69Z"/><path class="cls-18" d="M170.14,316.73a9.53,9.53,0,0,1-.41,1.1c-.17.39-.33.74-.46,1.05l-.67,1.64c-.37.78-.73,1.58-1.07,2.4s-.65,1.6-.92,2.35q-1.08,2.57-1.79,4.51a22.54,22.54,0,0,0-.87,2.66l.25.15c1.16,0,2.65-1.14,4.45-3.43,1-1.19,1.82-2.13,2.49-2.81s1.08-1.09,1.25-1.23l.51.72a5.35,5.35,0,0,1-1,2.38,17.73,17.73,0,0,1-2.73,3.14A27.36,27.36,0,0,1,166,334a4.36,4.36,0,0,1-2.13.89,1.92,1.92,0,0,1-1.51-.76,5.1,5.1,0,0,1-.94-2.15,8.38,8.38,0,0,1-.11-2.25,17.38,17.38,0,0,1,.36-2.31v.05l.51-1.48-.1-.1c-.2.2-.4.42-.59.64a3.62,3.62,0,0,1-.64.59,2.79,2.79,0,0,1-.43-.59,3.77,3.77,0,0,0-.39-.59q.1-.21.18-.39a1.88,1.88,0,0,0,.13-.38v.05c1.23-1.53,2.35-3,3.35-4.48s1.91-2.77,2.69-4Zm1.69-5.48a3.94,3.94,0,0,1-1.39,2.87,12.81,12.81,0,0,1-3.17-2.66,3.67,3.67,0,0,1,1.13-2.77A14.55,14.55,0,0,1,171.83,311.25Z"/><path class="cls-18" d="M171.67,325.63c.17-.3.33-.62.49-.94a7.56,7.56,0,0,1,.48-.9c.59-1,1.11-1.89,1.57-2.71s.86-1.55,1.2-2.2a2.86,2.86,0,0,1-1.23-2.05c-.41-1.91.12-2.87,1.59-2.87a1.51,1.51,0,0,1,1.1.52,3,3,0,0,1,.69,1.38,2.82,2.82,0,0,1-.05,1.38,5,5,0,0,0,1.25-.23,6.15,6.15,0,0,0,1.15-.54l1.9,3.79-2.77,6.4-1.43,3.76a13.19,13.19,0,0,0-.67,2,.53.53,0,0,0,.36.15c1,0,2.07-.61,3.35-1.84a34.71,34.71,0,0,0,4.53-5.83L186,326a4.72,4.72,0,0,1-1.13,2.3,28,28,0,0,1-2.71,3.07A23.74,23.74,0,0,1,179,334a4.28,4.28,0,0,1-2.07.89,2,2,0,0,1-1.69-.87,6,6,0,0,1-1-2.5c-.2-1.78.29-4.16,1.49-7.17l.3-.61c.41-.79.77-1.53,1.08-2.23s.63-1.47,1-2.33a1.15,1.15,0,0,1-.77.05,44.77,44.77,0,0,1-3.09,5.66c-.87,1.28-1.53,2-2,2l-.57-.92Z"/><path class="cls-18" d="M195.73,327.47c.23-.16.63-.51,1.2-1s1.1-1,1.61-1.53l.67.87v-.06a1.63,1.63,0,0,1-.29,1.44,6.78,6.78,0,0,1-1.46,1.38,8.49,8.49,0,0,1-1.38.74,3.9,3.9,0,0,1-1.23.33,16,16,0,0,1-3.17,3.92,5.14,5.14,0,0,1-3.32,1.46,3.09,3.09,0,0,1-2.33-.87,4.7,4.7,0,0,1-1.15-2.51q-.62-3.58,1.53-3.58a1.63,1.63,0,0,1,1.2.48,2.39,2.39,0,0,1,.64,1.31,4.15,4.15,0,0,1-.23,2,1.43,1.43,0,0,1-1.25.93,1.16,1.16,0,0,0,.46.25,1.7,1.7,0,0,0,.56.1q4.26,0,4.81-14.63c-.41.58-1,1.42-1.86,2.53s-1.8,2.31-2.9,3.61l-.35.41a23.87,23.87,0,0,0-1.69,2,3.44,3.44,0,0,1-.49-.61l-.43-.67a3.07,3.07,0,0,1,.38-.58l1.05-1.46c.44-.62,1-1.32,1.56-2.13s1.25-1.66,2-2.58q2.21-2.87,3.61-4.61a13.69,13.69,0,0,1,1.92-2.09l1,1.12-.82,1.13-1.33,1.84-.1.2a3,3,0,0,0,.15.77l.21.92q0,.32.15.87a5.85,5.85,0,0,0,.36,1.18l.41,2.05.1-.05a14.46,14.46,0,0,1,.15,1.48c0,.55.06,1.07.06,1.59Z"/><path class="cls-18" d="M198.08,325.94a1.05,1.05,0,0,1,0-.26.79.79,0,0,0,.05-.3,82.46,82.46,0,0,0,5.25-7.17,46.41,46.41,0,0,0,3.4-6.14h-1.07l-.67-.82c0-.82.84-1.19,2.41-1.12.54-1.3,1.11-2.63,1.71-4l1.77-4h4l-3.43,7.93h3.07a1.07,1.07,0,0,0,.31.44,1.08,1.08,0,0,1,.3.43c-.06.38-.52.66-1.35.85a15.6,15.6,0,0,1-3,.33c-.27.69-.57,1.4-.89,2.15s-.62,1.47-.9,2.15l-2.66,6.35c-.1.3-.24.65-.41,1.05s-.32.74-.46,1c-.85,2-1.53,3.65-2,5a19,19,0,0,0-.84,2.64.43.43,0,0,0,.3.15q3.12-.15,8.09-7.72l.66,1a5.31,5.31,0,0,1-1.05,2.53,18.63,18.63,0,0,1-2.63,3.1A29.14,29.14,0,0,1,205,334a4.33,4.33,0,0,1-2.22.89,2,2,0,0,1-1.59-.76,4.84,4.84,0,0,1-1-2.05,5.92,5.92,0,0,1-.13-.9c0-.28,0-.55,0-.79a13.33,13.33,0,0,1,.18-2.2,9.6,9.6,0,0,1,.69-2.25l.16-.31c.17-.34.3-.6.41-.77a6.47,6.47,0,0,0,.41-.92l-.11-.15c-.44.51-.93,1.07-1.45,1.69s-1,1.16-1.51,1.64Z"/><path class="cls-18" d="M244.09,325.94l-.05-.05a2.25,2.25,0,0,1,0,.38,2.38,2.38,0,0,0,0,.39l.06-.11q-6.15,8.29-9.17,8.29-3.93,0-4.7-4.35c-.07-.47-.12-.87-.16-1.17s0-.58,0-.82a10.92,10.92,0,0,1,.69-3.56,17.94,17.94,0,0,1,1.72-3.61,14.58,14.58,0,0,1,3-3.4,5,5,0,0,1,3.07-1.25c1.36,0,2.16.83,2.4,2.5a4.73,4.73,0,0,1-.15,2.49,4.64,4.64,0,0,1-1.49,2l-4.6,3.38a6.34,6.34,0,0,0-1.41,2.2,4.73,4.73,0,0,0-.18,2.55q.32,1.08,1.23,1.08a4.67,4.67,0,0,0,2.61-1.08,16,16,0,0,0,2.87-2.71l1.07-1.23a5.45,5.45,0,0,0,.54-.64c.19-.25.36-.48.54-.69a4.23,4.23,0,0,1,.56-.56c.2-.17.39-.34.56-.51l.56-.46ZM239,318.62c-1.13,0-2.37,1.86-3.74,5.58a13.14,13.14,0,0,0,3.1-2.64,4.29,4.29,0,0,0,1.1-2.32,4,4,0,0,1-.23-.39C239.11,318.7,239,318.62,239,318.62Z"/><path class="cls-18" d="M242.09,330.44q-.1-.66-.15-1.17a7.25,7.25,0,0,1-.06-.77A11.94,11.94,0,0,1,244.7,321c2.25-2.87,4.49-4.3,6.7-4.3a3.52,3.52,0,0,1,3.23,2.1c.88-2.26,1.78-4.54,2.68-6.86s1.82-4.61,2.74-6.86l5.48-13.61H270l-8.9,22q-1.59,3.94-2.9,7.22t-2.25,5.73c-.63,1.64-1.13,3-1.51,4a11.67,11.67,0,0,0-.61,2l.26.15a3.72,3.72,0,0,0,2-.84,12.73,12.73,0,0,0,2.51-2.59q3-3.84,3.68-4l.46.72a5.36,5.36,0,0,1-1,2.28,19.07,19.07,0,0,1-2.74,3.19,31.42,31.42,0,0,1-3.2,2.56,4.21,4.21,0,0,1-2.07.92,1.88,1.88,0,0,1-1.43-.58,3.5,3.5,0,0,1-.82-1.51,3.78,3.78,0,0,1-.16-1.23,11.56,11.56,0,0,1-2.79,2.48,5.17,5.17,0,0,1-2.68.9Q242.85,334.9,242.09,330.44Zm3.58,2.61a4.38,4.38,0,0,0,2.54-1.25,17.14,17.14,0,0,0,2.84-3.1,19.35,19.35,0,0,0,2.2-4.35,8.26,8.26,0,0,0,.46-3.83,2.39,2.39,0,0,0-.54-1.36,1.43,1.43,0,0,0-1.1-.49c-.58,0-1.28.46-2.1,1.36a24.39,24.39,0,0,0-2.76,4,25,25,0,0,0-2.18,4.52,7.06,7.06,0,0,0-.43,3.46C244.7,332.69,245.06,333.05,245.67,333.05Z"/><path class="cls-18" d="M271.52,316.73c-.11.34-.24.71-.41,1.1s-.33.74-.46,1.05l-.67,1.64c-.38.78-.73,1.58-1.07,2.4s-.65,1.6-.93,2.35q-1.07,2.57-1.79,4.51a27.3,27.3,0,0,0-.87,2.66l.26.15q1.74,0,4.45-3.43c1-1.19,1.82-2.13,2.48-2.81s1.09-1.09,1.26-1.23l.51.72a5.35,5.35,0,0,1-1,2.38,17.43,17.43,0,0,1-2.74,3.14,25.8,25.8,0,0,1-3.2,2.59,4.3,4.3,0,0,1-2.12.89,1.92,1.92,0,0,1-1.51-.76,5.23,5.23,0,0,1-.95-2.15,8.39,8.39,0,0,1-.1-2.25,17.38,17.38,0,0,1,.36-2.31v.05l.51-1.48-.1-.1c-.2.2-.4.42-.59.64a4,4,0,0,1-.64.59,2.79,2.79,0,0,1-.43-.59,3.77,3.77,0,0,0-.39-.59q.11-.21.18-.39a1.88,1.88,0,0,0,.13-.38v.05c1.23-1.53,2.35-3,3.35-4.48s1.9-2.77,2.69-4Zm1.69-5.48a3.94,3.94,0,0,1-1.39,2.87,12.64,12.64,0,0,1-3.17-2.66,3.67,3.67,0,0,1,1.13-2.77A14.55,14.55,0,0,1,273.21,311.25Z"/><path class="cls-18" d="M273.26,325.94a.73.73,0,0,1,.05-.26,1,1,0,0,0,.05-.3,82.22,82.22,0,0,0,5.24-7.17,46.58,46.58,0,0,0,3.41-6.14h-1.08l-.66-.82c0-.82.83-1.19,2.4-1.12.55-1.3,1.12-2.63,1.72-4s1.18-2.69,1.76-4h4l-3.42,7.93h3.07a1,1,0,0,0,.3.44,1.1,1.1,0,0,1,.31.43c-.07.38-.52.66-1.36.85a15.39,15.39,0,0,1-3,.33c-.27.69-.57,1.4-.9,2.15s-.62,1.47-.89,2.15l-2.66,6.35c-.1.3-.24.65-.41,1.05l-.46,1c-.85,2-1.53,3.65-2,5a19.55,19.55,0,0,0-.85,2.64.45.45,0,0,0,.31.15q3.12-.15,8.08-7.72l.67,1a5.31,5.31,0,0,1-1.05,2.53,18.63,18.63,0,0,1-2.63,3.1,30.19,30.19,0,0,1-3.1,2.43,4.35,4.35,0,0,1-2.23.89,2,2,0,0,1-1.58-.76,4.84,4.84,0,0,1-1-2.05,5.86,5.86,0,0,1-.12-.9c0-.28,0-.55,0-.79a13.33,13.33,0,0,1,.18-2.2,9.6,9.6,0,0,1,.69-2.25l.15-.31c.18-.34.31-.6.41-.77a5.48,5.48,0,0,0,.41-.92l-.1-.15-1.46,1.69c-.53.61-1,1.16-1.51,1.64Z"/><path class="cls-18" d="M295.82,316.73a9.53,9.53,0,0,1-.41,1.1l-.46,1.05-.66,1.64q-.57,1.17-1.08,2.4c-.34.82-.64,1.6-.92,2.35q-1.07,2.57-1.79,4.51a22.54,22.54,0,0,0-.87,2.66l.26.15q1.74,0,4.45-3.43c1-1.19,1.82-2.13,2.48-2.81s1.08-1.09,1.26-1.23l.51.72a5.47,5.47,0,0,1-1,2.38,17.83,17.83,0,0,1-2.74,3.14,26.56,26.56,0,0,1-3.2,2.59,4.3,4.3,0,0,1-2.12.89,1.92,1.92,0,0,1-1.51-.76,5.1,5.1,0,0,1-.95-2.15,8.39,8.39,0,0,1-.1-2.25,17.38,17.38,0,0,1,.36-2.31v.05l.51-1.48-.1-.1c-.21.2-.4.42-.59.64a4,4,0,0,1-.64.59,2.83,2.83,0,0,1-.44-.59,3.15,3.15,0,0,0-.38-.59q.1-.21.18-.39a2.8,2.8,0,0,0,.13-.38v.05c1.23-1.53,2.34-3,3.35-4.48s1.9-2.77,2.69-4Zm1.69-5.48a3.88,3.88,0,0,1-1.38,2.87,12.64,12.64,0,0,1-3.17-2.66,3.66,3.66,0,0,1,1.12-2.77A14.35,14.35,0,0,1,297.51,311.25Z"/><path class="cls-18" d="M313,325.48a2.63,2.63,0,0,1,0,.49,1.63,1.63,0,0,0-.05.43,4.14,4.14,0,0,1-1.9,1.28,8.68,8.68,0,0,1-2.56.46,19.3,19.3,0,0,1-3.63,5,5.34,5.34,0,0,1-3.48,1.72,3.48,3.48,0,0,1-2.66-1.18,6.62,6.62,0,0,1-1.48-3.28c-.07-.37-.12-.75-.16-1.12s-.05-.65-.05-.82a12,12,0,0,1,2.81-7.47q3.44-4.3,6.76-4.3a3.62,3.62,0,0,1,2.2.92,6.45,6.45,0,0,1,1,1.23,5,5,0,0,1,.59,1.38,11.26,11.26,0,0,1,0,2.71,12.24,12.24,0,0,1-.84,3.17l.92-.3a11.44,11.44,0,0,1,1.23-.69,3.14,3.14,0,0,1,1-.34Zm-12.23,7.57a4.36,4.36,0,0,0,2.53-1.25,16.78,16.78,0,0,0,2.84-3.1,19.35,19.35,0,0,0,2.2-4.35,8.13,8.13,0,0,0,.46-3.83,2.39,2.39,0,0,0-.54-1.36,1.42,1.42,0,0,0-1.1-.49c-.58,0-1.27.46-2.09,1.36a30.52,30.52,0,0,0-4.94,8.49,7.08,7.08,0,0,0-.44,3.46C299.81,332.69,300.17,333.05,300.79,333.05Z"/><path class="cls-18" d="M319.52,318.62a9.11,9.11,0,0,0-2.66,2.56q-1.85,2.25-4.46,5.89l-.53-.7c-.23-.28-.3-.41-.23-.38a.3.3,0,0,1,0-.15.35.35,0,0,0,0-.16,35.62,35.62,0,0,1,1.89-3c.65-.92,1.26-1.74,1.84-2.45a27.29,27.29,0,0,1,2.64-2.43,3.57,3.57,0,0,1,2-.95,1.5,1.5,0,0,1,1.3.69,5,5,0,0,1,.75,1.87,1.4,1.4,0,0,1,.1.64v1.89a1.91,1.91,0,0,1-.1.64v.05a32.83,32.83,0,0,1,3.81-4.32,4.81,4.81,0,0,1,2.94-1.56,1.79,1.79,0,0,1,1.51.79,5.39,5.39,0,0,1,.85,2.28,14.55,14.55,0,0,1-1.49,7.78,36.38,36.38,0,0,0-1.84,4.91.34.34,0,0,0,.26.1c1.26,0,2.83-1.17,4.7-3.53,1.06-1.29,1.91-2.29,2.56-3a10.52,10.52,0,0,0,1.08-1.26l.46,1.08a4.9,4.9,0,0,1-.9,2.46,15.6,15.6,0,0,1-2.79,3.12q-3.67,3.38-5.37,3.37a2,2,0,0,1-1.61-.79,5.37,5.37,0,0,1-.95-2.28,13.19,13.19,0,0,1,.1-3.22,20.26,20.26,0,0,1,1.08-4v.05l2.66-6q-2.25.21-5.09,4.3a69.48,69.48,0,0,0-6.17,11.87H314c1-2.45,1.91-5,2.87-7.67s1.89-5.39,2.81-8.19Zm2.61,4s-.05,0-.05.05S322.09,322.61,322.13,322.61Z"/><path class="cls-19" d="M145.67,113.89c.84,2.46,1.65,4.94,2.47,7.42h4.59c-.89-2.68-1.85-5.55-2.95-8.8q-2.31-6.89-4.73-13.79c6.13,8.28,13.26,14,21.27,14,.55,0,1.1,0,1.65-.08,17.35-1.48,22.64-24.08,23.91-44,3.38,21.61,10.32,42,24.46,42l.69,0c11-.35,19.28-11.56,24.53-33.33a202.35,202.35,0,0,0,3.76-20.91,199.69,199.69,0,0,0,3.75,20.91c5.25,21.77,13.5,33,24.53,33.33l.69,0c14.15,0,21.08-20.37,24.46-42,1.27,19.88,6.56,42.48,23.91,44,.55,0,1.1.08,1.66.08,8,0,15.13-5.74,21.26-14q-2.41,6.9-4.73,13.78c-1.1,3.26-2.06,6.13-3,8.81h4.6c.82-2.48,1.62-5,2.46-7.42q7.95-23.61,16.85-46.95c1.17-3.09,2.36-6.2,3.57-9.3-1.53-.27-3.06-.53-4.6-.78-.06,0-1.11,3.37-3,8.37-5.49,14.6-18.07,43.17-33.46,43.17q-.63,0-1.26-.06c-18.78-1.57-20.61-36.82-20.28-54.47.11-5.91.46-9.85.5-9.88-2.12-.1-4.24-.19-6.36-.25,0,0-.14,3.72-.64,9.28-1.57,17.44-6.68,53.33-22,53.33h-.52c-20.33-.59-25.44-53.17-26.56-78.81-.36-8.24-.31-13.7-.22-13.75l-1.67.11-1.68-.11c.09.05.14,5.51-.22,13.75-1.11,25.64-6.23,78.22-26.56,78.81h-.52c-15.31,0-20.42-35.89-22-53.33-.5-5.56-.64-9.25-.64-9.28-2.12.06-4.24.15-6.35.25,0,0,.38,4,.49,9.88.33,17.65-1.5,52.9-20.28,54.47-.42,0-.84.06-1.25.06-15.4,0-28-28.57-33.47-43.17-1.89-5-2.94-8.36-3-8.37-1.54.25-3.07.51-4.6.78,1.21,3.1,2.4,6.21,3.57,9.3Q137.73,90.28,145.67,113.89Z"/><path class="cls-20" d="M198.69,45.67a8.77,8.77,0,0,1-9.1,8.51,8.94,8.94,0,0,1-8-9.68A8.78,8.78,0,0,1,190.68,36,8.94,8.94,0,0,1,198.69,45.67Z"/><path class="cls-21" d="M308.07,45.67A8.77,8.77,0,0,1,299,54.18a8.94,8.94,0,0,1-8-9.68,8.77,8.77,0,0,1,9.1-8.51A9,9,0,0,1,308.07,45.67Z"/><path class="cls-22" d="M136.33,58.48A8.78,8.78,0,0,1,127.22,67a8.94,8.94,0,0,1-8-9.68,8.77,8.77,0,0,1,9.1-8.51A8.94,8.94,0,0,1,136.33,58.48Z"/><path class="cls-23" d="M371.48,58.48a8.77,8.77,0,0,1-9.1,8.51,8.94,8.94,0,0,1-8-9.68,8.77,8.77,0,0,1,9.1-8.51A8.93,8.93,0,0,1,371.48,58.48Z"/><path class="cls-24" d="M259.67,14.86c-.46,7.7-6.72,13.54-14,13.05S233,20.78,233.42,13.08s6.71-13.54,14-13S260.13,7.16,259.67,14.86Z"/></g></g></svg>