<svg xmlns="http://www.w3.org/2000/svg" xmlns:xlink="http://www.w3.org/1999/xlink" viewBox="0 0 387.87 414.74"><defs><style>.cls-1{isolation:isolate;}.cls-2{fill:url(#linear-gradient);}.cls-3{fill:url(#linear-gradient-2);}.cls-4{fill:url(#linear-gradient-3);}.cls-5{opacity:0.7;fill:url(#linear-gradient-4);}.cls-5,.cls-8{mix-blend-mode:multiply;}.cls-6{fill:url(#linear-gradient-5);}.cls-7{fill:url(#linear-gradient-6);}.cls-8{opacity:0.6;fill:url(#linear-gradient-7);}</style><linearGradient id="linear-gradient" x1="-1.64" y1="109.39" x2="223.9" y2="109.39" gradientTransform="translate(2.13 65.21) rotate(-9.03)" gradientUnits="userSpaceOnUse"><stop offset="0" stop-color="#b47a1a"/><stop offset="0.05" stop-color="#b9811e"/><stop offset="0.13" stop-color="#c69429"/><stop offset="0.22" stop-color="#dcb33c"/><stop offset="0.32" stop-color="#fade56"/><stop offset="0.33" stop-color="#ffe55a"/><stop offset="0.52" stop-color="#ffec88"/><stop offset="0.66" stop-color="#ffe55a"/><stop offset="1" stop-color="#b47a1a"/></linearGradient><linearGradient id="linear-gradient-2" x1="190.29" y1="310.15" x2="324.69" y2="310.15" gradientTransform="translate(31.11 -92.6) rotate(10.07)" xlink:href="#linear-gradient"/><linearGradient id="linear-gradient-3" x1="299.1" y1="329.88" x2="400.7" y2="329.88" gradientTransform="translate(31.11 -92.6) rotate(10.07)" xlink:href="#linear-gradient"/><linearGradient id="linear-gradient-4" x1="0" y1="241.96" x2="208.33" y2="241.96" gradientTransform="matrix(1, 0, 0, 1, 0, 0)" xlink:href="#linear-gradient"/><linearGradient id="linear-gradient-5" x1="1193.58" y1="302.14" x2="1317.33" y2="302.14" gradientTransform="translate(-929.46)" xlink:href="#linear-gradient"/><linearGradient id="linear-gradient-6" x1="1375.68" y1="220.27" x2="1589.39" y2="220.27" gradientTransform="matrix(1, -0.02, 0.02, 1, -1288.45, 18.97)" xlink:href="#linear-gradient"/><linearGradient id="linear-gradient-7" x1="1310.34" y1="268.88" x2="1503.47" y2="268.88" gradientTransform="translate(-1177.47)" xlink:href="#linear-gradient"/></defs><title>Asset 17left-left</title><g class="cls-1"><g id="Layer_2" data-name="Layer 2"><g id="Layer_1-2" data-name="Layer 1"><path class="cls-2" d="M152.64,67.54l.64-1.17a301.36,301.36,0,0,1,61-23.43,279.68,279.68,0,0,0-46.2,5,320.34,320.34,0,0,1,38.26-17.39,281.38,281.38,0,0,0-34.23,3.76c.2-.33.4-.66.61-1q14.13-8.12,28.71-14.75c-5.71-.88-14.83-.88-22.78,5.52,3.92-5.94,3.08-5.47-1.21.75.5-.79,1.12-1.71,1.91-2.85,1.46-9.33-1.34-15.75-4.24-20.86q-1.71,16-3,31.53c-.28.42-.54.84-.82,1.27C168,23.26,164.6,12.4,161.15,1.43q-.66,21.56-.75,42.3Q153.22,22.24,145.66,0q2.58,33.87,5.9,65.74l-.66,1.12c-6.18-21.16-12.47-43-19-65.3q3.62,37.46,8,72.58c-7.12-22.75-14.45-46.26-22.12-70.25q6.24,42.3,13,81.78c-8.15-24.27-16.54-49.4-25.41-75q8.33,44.84,16.88,86.61c-11.21-26.11-23-53.1-35.79-80.33C96.84,51.47,106.64,85,116.22,117c-14.71-29.77-30.4-60.66-47.93-91.43,14.07,35.62,26.93,70.52,39.22,103.83-14.43-27.77-29.8-56.43-46.83-85,14.59,34.87,28,69,40.7,101.68-14.7-27-30.38-55-47.71-82.75C68.74,97.5,82.6,131,95.74,162.93c-14.93-26.36-30.9-53.51-48.48-80.54,15.54,33.39,29.83,66.13,43.36,97.48-15.14-25.69-31.37-52.13-49.16-78.42,16,32.66,30.67,64.71,44.56,95.44-15.34-25-31.77-50.77-49.76-76.34,16.36,32,31.46,63.33,45.67,93.45-15.49-24.4-32.1-49.45-50.29-74.31,16.74,31.23,32.19,61.94,46.71,91.48C62.73,207.38,46,183,27.64,158.83c17.08,30.55,32.86,60.61,47.67,89.58C59.57,225.2,42.66,201.48,24.24,178c17.39,29.88,33.47,59.31,48.56,87.72C57,243,40,219.94,21.43,197.08c19.9,32.91,38.16,65.29,55.12,96.43-.84,8-1.53,16-2,24,1.86-.06,3.74-.13,5.6-.15q.69-12,1.9-24a253.12,253.12,0,0,1,85.54-71.56A245.44,245.44,0,0,0,93.1,266.34a254.1,254.1,0,0,1,80.64-58.24,248.77,248.77,0,0,0-77.47,41.69,256.15,256.15,0,0,1,84-55.11A251.91,251.91,0,0,0,100,233.32a258.57,258.57,0,0,1,87.19-51.83,254.79,254.79,0,0,0-83,35.5,260.46,260.46,0,0,1,90.3-48.44,257.93,257.93,0,0,0-85.65,32.2A261.78,261.78,0,0,1,202,155.88a260.19,260.19,0,0,0-88.13,28.79,263.7,263.7,0,0,1,96.05-41.21,262.68,262.68,0,0,0-90.43,25.24,265.36,265.36,0,0,1,98.68-37.38,265.38,265.38,0,0,0-92.58,21.55,267,267,0,0,1,101.17-33.41,267.24,267.24,0,0,0-94.62,17.77,268,268,0,0,1,103.5-29.35,269.72,269.72,0,0,0-101.18,15.5A272.91,272.91,0,0,1,231.15,92.8a270.56,270.56,0,0,0-85.84,13.58,281.88,281.88,0,0,1,80.09-29,273.58,273.58,0,0,0-76.52,16A286.52,286.52,0,0,1,224.39,66a276.38,276.38,0,0,0-71.5,13.92A295,295,0,0,1,219.36,54.4,280.8,280.8,0,0,0,152.64,67.54Z"/><path class="cls-3" d="M242.08,188.16c0-.33.08-.66.11-1a203,203,0,0,0-26.65-38.1A187.17,187.17,0,0,1,241,170a215.33,215.33,0,0,0-15.58-25.57A189.55,189.55,0,0,1,244.3,160c0-.28,0-.57,0-.85q-5.06-10.5-11-20.24c3.78,1.66,9.22,5.17,11.29,12.21.15-5.21.44-4.59.42.94,0-.69,0-1.5,0-2.51a23.85,23.85,0,0,1,11.23-11.35Q250.7,148.78,245,158.94c0,.38,0,.75,0,1.12q9.67-8.06,19.62-16.33-8.61,13.67-17.2,26.61,13.28-10.6,27-21.52-15.66,20.07-30.93,38.63c0,.32,0,.64-.09,1,12.52-10.78,25.38-22,38.6-33.31Q264.2,177,246.93,197.17C260.68,185.76,274.85,174,289.44,162q-21.37,23.93-41.86,45.9c15-12,30.47-24.38,46.46-36.91q-23.7,24.69-46.21,47.4c17.58-11.94,35.86-24.19,54.86-36.2-20.61,17.49-40.46,34.6-59.52,50.82,21.19-12.85,43.43-26,66.72-38.42-23.24,16.75-45.47,33.5-66.7,49.49,20.18-11.71,41.31-23.62,63.38-34.83-23.24,16.08-45.48,32.19-66.69,47.6,20.05-11.17,41.05-22.49,63-33.12-23.22,15.43-45.43,30.9-66.61,45.74,19.9-10.64,40.75-21.39,62.51-31.44-23.2,14.8-45.38,29.66-66.53,44,19.76-10.16,40.45-20.35,62-29.86-23.15,14.18-45.29,28.45-66.39,42.23C247.47,284.66,268,275,289.4,266c-23.08,13.57-45.17,27.28-66.22,40.55,19.43-9.22,39.78-18.4,61-26.87-23,13-45,26.15-66,38.93,19.25-8.78,39.43-17.49,60.43-25.48-22.93,12.45-44.88,25.07-65.8,37.38,19.07-8.38,39.05-16.62,59.86-24.15-22.84,11.9-44.71,24-65.56,35.88,18.89-8,38.68-15.81,59.25-22.9-25.6,12.81-50,25.93-73.1,38.77q-4.24,7.94-8.81,15.72c-1.09-.77-2.19-1.52-3.28-2.26q4.61-7.75,8.88-15.69a177.64,177.64,0,0,0-21.19-77.51,168.8,168.8,0,0,1,25.86,56.45,176.73,176.73,0,0,0-23.82-67.32,170.22,170.22,0,0,1,28.83,55.8,176.93,176.93,0,0,0-27.13-66.67,171.44,171.44,0,0,1,31.81,55A177.85,177.85,0,0,0,174,245.78a172.88,172.88,0,0,1,34.75,54.1A178.18,178.18,0,0,0,175,234.94a173.77,173.77,0,0,1,37.67,53,178.6,178.6,0,0,0-36.91-63.86A175.19,175.19,0,0,1,216.38,276a179.13,179.13,0,0,0-40.12-62.67,176.77,176.77,0,0,1,43.42,50.56,179.19,179.19,0,0,0-43.29-61.3,178.25,178.25,0,0,1,46.25,49.1,180.1,180.1,0,0,0-46.42-59.79,179.48,179.48,0,0,1,49,47.53,180.6,180.6,0,0,0-49.51-58.16,181.11,181.11,0,0,1,53.91,48.63,184.38,184.38,0,0,0-45-56.29,181.8,181.8,0,0,1,45.56,41.53,190.94,190.94,0,0,0-35.67-48.94,183.84,183.84,0,0,1,38.95,39.49,193.33,193.33,0,0,0-33.62-46.15,185.28,185.28,0,0,1,36.85,36.23,199.27,199.27,0,0,0-29-41.51A188.06,188.06,0,0,1,242.08,188.16Z"/><path class="cls-4" d="M326.77,240.73c0-.25.06-.5.08-.74a153.69,153.69,0,0,0-20.14-28.81A141.6,141.6,0,0,1,326,227a163.14,163.14,0,0,0-11.77-19.33,143.78,143.78,0,0,1,14.25,11.73c0-.21,0-.42,0-.63a173.63,173.63,0,0,0-8.31-15.3,14.67,14.67,0,0,1,8.54,9.23c.11-3.94.33-3.47.31.7,0-.52,0-1.13,0-1.89a18,18,0,0,1,8.49-8.58q-4.28,8-8.59,15.7c0,.28,0,.57,0,.84l14.83-12.34q-6.5,10.34-13,20.12,10-8,20.43-16.28-11.83,15.18-23.38,29.21l-.06.72c9.46-8.15,19.18-16.59,29.17-25.18q-13.44,16.58-26.5,31.81c10.39-8.63,21.11-17.55,32.14-26.6q-16.17,18.08-31.65,34.7c11.33-9.06,23-18.43,35.12-27.91q-17.91,18.66-34.93,35.84c13.29-9,27.11-18.29,41.47-27.37-15.58,13.22-30.59,26.15-45,38.42,16-9.72,32.84-19.67,50.45-29.05-17.57,12.66-34.38,25.33-50.43,37.42,15.26-8.86,31.23-17.86,47.92-26.34-17.57,12.16-34.38,24.34-50.42,36,15.16-8.45,31-17,47.61-25-17.55,11.66-34.35,23.37-50.36,34.58,15.05-8.05,30.81-16.17,47.26-23.77-17.54,11.19-34.31,22.42-50.29,33.23,14.93-7.68,30.58-15.38,46.9-22.57C348.73,299.79,332,310.58,316,321c14.81-7.31,30.33-14.63,46.51-21.42-17.45,10.27-34.15,20.63-50.06,30.66,14.68-7,30.07-13.91,46.11-20.31-17.4,9.82-34.05,19.76-49.91,29.43,14.54-6.64,29.8-13.22,45.68-19.27-17.33,9.41-33.93,19-49.74,28.27,14.41-6.34,29.52-12.57,45.24-18.26-17.26,9-33.79,18.15-49.56,27.12,14.29-6,29.24-11.95,44.8-17.31-19.36,9.69-37.79,19.6-55.26,29.31q-3.21,6-6.67,11.88c-.82-.58-1.65-1.14-2.48-1.71q3.48-5.86,6.72-11.86a134.21,134.21,0,0,0-16-58.59A127.49,127.49,0,0,1,291,351.6a133.38,133.38,0,0,0-18-50.88,128.47,128.47,0,0,1,21.8,42.17,133.85,133.85,0,0,0-20.51-50.4,129.7,129.7,0,0,1,24,41.58,134.32,134.32,0,0,0-23-49.79,130.49,130.49,0,0,1,26.27,40.9,134.59,134.59,0,0,0-25.45-49.09,131.4,131.4,0,0,1,28.47,40.09,135.07,135.07,0,0,0-27.9-48.27,132.28,132.28,0,0,1,30.67,39.23A135.37,135.37,0,0,0,277,259.76,133.73,133.73,0,0,1,309.84,298a135.51,135.51,0,0,0-32.72-46.34,134.93,134.93,0,0,1,35,37.12A136.25,136.25,0,0,0,277,243.56a135.75,135.75,0,0,1,37.07,35.93,136.42,136.42,0,0,0-37.43-44,136.8,136.8,0,0,1,40.75,36.76,139.56,139.56,0,0,0-34-42.56,137.46,137.46,0,0,1,34.44,31.41,144,144,0,0,0-27-37A139,139,0,0,1,320.32,254,146.39,146.39,0,0,0,294.9,219.1a140.19,140.19,0,0,1,27.86,27.38,151.06,151.06,0,0,0-21.93-31.37A141.9,141.9,0,0,1,326.77,240.73Z"/><path class="cls-5" d="M64.58,307.14S42.45,317,30.89,310.19c0,0,32.72,26.77,65.06-.16,0,.12,0,.23,0,.35.17,1.21.44,2.4.64,3.57s.44,2.32.66,3.46.55,2.24.81,3.32c.6,2.17,1.09,4.27,1.83,6.23s1.3,3.86,2,5.61,1.46,3.39,2.17,4.91c1.44,3,3,5.55,4.13,7.65,2.69,4,4.3,6.2,4.3,6.2l.51-.3s-1-2.56-2.92-6.85c-.39-1.11-.82-2.34-1.3-3.68-.25-.66-.5-1.35-.77-2.05l-.4-1.09c-.11-.38-.21-.77-.33-1.16-.45-1.57-1-3.21-1.49-4.95s-.86-3.63-1.36-5.56-.82-4-1.2-6.07c-.09-.52-.2-1-.3-1.56,8.82,17.56,31.92,49.88,78,34.65,0,0-31.57-5.09-49.25-19.87,0,0,32.7,11.15,53.42-4.27,0,0-32,1.46-54.8-19.74,0,0,35.62,13.1,70.95-16.16,0,0-53.92,9.19-74.77-7.67,0,0,49.36,13.84,78.13-7.51,0,0-67.82-1.64-86.84-12.88,0,0,53.52,8.77,70-3.2,0,0-32-16.57-56.19-18.25,0,0,30.45-13.59,64.83-1.12,0,0-19.91-25.46-52.16-22.46,0,0,18.32-11.33,64.08-17.45,0,0-26.17-14.73-51.59-7.95,0,0,45.07-12.11,50.36-33.51,0,0-37.79,17.85-51.07,13.44,0,0,5.09-20.39,49.13-46.79,0,0-32.57-3.43-65.54,33.05a112.34,112.34,0,0,1,33-31.52s-22.63,0-40.42,21.9c0,0,5.87-15.78,16.17-23,0,0-23.9,5-37.65,31.68,0,0,7.61-23.82,18-32.15,0,0-33.06,19-32.85,49,0,0-4.63-23.77,9.56-41.43,0,0-28,29.39-21,61.1,0,0-11.73-43-.92-60.21,0,0-29.28,23-6.56,81.27,0,0-14.92-24.79-16.08-44.3,0,0-15,11.92,2.78,53.18,0,0-16.46-21.19-17.8-41.26,0,0-17.1,13.82,9.48,58.45,0,0-23.44-13.95-26.39-36.4,0,0-5.74,24.44,13.8,49.39,0,0-35-15.78-42.37-37,0,0-6,27,30.82,53.2,0,0-18.6-2.88-25.13-13.4,0,0,8.43,32.9,48.18,37,0,0-25.64,4.17-35.87-5.57C18.36,290.21,32.42,313.63,64.58,307.14Z"/><path class="cls-6" d="M325.37,237.15c0-.31,0-.61-.07-.91A187.67,187.67,0,0,0,295,206a172.87,172.87,0,0,1,26.47,14.88,199.36,199.36,0,0,0-18.24-20.67,173.28,173.28,0,0,1,19.6,11l-.09-.77q-6.28-8.72-13.23-16.58a17.88,17.88,0,0,1,12.2,9.25c-.7-4.75-.34-4.23.54.78-.09-.62-.21-1.36-.37-2.28a21.88,21.88,0,0,1,8.35-12.09q-3.41,10.52-6.94,20.66c0,.33.09.68.15,1q7.47-8.85,15.15-18Q333,207,327.29,220.14q10.32-11.74,21-23.85-11,20.72-21.81,40c0,.3.06.58.07.87,9.62-11.78,19.47-24,29.62-36.39q-12.6,22.73-25,43.78C341.84,232,352.78,219,364.08,205.81q-15.52,25.11-30.55,48.34c11.65-13.27,23.69-27,36.16-40.93q-17.49,26.17-34.23,50.39c14-13.64,28.59-27.69,43.89-41.63-15.87,19.17-31.1,37.87-45.77,55.64,17.14-15.06,35.18-30.57,54.29-45.55-18.37,18.91-35.81,37.67-52.48,55.58,16.41-13.86,33.64-28,51.84-41.76-18.47,18.31-36,36.49-52.78,53.86,16.38-13.35,33.59-27,51.76-40.13-18.57,17.71-36.21,35.31-53,52.16,16.33-12.84,33.5-25.94,51.6-38.55-18.64,17.14-36.35,34.18-53.22,50.54,16.27-12.38,33.39-24.95,51.42-37-18.69,16.57-36.46,33.07-53.36,48.94,16.19-11.91,33.25-24,51.2-35.56-18.74,16-36.56,32-53.49,47.39,16.12-11.47,33.09-23.06,51-34.15-18.77,15.47-36.61,30.94-53.58,45.9,16-11.05,32.92-22.19,50.68-32.81-18.78,15-36.65,29.94-53.63,44.46,15.94-10.66,32.72-21.34,50.37-31.51-18.79,14.46-36.66,29-53.64,43.06,15.83-10.28,32.51-20.55,50-30.28-21.15,15.73-41.14,31.54-60,46.89q-2.56,7.88-5.45,15.67c-1.11-.52-2.22-1-3.34-1.53q2.93-7.77,5.53-15.65a163.76,163.76,0,0,0-31.72-66.86,155.73,155.73,0,0,1,32.55,47,162.94,162.94,0,0,0-32.46-57.2,156.85,156.85,0,0,1,35.14,46,163,163,0,0,0-35.35-56.08,158.07,158.07,0,0,1,37.71,44.76,163.64,163.64,0,0,0-38.2-54.83,159,159,0,0,1,40.23,43.47,164,164,0,0,0-41-53.47,160.5,160.5,0,0,1,42.7,42,164.66,164.66,0,0,0-43.76-52,161.69,161.69,0,0,1,45.16,40.52,165.08,165.08,0,0,0-46.48-50.36,163,163,0,0,1,47.52,38.85,165.23,165.23,0,0,0-49.13-48.61A164.14,164.14,0,0,1,318,297.87a166,166,0,0,0-51.72-46.74,165.46,165.46,0,0,1,52.12,35.21,166.29,166.29,0,0,0-54.26-44.77A167.06,167.06,0,0,1,320.84,277,169.83,169.83,0,0,0,271,233.18a167.17,167.17,0,0,1,48,30.34,175.52,175.52,0,0,0-40.23-38.64,169.41,169.41,0,0,1,41.69,29.54A178.93,178.93,0,0,0,282.53,218a171.23,171.23,0,0,1,39.25,26.92,183.82,183.82,0,0,0-33-33A173,173,0,0,1,325.37,237.15Z"/><path class="cls-7" d="M231.56,134.35c.26-.34.51-.68.77-1a284.33,284.33,0,0,1,60.36-13.89,264,264,0,0,0-44-1.42,301.51,301.51,0,0,1,38.21-11.24,269.91,269.91,0,0,0-32.62-1c.24-.27.46-.56.71-.83q14.33-5.75,28.89-10c-5.24-1.59-13.8-2.79-22.1,2.16,4.46-5.06,3.61-4.72-1.24.54.57-.68,1.28-1.46,2.17-2.42,2.61-8.56.84-15-1.2-20.13q-3.74,14.76-7,29.18c-.32.35-.62.71-.94,1.08-1.72-10.48-3.43-21.11-5.2-31.87Q244.87,93.6,242,113q-3.89-21.12-8-43-2.11,32.11-3.23,62.46c-.26.32-.51.63-.76,1-3-20.67-6-42-9.15-63.78q-1.59,35.63-2.15,69.15c-3.66-22.29-7.4-45.31-11.4-68.84q.22,40.51,1.29,78.44c-4.41-23.84-8.94-48.53-13.84-73.75q1.84,43.17,4.3,83.48c-7-26-14.49-52.85-22.87-80.09,5.15,33.78,9.87,66.57,14.6,97.87C181,146.08,170.36,115,158,83.83c8.45,35.28,15.88,69.72,23,102.6-9.84-28-20.45-56.88-32.61-85.93,9,34.65,17,68.48,24.63,100.79-10.18-27.33-21.18-55.59-33.73-84,9.59,34,18.13,67.22,26.21,99-10.5-26.71-21.86-54.3-34.76-82,10.13,33.38,19.18,66,27.69,97.19-10.78-26.11-22.48-53.06-35.67-80.08,10.62,32.75,20.16,64.76,29.09,95.44-11.05-25.52-23-51.84-36.51-78.21,11.09,32.14,21.08,63.57,30.4,93.71-11.28-24.94-23.53-50.64-37.28-76.38,11.54,31.53,22,62.38,31.64,92-11.49-24.39-24-49.49-37.94-74.59,11.95,30.93,22.76,61.22,32.79,90.36-11.68-23.86-24.38-48.36-38.53-72.86,12.33,30.34,23.5,60.07,33.87,88.73-11.83-23.34-24.73-47.27-39-71.17,14.28,33.51,27.1,66.31,38.86,97.77-1.85,7.38-3.56,14.8-5.08,22.26,1.76.19,3.53.37,5.28.6q2.25-11.21,5-22.3A240.07,240.07,0,0,1,225.05,281,232.71,232.71,0,0,0,149.24,313,240.87,240.87,0,0,1,232.64,269a236,236,0,0,0-78.23,28.84,243,243,0,0,1,86.13-40.56,238.54,238.54,0,0,0-80.48,25.6,244.93,244.93,0,0,1,88.7-37.06,241.34,241.34,0,0,0-82.64,22.29,247,247,0,0,1,91.15-33.47,244.18,244.18,0,0,0-84.63,18.85,248.37,248.37,0,0,1,93.44-29.73,246.48,246.48,0,0,0-86.51,15.32,250.15,250.15,0,0,1,95.6-25.92A248.81,248.81,0,0,0,187,224.85a251.47,251.47,0,0,1,97.55-22,251.61,251.61,0,0,0-89.72,7.95,253,253,0,0,1,99.35-17.93A253.5,253.5,0,0,0,203,197a254.17,254.17,0,0,1,101-13.82,255.7,255.7,0,0,0-97,1.14,258.56,258.56,0,0,1,94.79-15.87,256.25,256.25,0,0,0-82.34,1.36,267.33,267.33,0,0,1,79-16.62,259.21,259.21,0,0,0-73.91,4.91,271.43,271.43,0,0,1,74.47-15.68A261.86,261.86,0,0,0,230.15,146a280,280,0,0,1,65.75-15.13A265.14,265.14,0,0,0,231.56,134.35Z"/><path class="cls-8" d="M192.73,329.31s-20.51,9.14-31.23,2.82c0,0,30.33,24.82,60.32-.15,0,.11,0,.22,0,.33.16,1.12.41,2.22.6,3.31s.41,2.15.61,3.21.51,2.07.75,3.08c.56,2,1,3.95,1.7,5.77s1.2,3.58,1.87,5.2,1.36,3.14,2,4.55c1.34,2.82,2.77,5.15,3.84,7.09,2.49,3.72,4,5.75,4,5.75l.47-.28s-.94-2.37-2.7-6.35l-1.2-3.41-.72-1.9c-.12-.33-.25-.67-.37-1s-.2-.71-.31-1.07c-.41-1.46-.89-3-1.38-4.59s-.79-3.37-1.26-5.16-.76-3.68-1.11-5.62c-.09-.49-.19-1-.28-1.45,8.18,16.27,29.6,46.24,72.27,32.12,0,0-29.26-4.72-45.66-18.42,0,0,30.32,10.34,49.53-4,0,0-29.68,1.36-50.81-18.3,0,0,33,12.15,65.78-15,0,0-50,8.51-69.31-7.11,0,0,45.75,12.83,72.43-7,0,0-62.87-1.53-80.51-11.94,0,0,49.61,8.12,64.87-3,0,0-29.64-15.36-52.1-16.92,0,0,28.24-12.6,60.11-1,0,0-18.46-23.6-48.36-20.81,0,0,17-10.51,59.41-16.19,0,0-24.26-13.65-47.83-7.36,0,0,41.79-11.23,46.68-31.07,0,0-35,16.55-47.34,12.46,0,0,4.72-18.91,45.55-43.37,0,0-30.19-3.19-60.76,30.63A104.19,104.19,0,0,1,292.91,164s-21,0-37.47,20.3c0,0,5.44-14.62,15-21.37,0,0-22.15,4.69-34.9,29.37,0,0,7.05-22.07,16.67-29.8,0,0-30.66,17.62-30.46,45.41,0,0-4.29-22,8.86-38.41,0,0-26,27.24-19.48,56.64,0,0-10.87-39.88-.85-55.81,0,0-27.14,21.28-6.08,75.34,0,0-13.83-23-14.91-41.07,0,0-13.92,11,2.58,49.29,0,0-15.26-19.64-16.5-38.25,0,0-15.85,12.82,8.79,54.2,0,0-21.73-12.93-24.46-33.75,0,0-5.33,22.66,12.79,45.79,0,0-32.49-14.63-39.28-34.33,0,0-5.52,25,28.57,49.33,0,0-17.24-2.68-23.29-12.43,0,0,7.81,30.5,44.66,34.31,0,0-23.77,3.86-33.26-5.17C149.88,313.61,162.92,335.32,192.73,329.31Z"/></g></g></g></svg>