<svg xmlns="http://www.w3.org/2000/svg" xmlns:xlink="http://www.w3.org/1999/xlink" viewBox="0 0 85.65 86.29"><defs><style>.cls-1,.cls-2{fill:none;stroke-miterlimit:10;}.cls-1{stroke:url(#linear-gradient);}.cls-2{stroke:url(#linear-gradient-2);}.cls-3{fill:url(#linear-gradient-3);}</style><linearGradient id="linear-gradient" x1="85.65" y1="80.62" x2="5.67" y2="0.64" gradientUnits="userSpaceOnUse"><stop offset="0" stop-color="#b47a1a"/><stop offset="0.05" stop-color="#b9811e"/><stop offset="0.13" stop-color="#c69429"/><stop offset="0.22" stop-color="#dcb33c"/><stop offset="0.32" stop-color="#fade56"/><stop offset="0.33" stop-color="#ffe55a"/><stop offset="0.52" stop-color="#ffec88"/><stop offset="0.66" stop-color="#ffe55a"/><stop offset="1" stop-color="#b47a1a"/></linearGradient><linearGradient id="linear-gradient-2" x1="79.98" y1="86.29" x2="0" y2="6.31" xlink:href="#linear-gradient"/><linearGradient id="linear-gradient-3" x1="85.51" y1="74" x2="11.51" y2="0" xlink:href="#linear-gradient"/></defs><title>Asset 6menu</title><g id="Layer_2" data-name="Layer 2"><g id="Layer_1-2" data-name="Layer 1"><rect class="cls-1" x="6.17" y="1.14" width="78.98" height="78.98"/><rect class="cls-2" x="0.5" y="6.81" width="78.98" height="78.98"/><rect class="cls-3" x="11.51" width="74" height="74"/><path d="M29.15,39.11H67.84A2.16,2.16,0,0,0,70,37.31a2.12,2.12,0,0,0-2.13-2.42H29.19A2.18,2.18,0,0,0,27,36.69,2.13,2.13,0,0,0,29.15,39.11Zm0-12.9H67.84A2.15,2.15,0,0,0,70,24.42,2.12,2.12,0,0,0,67.87,22H29.19A2.18,2.18,0,0,0,27,23.8,2.13,2.13,0,0,0,29.15,26.21Zm0,25.79H67.84A2.16,2.16,0,0,0,70,50.2a2.11,2.11,0,0,0-2.13-2.41H29.19A2.17,2.17,0,0,0,27,49.58,2.13,2.13,0,0,0,29.15,52Z"/></g></g></svg>