<svg xmlns="http://www.w3.org/2000/svg" xmlns:xlink="http://www.w3.org/1999/xlink" viewBox="0 0 402.88 394"><defs><style>.cls-1,.cls-24{fill:none;stroke-miterlimit:10;stroke-width:2px;}.cls-1{stroke:url(#linear-gradient);}.cls-2,.cls-3{font-size:64.62px;font-family:Montserrat-SemiBold, Montserrat;font-weight:600;}.cls-3{fill:#ffec88;}.cls-4{font-size:27.72px;}.cls-4,.cls-8{fill:#d21e45;font-family:ProductSans-Regular, Product Sans;}.cls-5{letter-spacing:-0.02em;}.cls-6{letter-spacing:-0.01em;}.cls-7{fill:url(#linear-gradient-2);}.cls-8{font-size:20.04px;}.cls-9{letter-spacing:0em;}.cls-10{letter-spacing:0em;}.cls-11{letter-spacing:-0.01em;}.cls-12{letter-spacing:-0.02em;}.cls-13{letter-spacing:0em;}.cls-14{letter-spacing:-0.02em;}.cls-15{letter-spacing:-0.03em;}.cls-16{letter-spacing:0em;}.cls-17{letter-spacing:0em;}.cls-18{letter-spacing:-0.01em;}.cls-19{letter-spacing:0em;}.cls-20{letter-spacing:-0.02em;}.cls-21{letter-spacing:-0.04em;}.cls-22{letter-spacing:-0.06em;}.cls-23{fill:url(#linear-gradient-12);}.cls-24{stroke:url(#linear-gradient-70);}</style><linearGradient id="linear-gradient" x1="402.88" y1="394" x2="37.37" y2="28.5" gradientUnits="userSpaceOnUse"><stop offset="0" stop-color="#b47a1a"/><stop offset="0.05" stop-color="#b9811e"/><stop offset="0.13" stop-color="#c69429"/><stop offset="0.22" stop-color="#dcb33c"/><stop offset="0.32" stop-color="#fade56"/><stop offset="0.33" stop-color="#ffe55a"/><stop offset="0.52" stop-color="#ffec88"/><stop offset="0.66" stop-color="#ffe55a"/><stop offset="1" stop-color="#b47a1a"/></linearGradient><linearGradient id="linear-gradient-2" x1="150.4" y1="139.99" x2="290.1" y2="139.99" gradientUnits="userSpaceOnUse"><stop offset="0" stop-color="#b47a1a"/><stop offset="0" stop-color="#b88121"/><stop offset="0" stop-color="#c59433"/><stop offset="0" stop-color="#d9b351"/><stop offset="0" stop-color="#f6de7a"/><stop offset="0" stop-color="#ffec88"/></linearGradient><linearGradient id="linear-gradient-12" x1="87.86" y1="259.71" x2="352.09" y2="259.71" xlink:href="#linear-gradient-2"/><linearGradient id="linear-gradient-70" x1="0" y1="33" x2="66" y2="33" xlink:href="#linear-gradient"/></defs><title>Asset 18prize1</title><g id="Layer_2" data-name="Layer 2"><g id="Layer_1-2" data-name="Layer 1"><rect class="cls-1" x="38.38" y="29.5" width="363.5" height="363.5"/><text class="cls-2" transform="translate(53.98 208.81)">N200,000</text><text class="cls-3" transform="translate(53.98 208.81)">N200,000</text><text class="cls-4" transform="translate(149.37 149.91)"><tspan class="cls-5">Gr</tspan><tspan x="31.16" y="0">and Pri</tspan><tspan class="cls-6" x="114.18" y="0">z</tspan><tspan x="126.65" y="0">e</tspan></text><path class="cls-7" d="M170.47,140.79a9,9,0,0,1-2.47,6.63,9.55,9.55,0,0,1-7.29,2.93,10.37,10.37,0,1,1,0-20.73,11,11,0,0,1,4.13.78,8.12,8.12,0,0,1,3.19,2.19l-1.83,1.83a6.2,6.2,0,0,0-2.37-1.74,7.93,7.93,0,0,0-3.12-.62,7.5,7.5,0,0,0-5.49,2.24,8.39,8.39,0,0,0,0,11.37,7.47,7.47,0,0,0,5.49,2.25,7.36,7.36,0,0,0,4.93-1.67,6.66,6.66,0,0,0,2.28-4.57h-7.21v-2.39h9.62A8.82,8.82,0,0,1,170.47,140.79Z"/><path class="cls-7" d="M175.12,149.91h-2.55V136.33H175v2.22h.11a3.69,3.69,0,0,1,1.6-1.85,4.38,4.38,0,0,1,2.37-.76,4.79,4.79,0,0,1,1.88.33l-.77,2.47a4.28,4.28,0,0,0-1.5-.19,3.29,3.29,0,0,0-2.51,1.16,3.91,3.91,0,0,0-1.07,2.72Z"/><path class="cls-7" d="M187.24,135.88a6.31,6.31,0,0,1,4.46,1.52,5.33,5.33,0,0,1,1.63,4.14v8.37H190.9V148h-.11a4.88,4.88,0,0,1-4.22,2.32,5.43,5.43,0,0,1-3.75-1.33,4.23,4.23,0,0,1-1.52-3.32,4.05,4.05,0,0,1,1.6-3.36,6.71,6.71,0,0,1,4.25-1.24,7.49,7.49,0,0,1,3.75.83v-.58a2.92,2.92,0,0,0-1.06-2.26,3.59,3.59,0,0,0-2.46-.93A3.92,3.92,0,0,0,184,140l-2.24-1.41A6.26,6.26,0,0,1,187.24,135.88Zm-3.3,9.87a2.06,2.06,0,0,0,.84,1.67,3.16,3.16,0,0,0,2,.66,4.06,4.06,0,0,0,2.86-1.19,3.76,3.76,0,0,0,1.27-2.8,5.26,5.26,0,0,0-3.33-.94,4.29,4.29,0,0,0-2.59.75A2.18,2.18,0,0,0,183.94,145.75Z"/><path class="cls-7" d="M196.22,136.33h2.44v1.88h.11a4.52,4.52,0,0,1,1.79-1.66,5.15,5.15,0,0,1,2.5-.67,5,5,0,0,1,3.84,1.43,5.69,5.69,0,0,1,1.35,4.06v8.54H205.7v-8.37q-.09-3.33-3.36-3.33a3.22,3.22,0,0,0-2.55,1.24,4.47,4.47,0,0,0-1,3v7.51h-2.55Z"/><path class="cls-7" d="M216.92,150.35a6,6,0,0,1-4.57-2.1,7.94,7.94,0,0,1,0-10.26,6,6,0,0,1,4.57-2.11,5.91,5.91,0,0,1,2.73.64,4.76,4.76,0,0,1,1.9,1.69h.11l-.11-1.88v-6.27h2.55v19.85h-2.44V148h-.11a4.76,4.76,0,0,1-1.9,1.69A5.9,5.9,0,0,1,216.92,150.35Zm.42-2.32a3.93,3.93,0,0,0,3.08-1.36,5.66,5.66,0,0,0,0-7.07,3.92,3.92,0,0,0-3.08-1.39,4,4,0,0,0-3.08,1.39,5.06,5.06,0,0,0-1.24,3.52,5,5,0,0,0,1.24,3.52A4,4,0,0,0,217.34,148Z"/><path class="cls-7" d="M236.3,141.87v8h-2.55V130.06h6.76a6.13,6.13,0,0,1,4.38,1.72,5.73,5.73,0,0,1,0,8.4,6.08,6.08,0,0,1-4.38,1.69Zm0-9.37v6.93h4.27a3.5,3.5,0,0,0,3.55-3.46,3.57,3.57,0,0,0-3.55-3.47Z"/><path class="cls-7" d="M251.49,149.91h-2.55V136.33h2.44v2.22h.11a3.72,3.72,0,0,1,1.59-1.85,4.44,4.44,0,0,1,2.37-.76,4.84,4.84,0,0,1,1.89.33l-.78,2.47a4.18,4.18,0,0,0-1.49-.19,3.29,3.29,0,0,0-2.51,1.16,3.91,3.91,0,0,0-1.07,2.72Z"/><path class="cls-7" d="M262.3,131.64a1.75,1.75,0,0,1-.53,1.28,1.73,1.73,0,0,1-1.27.53,1.79,1.79,0,0,1-1.8-1.81,1.72,1.72,0,0,1,.52-1.27,1.75,1.75,0,0,1,1.28-.53,1.81,1.81,0,0,1,1.8,1.8Zm-.53,4.69v13.58h-2.55V136.33Z"/><path class="cls-7" d="M275.41,149.91h-11v-2.22l7.74-9h-7.51v-2.33H275.3v2.22l-7.73,9h7.84Z"/><path class="cls-7" d="M283.67,150.35a6.48,6.48,0,0,1-4.93-2,7.19,7.19,0,0,1-1.94-5.18,7.41,7.41,0,0,1,1.88-5.17,6.77,6.77,0,0,1,9.64-.11,7.82,7.82,0,0,1,1.78,5.47l0,.28H279.4a4.46,4.46,0,0,0,1.33,3.22,4.3,4.3,0,0,0,6.88-1.22l2.27,1.11a6.69,6.69,0,0,1-2.54,2.68A7,7,0,0,1,283.67,150.35Zm-4.07-8.87h7.79a3.42,3.42,0,0,0-1.15-2.34,4.05,4.05,0,0,0-2.79-.93,3.7,3.7,0,0,0-2.48.89A4.25,4.25,0,0,0,279.6,141.48Z"/><text class="cls-8" transform="translate(92.89 240.84)"><tspan class="cls-9">O</tspan><tspan class="cls-10" x="16.13" y="0">ne m</tspan><tspan class="cls-11" x="59.21" y="0">o</tspan><tspan class="cls-12" x="70.24" y="0">n</tspan><tspan class="cls-13" x="80.6" y="0">t</tspan><tspan x="87.79" y="0">h</tspan><tspan class="cls-14" x="98.65" y="0"> </tspan><tspan x="102.66" y="0">f</tspan><tspan class="cls-15" x="110.03" y="0">r</tspan><tspan class="cls-16" x="116.71" y="0">e</tspan><tspan x="127.55" y="0">e su</tspan><tspan class="cls-9" x="162.67" y="0">b</tspan><tspan class="cls-13" x="174.12" y="0">s</tspan><tspan class="cls-17" x="183.33" y="0">c</tspan><tspan x="193.69" y="0">ri</tspan><tspan class="cls-14" x="205.38" y="0">p</tspan><tspan class="cls-16" x="216.44" y="0">t</tspan><tspan class="cls-9" x="223.63" y="0">i</tspan><tspan class="cls-11" x="227.94" y="0">o</tspan><tspan x="238.96" y="0">n,</tspan><tspan class="cls-17" x="-5.77" y="24.05">O</tspan><tspan x="10.36" y="24.05">ne m</tspan><tspan class="cls-11" x="53.44" y="24.05">o</tspan><tspan class="cls-12" x="64.47" y="24.05">n</tspan><tspan class="cls-13" x="74.83" y="24.05">t</tspan><tspan x="82.02" y="24.05">h</tspan><tspan class="cls-14" x="92.88" y="24.05"> </tspan><tspan x="96.89" y="24.05">f</tspan><tspan class="cls-15" x="104.26" y="24.05">r</tspan><tspan class="cls-16" x="110.94" y="24.05">e</tspan><tspan x="121.78" y="24.05">e </tspan><tspan class="cls-9" x="136.92" y="24.05">a</tspan><tspan x="147.04" y="24.05">d</tspan><tspan class="cls-18" x="158.59" y="24.05">v</tspan><tspan x="168.27" y="24.05">e</tspan><tspan class="cls-16" x="179.01" y="24.05">rt</tspan><tspan x="193.81" y="24.05">i</tspan><tspan class="cls-9" x="198.22" y="24.05">s</tspan><tspan x="207.24" y="24.05">i</tspan><tspan class="cls-17" x="211.65" y="24.05">n</tspan><tspan class="cls-19" x="222.41" y="24.05">g </tspan><tspan class="cls-11" x="238.36" y="24.05">o</tspan><tspan class="cls-10" x="249.38" y="24.05">n</tspan><tspan class="cls-20" x="75.82" y="48.09">C</tspan><tspan x="90.02" y="48.09">am</tspan><tspan class="cls-17" x="117.32" y="48.09">pus</tspan><tspan x="148.46" y="48.09">t</tspan><tspan class="cls-21" x="155.55" y="48.09"> </tspan><tspan class="cls-22" x="159.16" y="48.09">T</tspan><tspan x="168.68" y="48.09">v</tspan></text><path class="cls-23" d="M108.38,233.66a7.28,7.28,0,0,1-2.12,5.33,7.45,7.45,0,0,1-10.51,0,7.76,7.76,0,0,1,0-10.66,7.45,7.45,0,0,1,10.51,0A7.27,7.27,0,0,1,108.38,233.66Zm-12.87,0a5.69,5.69,0,0,0,1.57,4.11,5.25,5.25,0,0,0,3.92,1.62,5.2,5.2,0,0,0,3.91-1.62,6.11,6.11,0,0,0,0-8.22,5.2,5.2,0,0,0-3.91-1.62,5.25,5.25,0,0,0-3.92,1.62A5.72,5.72,0,0,0,95.51,233.66Z"/><path class="cls-23" d="M110.14,231h1.77v1.36H112a3.27,3.27,0,0,1,1.29-1.2,3.69,3.69,0,0,1,1.81-.48,3.64,3.64,0,0,1,2.78,1,4.1,4.1,0,0,1,1,2.93v6.18H117v-6.06a2.17,2.17,0,0,0-2.43-2.4,2.31,2.31,0,0,0-1.84.89,3.22,3.22,0,0,0-.74,2.14v5.43h-1.85Z"/><path class="cls-23" d="M125.41,241.16a4.68,4.68,0,0,1-3.56-1.49,5.19,5.19,0,0,1-1.41-3.74,5.32,5.32,0,0,1,1.37-3.74,4.9,4.9,0,0,1,7-.08,5.65,5.65,0,0,1,1.29,4l0,.2h-7.71a3.15,3.15,0,0,0,1,2.32,3.11,3.11,0,0,0,5-.88l1.64.8a4.92,4.92,0,0,1-1.83,2A5.15,5.15,0,0,1,125.41,241.16Zm-2.94-6.42h5.63a2.47,2.47,0,0,0-.83-1.69,2.92,2.92,0,0,0-2-.67,2.66,2.66,0,0,0-1.79.64A3.07,3.07,0,0,0,122.47,234.74Z"/><path class="cls-23" d="M138,240.84h-1.85V231h1.77v1.36H138a3.27,3.27,0,0,1,1.29-1.2,3.62,3.62,0,0,1,3.64,0,3,3,0,0,1,1.2,1.38,3.81,3.81,0,0,1,3.39-1.88,3.29,3.29,0,0,1,2.62,1,4.34,4.34,0,0,1,.92,3v6.14h-1.84V235a3.17,3.17,0,0,0-.5-2,2.07,2.07,0,0,0-1.69-.61,2.21,2.21,0,0,0-1.78.9,3.31,3.31,0,0,0-.72,2.13v5.43h-1.84V235a3.11,3.11,0,0,0-.51-2,2,2,0,0,0-1.68-.61,2.19,2.19,0,0,0-1.78.9,3.31,3.31,0,0,0-.72,2.13Z"/><path class="cls-23" d="M152.67,235.93a5.19,5.19,0,0,1,1.42-3.75,4.83,4.83,0,0,1,3.62-1.48,4.78,4.78,0,0,1,3.61,1.48,5.17,5.17,0,0,1,1.44,3.75,5.1,5.1,0,0,1-1.44,3.74,4.79,4.79,0,0,1-3.61,1.49,4.84,4.84,0,0,1-3.62-1.49A5.15,5.15,0,0,1,152.67,235.93Zm1.84,0a3.6,3.6,0,0,0,.92,2.56,3.15,3.15,0,0,0,4.57,0,4,4,0,0,0,0-5.11,3.11,3.11,0,0,0-4.57,0A3.6,3.6,0,0,0,154.51,235.93Z"/><path class="cls-23" d="M164.25,231H166v1.36h.08a3.27,3.27,0,0,1,1.29-1.2,3.73,3.73,0,0,1,1.82-.48,3.61,3.61,0,0,1,2.77,1,4.1,4.1,0,0,1,1,2.93v6.18H171.1v-6.06a2.16,2.16,0,0,0-2.42-2.4,2.33,2.33,0,0,0-1.85.89,3.28,3.28,0,0,0-.74,2.14v5.43h-1.84Z"/><path class="cls-23" d="M178.5,241a2.79,2.79,0,0,1-2-.75,2.72,2.72,0,0,1-.81-2.06V232.7H174V231h1.72v-3h1.84v3h2.41v1.68h-2.41v4.89a1.8,1.8,0,0,0,.38,1.33,1.24,1.24,0,0,0,.87.35,1.58,1.58,0,0,0,.43-.05,1.63,1.63,0,0,0,.39-.13l.58,1.65A5,5,0,0,1,178.5,241Z"/><path class="cls-23" d="M181.8,226.49h1.85V231l-.09,1.36h.09a3.27,3.27,0,0,1,1.29-1.2,3.69,3.69,0,0,1,1.81-.48,3.64,3.64,0,0,1,2.78,1,4.14,4.14,0,0,1,1,2.93v6.18h-1.85V235q0-2.64-2.34-2.64a2.36,2.36,0,0,0-1.89.93,3.29,3.29,0,0,0-.77,2.18v5.35H181.8Z"/><path class="cls-23" d="M201.2,226.33a3.44,3.44,0,0,1,1.64.34l-.5,1.62a2.38,2.38,0,0,0-1.08-.24,1.43,1.43,0,0,0-1.11.47,1.78,1.78,0,0,0-.43,1.25V231h2.56v1.68h-2.56v8.14h-1.85V232.7H196V231h1.84v-1.43a3.14,3.14,0,0,1,.93-2.36A3.32,3.32,0,0,1,201.2,226.33Z"/><path class="cls-23" d="M205.89,240.84H204V231h1.77v1.6h.08a2.69,2.69,0,0,1,1.15-1.33,3.16,3.16,0,0,1,1.71-.55,3.5,3.5,0,0,1,1.37.24l-.56,1.78a3.18,3.18,0,0,0-1.09-.14,2.38,2.38,0,0,0-1.81.84,2.84,2.84,0,0,0-.77,2Z"/><path class="cls-23" d="M215.13,241.16a4.69,4.69,0,0,1-3.57-1.49,5.18,5.18,0,0,1-1.4-3.74,5.32,5.32,0,0,1,1.36-3.74,4.9,4.9,0,0,1,7-.08,5.65,5.65,0,0,1,1.29,4l0,.2H212a3.23,3.23,0,0,0,1,2.32,3.11,3.11,0,0,0,5-.88l1.64.8a4.92,4.92,0,0,1-1.83,2A5.14,5.14,0,0,1,215.13,241.16Zm-2.95-6.42h5.63a2.43,2.43,0,0,0-.83-1.69,2.89,2.89,0,0,0-2-.67,2.66,2.66,0,0,0-1.8.64A3.07,3.07,0,0,0,212.18,234.74Z"/><path class="cls-23" d="M226,241.16a4.69,4.69,0,0,1-3.57-1.49,5.18,5.18,0,0,1-1.4-3.74,5.32,5.32,0,0,1,1.36-3.74,4.9,4.9,0,0,1,7-.08,5.61,5.61,0,0,1,1.3,4l0,.2h-7.72a3.23,3.23,0,0,0,1,2.32,3.11,3.11,0,0,0,5-.88l1.65.8a5,5,0,0,1-1.84,2A5.12,5.12,0,0,1,226,241.16ZM223,234.74h5.63a2.43,2.43,0,0,0-.83-1.69,2.89,2.89,0,0,0-2-.67,2.66,2.66,0,0,0-1.8.64A3.07,3.07,0,0,0,223,234.74Z"/><path class="cls-23" d="M244.22,238.11a2.63,2.63,0,0,1-1.12,2.16,4.84,4.84,0,0,1-5.43.11,4.21,4.21,0,0,1-1.6-2l1.64-.7a3,3,0,0,0,1,1.37,2.54,2.54,0,0,0,1.51.49,2.65,2.65,0,0,0,1.48-.38,1.08,1.08,0,0,0,.59-.9q0-.94-1.44-1.38l-1.69-.42c-1.91-.48-2.86-1.41-2.86-2.77a2.54,2.54,0,0,1,1.09-2.15,4.57,4.57,0,0,1,2.79-.81,4.5,4.5,0,0,1,2.36.62,3.37,3.37,0,0,1,1.47,1.66l-1.64.68a2.08,2.08,0,0,0-.91-1,2.93,2.93,0,0,0-1.42-.35,2.36,2.36,0,0,0-1.29.36,1,1,0,0,0-.57.88c0,.56.53,1,1.58,1.2l1.49.39C243.25,235.65,244.22,236.63,244.22,238.11Z"/><path class="cls-23" d="M254.44,240.84h-1.76v-1.37h-.08a3.29,3.29,0,0,1-1.29,1.21,3.75,3.75,0,0,1-1.82.48,3.64,3.64,0,0,1-2.77-1,4.13,4.13,0,0,1-1-2.94V231h1.85v6a2.16,2.16,0,0,0,2.42,2.4,2.3,2.3,0,0,0,1.85-.89,3.23,3.23,0,0,0,.74-2.13V231h1.84Z"/><path class="cls-23" d="M261.88,241.16a4.34,4.34,0,0,1-2-.46,3.49,3.49,0,0,1-1.37-1.23h-.08v1.37h-1.76V226.49h1.84V231l-.08,1.36h.08a3.4,3.4,0,0,1,1.37-1.22,4.36,4.36,0,0,1,5.26,1.06,5.37,5.37,0,0,1,1.38,3.71,5.31,5.31,0,0,1-1.38,3.7A4.2,4.2,0,0,1,261.88,241.16Zm-.3-1.69a2.86,2.86,0,0,0,2.22-1,3.6,3.6,0,0,0,.9-2.54,3.68,3.68,0,0,0-.9-2.55,2.86,2.86,0,0,0-2.22-1,2.89,2.89,0,0,0-2.25,1,4.15,4.15,0,0,0,0,5.11A2.91,2.91,0,0,0,261.58,239.47Z"/><path class="cls-23" d="M275.64,238.11a2.63,2.63,0,0,1-1.12,2.16,4.84,4.84,0,0,1-5.43.11,4.21,4.21,0,0,1-1.6-2l1.64-.7a3,3,0,0,0,1.05,1.37,2.54,2.54,0,0,0,1.51.49,2.65,2.65,0,0,0,1.48-.38,1.08,1.08,0,0,0,.59-.9q0-.94-1.44-1.38l-1.69-.42c-1.91-.48-2.86-1.41-2.86-2.77a2.54,2.54,0,0,1,1.09-2.15,4.57,4.57,0,0,1,2.79-.81,4.5,4.5,0,0,1,2.36.62,3.37,3.37,0,0,1,1.47,1.66l-1.64.68a2.08,2.08,0,0,0-.91-1,2.9,2.9,0,0,0-1.42-.35,2.36,2.36,0,0,0-1.29.36,1,1,0,0,0-.57.88c0,.56.53,1,1.58,1.2l1.49.39C274.67,235.65,275.64,236.63,275.64,238.11Z"/><path class="cls-23" d="M281.83,241.16a4.84,4.84,0,0,1-3.62-1.49,5.26,5.26,0,0,1-1.43-3.74,5.2,5.2,0,0,1,1.43-3.75,4.83,4.83,0,0,1,3.62-1.48,4.61,4.61,0,0,1,2.63.75,4.53,4.53,0,0,1,1.68,2.07l-1.68.7a2.77,2.77,0,0,0-2.75-1.84,2.84,2.84,0,0,0-2.18,1,4,4,0,0,0,0,5,2.84,2.84,0,0,0,2.18,1,2.89,2.89,0,0,0,2.85-1.84l1.64.7a4.44,4.44,0,0,1-1.69,2.08A4.8,4.8,0,0,1,281.83,241.16Z"/><path class="cls-23" d="M289.55,240.84h-1.84V231h1.76v1.6h.08a2.69,2.69,0,0,1,1.15-1.33,3.17,3.17,0,0,1,1.72-.55,3.48,3.48,0,0,1,1.36.24l-.56,1.78a3.18,3.18,0,0,0-1.09-.14,2.38,2.38,0,0,0-1.81.84,2.84,2.84,0,0,0-.77,2Z"/><path class="cls-23" d="M297.36,227.63a1.3,1.3,0,0,1-2.22.92,1.3,1.3,0,0,1,1.84-1.84A1.22,1.22,0,0,1,297.36,227.63ZM297,231v9.82h-1.84V231Z"/><path class="cls-23" d="M304.5,241.16a4.37,4.37,0,0,1-2-.46,3.49,3.49,0,0,1-1.37-1.23h-.08l.08,1.37v4.32h-1.84V231h1.76v1.36h.08a3.4,3.4,0,0,1,1.37-1.22,4.25,4.25,0,0,1,2-.46,4.19,4.19,0,0,1,3.28,1.52,5.33,5.33,0,0,1,1.39,3.71,5.27,5.27,0,0,1-1.39,3.7A4.2,4.2,0,0,1,304.5,241.16Zm-.3-1.69a2.86,2.86,0,0,0,2.22-1,3.6,3.6,0,0,0,.9-2.54,3.68,3.68,0,0,0-.9-2.55,2.86,2.86,0,0,0-2.22-1,2.89,2.89,0,0,0-2.25,1,4.15,4.15,0,0,0,0,5.11A2.91,2.91,0,0,0,304.2,239.47Z"/><path class="cls-23" d="M314.34,241a2.81,2.81,0,0,1-2-.75,2.72,2.72,0,0,1-.81-2.06V232.7h-1.72V231h1.72v-3h1.85v3h2.4v1.68h-2.4v4.89a1.76,1.76,0,0,0,.38,1.33,1.2,1.2,0,0,0,.86.35,1.58,1.58,0,0,0,.43-.05,1.63,1.63,0,0,0,.39-.13l.58,1.65A5,5,0,0,1,314.34,241Z"/><path class="cls-23" d="M320,227.63a1.26,1.26,0,0,1-.38.92,1.32,1.32,0,0,1-1.85,0,1.3,1.3,0,0,1,0-1.84,1.32,1.32,0,0,1,1.85,0A1.26,1.26,0,0,1,320,227.63Zm-.38,3.39v9.82H317.8V231Z"/><path class="cls-23" d="M321.39,235.93a5.19,5.19,0,0,1,1.42-3.75,4.84,4.84,0,0,1,3.63-1.48,4.78,4.78,0,0,1,3.61,1.48,5.17,5.17,0,0,1,1.44,3.75,5.1,5.1,0,0,1-1.44,3.74,4.79,4.79,0,0,1-3.61,1.49,4.85,4.85,0,0,1-3.63-1.49A5.15,5.15,0,0,1,321.39,235.93Zm1.84,0a3.57,3.57,0,0,0,.93,2.56,3.14,3.14,0,0,0,4.56,0,4,4,0,0,0,0-5.11,3.1,3.1,0,0,0-4.56,0A3.56,3.56,0,0,0,323.23,235.93Z"/><path class="cls-23" d="M333,231h1.77v1.36h.08a3.27,3.27,0,0,1,1.29-1.2,3.69,3.69,0,0,1,1.81-.48,3.62,3.62,0,0,1,2.78,1,4.1,4.1,0,0,1,1,2.93v6.18h-1.84v-6.06a2.17,2.17,0,0,0-2.43-2.4,2.31,2.31,0,0,0-1.84.89,3.22,3.22,0,0,0-.74,2.14v5.43H333Z"/><path class="cls-23" d="M344.45,243.08l-.86-.56,1.09-1.68a1.3,1.3,0,0,1-.72-.42,1.27,1.27,0,0,1-.29-.83,1.37,1.37,0,1,1,2.73,0,2.27,2.27,0,0,1-.4,1.19Z"/><path class="cls-23" d="M102.61,257.71a7.27,7.27,0,0,1-2.13,5.33A7.46,7.46,0,0,1,90,263a7.76,7.76,0,0,1,0-10.66,7.09,7.09,0,0,1,5.25-2.17,7,7,0,0,1,5.25,2.19A7.24,7.24,0,0,1,102.61,257.71Zm-12.87,0a5.67,5.67,0,0,0,1.57,4.11,5.25,5.25,0,0,0,3.92,1.62,5.2,5.2,0,0,0,3.91-1.62,6.14,6.14,0,0,0,0-8.22A5.2,5.2,0,0,0,95.23,252a5.25,5.25,0,0,0-3.92,1.62A5.65,5.65,0,0,0,89.74,257.71Z"/><path class="cls-23" d="M104.37,255.06h1.77v1.37h.08a3.29,3.29,0,0,1,1.29-1.21,3.69,3.69,0,0,1,1.81-.48,3.64,3.64,0,0,1,2.78,1,4.08,4.08,0,0,1,1,2.93v6.17h-1.84v-6.05a2.17,2.17,0,0,0-2.43-2.4,2.28,2.28,0,0,0-1.84.89,3.18,3.18,0,0,0-.74,2.13v5.43h-1.85Z"/><path class="cls-23" d="M119.64,265.2a4.71,4.71,0,0,1-3.57-1.48,5.26,5.26,0,0,1-1.4-3.75,5.35,5.35,0,0,1,1.36-3.73,4.5,4.5,0,0,1,3.49-1.5,4.46,4.46,0,0,1,3.48,1.42,5.64,5.64,0,0,1,1.29,3.95l0,.2h-7.71a3.15,3.15,0,0,0,1,2.33,3.11,3.11,0,0,0,5-.88l1.64.8a4.89,4.89,0,0,1-1.83,1.94A5.06,5.06,0,0,1,119.64,265.2Zm-2.94-6.41h5.63a2.45,2.45,0,0,0-.83-1.69,2.93,2.93,0,0,0-2-.67,2.66,2.66,0,0,0-1.79.64A3.07,3.07,0,0,0,116.7,258.79Z"/><path class="cls-23" d="M132.23,264.88h-1.85v-9.82h1.77v1.37h.08a3.29,3.29,0,0,1,1.29-1.21,3.57,3.57,0,0,1,1.73-.48,3.65,3.65,0,0,1,1.91.5,3.07,3.07,0,0,1,1.2,1.39,3.82,3.82,0,0,1,3.38-1.89,3.32,3.32,0,0,1,2.63,1,4.34,4.34,0,0,1,.92,3v6.13h-1.84V259a3.17,3.17,0,0,0-.5-2,2.07,2.07,0,0,0-1.69-.61,2.19,2.19,0,0,0-1.78.9,3.3,3.3,0,0,0-.72,2.12v5.43h-1.85V259a3.11,3.11,0,0,0-.5-2,2,2,0,0,0-1.68-.61,2.19,2.19,0,0,0-1.78.9,3.3,3.3,0,0,0-.72,2.12Z"/><path class="cls-23" d="M146.89,260a5.16,5.16,0,0,1,1.43-3.74,4.84,4.84,0,0,1,3.62-1.49,4.79,4.79,0,0,1,3.61,1.49,5.59,5.59,0,0,1,0,7.49,4.78,4.78,0,0,1-3.61,1.48,4.83,4.83,0,0,1-3.62-1.48A5.2,5.2,0,0,1,146.89,260Zm1.85,0a3.58,3.58,0,0,0,.92,2.57,3.15,3.15,0,0,0,4.57,0,3.63,3.63,0,0,0,.92-2.57,3.57,3.57,0,0,0-.92-2.54,3.11,3.11,0,0,0-4.57,0A3.53,3.53,0,0,0,148.74,260Z"/><path class="cls-23" d="M158.48,255.06h1.76v1.37h.08a3.29,3.29,0,0,1,1.29-1.21,3.73,3.73,0,0,1,1.82-.48,3.62,3.62,0,0,1,2.77,1,4.08,4.08,0,0,1,1,2.93v6.17h-1.84v-6.05a2.16,2.16,0,0,0-2.42-2.4,2.3,2.3,0,0,0-1.85.89,3.23,3.23,0,0,0-.74,2.13v5.43h-1.84Z"/><path class="cls-23" d="M172.72,265a2.77,2.77,0,0,1-2-.74,2.72,2.72,0,0,1-.81-2.06v-5.49H168.2v-1.69h1.72v-3h1.84v3h2.41v1.69h-2.41v4.89a1.8,1.8,0,0,0,.38,1.33,1.27,1.27,0,0,0,.87.35,2.1,2.1,0,0,0,.43-.05,2.23,2.23,0,0,0,.39-.13l.58,1.64A4.8,4.8,0,0,1,172.72,265Z"/><path class="cls-23" d="M176,250.54h1.84v4.52l-.08,1.37h.08a3.32,3.32,0,0,1,1.3-1.21,3.69,3.69,0,0,1,1.81-.48,3.64,3.64,0,0,1,2.78,1,4.12,4.12,0,0,1,1,2.93v6.17h-1.85v-5.81q0-2.64-2.34-2.64a2.36,2.36,0,0,0-1.89.93,3.27,3.27,0,0,0-.78,2.17v5.35H176Z"/><path class="cls-23" d="M195.43,250.38a3.57,3.57,0,0,1,1.64.33l-.5,1.63a2.38,2.38,0,0,0-1.08-.24,1.4,1.4,0,0,0-1.11.47,1.76,1.76,0,0,0-.44,1.25v1.24h2.57v1.69h-2.57v8.13H192.1v-8.13h-1.84v-1.69h1.84v-1.42a3.14,3.14,0,0,1,.93-2.36A3.27,3.27,0,0,1,195.43,250.38Z"/><path class="cls-23" d="M200.12,264.88h-1.85v-9.82H200v1.61h.08a2.66,2.66,0,0,1,1.15-1.34,3.25,3.25,0,0,1,1.71-.55,3.5,3.5,0,0,1,1.37.24l-.57,1.79a2.85,2.85,0,0,0-1.08-.14,2.38,2.38,0,0,0-1.81.84,2.77,2.77,0,0,0-.77,2Z"/><path class="cls-23" d="M209.35,265.2a4.67,4.67,0,0,1-3.56-1.48,5.22,5.22,0,0,1-1.4-3.75,5.31,5.31,0,0,1,1.36-3.73,4.88,4.88,0,0,1,7-.08,5.64,5.64,0,0,1,1.29,3.95l0,.2h-7.71a3.23,3.23,0,0,0,1,2.33,3.11,3.11,0,0,0,5-.88l1.64.8A4.89,4.89,0,0,1,212,264.5,5.06,5.06,0,0,1,209.35,265.2Zm-2.94-6.41H212a2.41,2.41,0,0,0-.83-1.69,2.9,2.9,0,0,0-2-.67,2.66,2.66,0,0,0-1.79.64A3.07,3.07,0,0,0,206.41,258.79Z"/><path class="cls-23" d="M220.2,265.2a4.68,4.68,0,0,1-3.57-1.48,5.22,5.22,0,0,1-1.4-3.75,5.31,5.31,0,0,1,1.36-3.73,4.5,4.5,0,0,1,3.49-1.5,4.45,4.45,0,0,1,3.47,1.42,5.64,5.64,0,0,1,1.29,3.95l0,.2h-7.71a3.23,3.23,0,0,0,1,2.33,3.11,3.11,0,0,0,5-.88l1.64.8a4.89,4.89,0,0,1-1.83,1.94A5,5,0,0,1,220.2,265.2Zm-2.95-6.41h5.63a2.41,2.41,0,0,0-.83-1.69,2.89,2.89,0,0,0-2-.67,2.66,2.66,0,0,0-1.8.64A3.07,3.07,0,0,0,217.25,258.79Z"/><path class="cls-23" d="M234.66,254.74a4.61,4.61,0,0,1,3.23,1.09,3.88,3.88,0,0,1,1.18,3v6.05h-1.76v-1.36h-.08a3.52,3.52,0,0,1-3,1.68,4,4,0,0,1-2.71-1,3.06,3.06,0,0,1-1.09-2.4,2.91,2.91,0,0,1,1.15-2.43,4.85,4.85,0,0,1,3.07-.9,5.46,5.46,0,0,1,2.71.6v-.42a2.11,2.11,0,0,0-.76-1.63,2.62,2.62,0,0,0-1.79-.67,2.81,2.81,0,0,0-2.44,1.3l-1.62-1A4.49,4.49,0,0,1,234.66,254.74Zm-2.38,7.14a1.46,1.46,0,0,0,.61,1.2,2.24,2.24,0,0,0,1.43.48,3,3,0,0,0,2.08-.86,2.74,2.74,0,0,0,.91-2,3.84,3.84,0,0,0-2.41-.68,3.13,3.13,0,0,0-1.87.54A1.62,1.62,0,0,0,232.28,261.88Z"/><path class="cls-23" d="M245.16,265.2a4.29,4.29,0,0,1-3.3-1.52,5.69,5.69,0,0,1,0-7.41,4.3,4.3,0,0,1,3.3-1.53,4.34,4.34,0,0,1,2,.46,3.49,3.49,0,0,1,1.37,1.23h.08l-.08-1.37v-4.52h1.84v14.34h-1.76v-1.36h-.08a3.4,3.4,0,0,1-1.37,1.22A4.22,4.22,0,0,1,245.16,265.2Zm.3-1.68a2.85,2.85,0,0,0,2.23-1,4.08,4.08,0,0,0,0-5.11,3,3,0,0,0-4.45,0,4,4,0,0,0,0,5.09A2.86,2.86,0,0,0,245.46,263.52Z"/><path class="cls-23" d="M257.37,264.88h-1.85l-4-9.82h2l2.89,7.62h0l2.92-7.62h2Z"/><path class="cls-23" d="M266.69,265.2a4.68,4.68,0,0,1-3.57-1.48,5.22,5.22,0,0,1-1.4-3.75,5.31,5.31,0,0,1,1.36-3.73,4.5,4.5,0,0,1,3.49-1.5,4.45,4.45,0,0,1,3.47,1.42,5.64,5.64,0,0,1,1.29,3.95l0,.2H263.6a3.23,3.23,0,0,0,1,2.33,3.11,3.11,0,0,0,5-.88l1.64.8a4.89,4.89,0,0,1-1.83,1.94A5,5,0,0,1,266.69,265.2Zm-2.95-6.41h5.63a2.41,2.41,0,0,0-.83-1.69,2.89,2.89,0,0,0-2-.67,2.66,2.66,0,0,0-1.8.64A3.07,3.07,0,0,0,263.74,258.79Z"/><path class="cls-23" d="M273,255.06h1.76v1.61h.08a3.31,3.31,0,0,1,3.39-1.89l.38,0v1.93l-.82-.08a3,3,0,0,0-2.12.79,2.68,2.68,0,0,0-.83,2v5.41H273Zm11.5,10a2.67,2.67,0,0,1-2.81-2.8v-5.49H280v-1.69h1.72v-3h1.85v3H286v1.69h-2.4v4.89a1.8,1.8,0,0,0,.38,1.33,1.24,1.24,0,0,0,.86.35,2,2,0,0,0,.43-.05,2.23,2.23,0,0,0,.39-.13l.58,1.64A4.78,4.78,0,0,1,284.52,265Z"/><path class="cls-23" d="M290.21,251.68a1.3,1.3,0,0,1-2.22.92,1.22,1.22,0,0,1-.38-.92,1.31,1.31,0,0,1,2.22-.93A1.3,1.3,0,0,1,290.21,251.68Zm-.38,3.38v9.82H288v-9.82Z"/><path class="cls-23" d="M299.75,262.16a2.66,2.66,0,0,1-1.12,2.16,4.89,4.89,0,0,1-5.43.11,4.23,4.23,0,0,1-1.61-2l1.65-.7a3.1,3.1,0,0,0,1.05,1.37,2.52,2.52,0,0,0,1.51.49,2.67,2.67,0,0,0,1.47-.38,1.07,1.07,0,0,0,.6-.9c0-.63-.49-1.09-1.45-1.38l-1.68-.43c-1.91-.48-2.87-1.4-2.87-2.76a2.57,2.57,0,0,1,1.1-2.16,4.55,4.55,0,0,1,2.79-.81,4.62,4.62,0,0,1,2.36.62,3.39,3.39,0,0,1,1.47,1.67l-1.64.68a2.06,2.06,0,0,0-.92-1,2.78,2.78,0,0,0-1.41-.35,2.36,2.36,0,0,0-1.29.36,1,1,0,0,0-.57.88c0,.56.53,1,1.58,1.2l1.48.38C298.77,259.69,299.75,260.67,299.75,262.16Z"/><path class="cls-23" d="M303.64,251.68a1.26,1.26,0,0,1-.38.92,1.3,1.3,0,0,1-.93.38,1.28,1.28,0,0,1-.92-.38,1.26,1.26,0,0,1-.38-.92,1.3,1.3,0,0,1,.38-.93,1.27,1.27,0,0,1,.92-.37,1.28,1.28,0,0,1,1.31,1.3Zm-.38,3.38v9.82h-1.85v-9.82Z"/><path class="cls-23" d="M305.66,255.06h1.76v1.37h.08a3.32,3.32,0,0,1,1.3-1.21,3.69,3.69,0,0,1,1.81-.48,3.64,3.64,0,0,1,2.78,1,4.12,4.12,0,0,1,1,2.93v6.17h-1.85v-6.05a2.16,2.16,0,0,0-2.42-2.4,2.27,2.27,0,0,0-1.84.89,3.19,3.19,0,0,0-.75,2.13v5.43h-1.84Z"/><path class="cls-23" d="M320.77,269.53a5.46,5.46,0,0,1-1.54-.21,5.26,5.26,0,0,1-1.32-.59,4.15,4.15,0,0,1-1-.9,4,4,0,0,1-.64-1.16L318,266a2.82,2.82,0,0,0,1.05,1.38,3,3,0,0,0,1.72.52,3,3,0,0,0,2.34-.9,3.47,3.47,0,0,0,.85-2.49v-.94h-.08a3.63,3.63,0,0,1-1.42,1.23,4.22,4.22,0,0,1-1.93.45,4.37,4.37,0,0,1-3.31-1.5,5.43,5.43,0,0,1-1.36-3.73,5.34,5.34,0,0,1,1.36-3.7,4.33,4.33,0,0,1,3.31-1.53,4.22,4.22,0,0,1,1.93.45,3.65,3.65,0,0,1,1.42,1.24H324v-1.37h1.76v9.4a5,5,0,0,1-1.34,3.71A4.87,4.87,0,0,1,320.77,269.53Zm.06-6a2.82,2.82,0,0,0,2.22-1,4,4,0,0,0,0-5.11,2.8,2.8,0,0,0-2.22-1,2.86,2.86,0,0,0-2.22,1,4,4,0,0,0,0,5.09A2.86,2.86,0,0,0,320.83,263.52Z"/><path class="cls-23" d="M331.81,260a5.15,5.15,0,0,1,1.42-3.74,4.86,4.86,0,0,1,3.63-1.49,4.79,4.79,0,0,1,3.61,1.49,5.59,5.59,0,0,1,0,7.49,4.78,4.78,0,0,1-3.61,1.48,4.86,4.86,0,0,1-3.63-1.48A5.19,5.19,0,0,1,331.81,260Zm1.84,0a3.59,3.59,0,0,0,.93,2.57,3,3,0,0,0,2.28,1,3,3,0,0,0,2.29-1,3.63,3.63,0,0,0,.92-2.57,3.57,3.57,0,0,0-.92-2.54,3.11,3.11,0,0,0-4.57,0A3.53,3.53,0,0,0,333.65,260Z"/><path class="cls-23" d="M343.39,255.06h1.77v1.37h.08a3.29,3.29,0,0,1,1.29-1.21,3.69,3.69,0,0,1,1.81-.48,3.63,3.63,0,0,1,2.78,1,4.08,4.08,0,0,1,1,2.93v6.17h-1.84v-6.05a2.17,2.17,0,0,0-2.43-2.4,2.28,2.28,0,0,0-1.84.89,3.18,3.18,0,0,0-.74,2.13v5.43h-1.85Z"/><path class="cls-23" d="M176.9,289.25a7.57,7.57,0,0,1-5.33-12.82,7.14,7.14,0,0,1,5.33-2.17,6.61,6.61,0,0,1,5.27,2.35l-1.32,1.28A4.92,4.92,0,0,0,176.9,276a5.42,5.42,0,0,0-4,1.61,6.17,6.17,0,0,0,0,8.25,5.42,5.42,0,0,0,4,1.61,5.6,5.6,0,0,0,4.35-2.11l1.34,1.31a7,7,0,0,1-2.5,1.89A7.6,7.6,0,0,1,176.9,289.25Z"/><path class="cls-23" d="M187.76,278.79a4.58,4.58,0,0,1,3.23,1.09,3.88,3.88,0,0,1,1.18,3v6.05h-1.76v-1.36h-.08a3.52,3.52,0,0,1-3.05,1.68,3.94,3.94,0,0,1-2.71-1,3.07,3.07,0,0,1-1.1-2.41,2.92,2.92,0,0,1,1.16-2.42,4.83,4.83,0,0,1,3.07-.9,5.46,5.46,0,0,1,2.71.6v-.42a2.14,2.14,0,0,0-.76-1.64,2.67,2.67,0,0,0-1.79-.67,2.82,2.82,0,0,0-2.44,1.31l-1.63-1A4.54,4.54,0,0,1,187.76,278.79Zm-2.38,7.13a1.48,1.48,0,0,0,.61,1.21,2.24,2.24,0,0,0,1.43.48,3,3,0,0,0,2.08-.86,2.74,2.74,0,0,0,.91-2A3.84,3.84,0,0,0,188,284a3.11,3.11,0,0,0-1.87.54A1.61,1.61,0,0,0,185.38,285.92Z"/><path class="cls-23" d="M196.1,288.93h-1.85v-9.82H196v1.36h.08a3.27,3.27,0,0,1,1.29-1.2,3.57,3.57,0,0,1,1.73-.48,3.63,3.63,0,0,1,1.91.5,3,3,0,0,1,1.2,1.38,3.83,3.83,0,0,1,3.39-1.88,3.32,3.32,0,0,1,2.62,1,4.33,4.33,0,0,1,.92,3v6.13h-1.84v-5.85a3.21,3.21,0,0,0-.5-2,2.1,2.1,0,0,0-1.68-.61,2.19,2.19,0,0,0-1.79.91,3.28,3.28,0,0,0-.72,2.12v5.43h-1.84v-5.85a3.21,3.21,0,0,0-.5-2,2.11,2.11,0,0,0-1.69-.61,2.18,2.18,0,0,0-1.78.91,3.28,3.28,0,0,0-.72,2.12Z"/><path class="cls-23" d="M216.44,289.25a4.25,4.25,0,0,1-2-.46,3.47,3.47,0,0,1-1.37-1.22H213l.08,1.36v4.33h-1.84V279.11H213v1.36h.08a3.55,3.55,0,0,1,1.37-1.22,4.36,4.36,0,0,1,5.26,1.06,5.65,5.65,0,0,1,0,7.42A4.22,4.22,0,0,1,216.44,289.25Zm-.3-1.68a2.89,2.89,0,0,0,2.22-1,4,4,0,0,0,0-5.09,2.87,2.87,0,0,0-2.22-1,2.9,2.9,0,0,0-2.25,1,4.13,4.13,0,0,0,0,5.1A2.91,2.91,0,0,0,216.14,287.57Z"/><path class="cls-23" d="M231.31,288.93h-1.77v-1.36h-.08a3.27,3.27,0,0,1-1.29,1.2,3.72,3.72,0,0,1-1.81.48,3.62,3.62,0,0,1-2.78-1,4.12,4.12,0,0,1-1-2.94v-6.17h1.84v6.05a2.17,2.17,0,0,0,2.43,2.41,2.31,2.31,0,0,0,1.84-.89,3.22,3.22,0,0,0,.74-2.14v-5.43h1.85Z"/><path class="cls-23" d="M241,286.2a2.67,2.67,0,0,1-1.13,2.17,4.42,4.42,0,0,1-2.82.88,4.53,4.53,0,0,1-2.61-.77,4.26,4.26,0,0,1-1.6-2l1.64-.71a3.07,3.07,0,0,0,1.05,1.38,2.64,2.64,0,0,0,1.52.49,2.67,2.67,0,0,0,1.47-.38,1.1,1.1,0,0,0,.59-.91q0-.93-1.44-1.38l-1.68-.42c-1.92-.48-2.87-1.4-2.87-2.76a2.55,2.55,0,0,1,1.09-2.16,5,5,0,0,1,5.15-.19,3.48,3.48,0,0,1,1.48,1.66l-1.65.69a2.1,2.1,0,0,0-.91-1,2.89,2.89,0,0,0-1.41-.35,2.42,2.42,0,0,0-1.3.36,1,1,0,0,0-.57.89q0,.84,1.59,1.2l1.48.38C240,283.74,241,284.72,241,286.2Z"/><path class="cls-23" d="M246.36,289.09a2.82,2.82,0,0,1-2-.74,2.74,2.74,0,0,1-.81-2.07v-5.49h-1.72v-1.68h1.72v-3h1.84v3h2.41v1.68h-2.41v4.89a1.83,1.83,0,0,0,.38,1.34,1.29,1.29,0,0,0,.87.35,2.1,2.1,0,0,0,.43-.05l.39-.13.58,1.64A5,5,0,0,1,246.36,289.09Z"/><path class="cls-23" d="M258.38,276.34v12.59h-1.84V276.34h-4v-1.76h9.86v1.76Z"/><path class="cls-23" d="M267.46,288.93h-1.85l-4-9.82h2l2.89,7.62h0l2.92-7.62h2Z"/><rect class="cls-24" x="1" y="1" width="64" height="64"/></g></g></svg>