<svg xmlns="http://www.w3.org/2000/svg" xmlns:xlink="http://www.w3.org/1999/xlink" viewBox="0 0 397.88 365.5"><defs><style>.cls-1,.cls-20{fill:none;stroke-miterlimit:10;stroke-width:2px;}.cls-1{stroke:url(#linear-gradient);}.cls-2,.cls-3{font-size:64.62px;font-family:Montserrat-SemiBold, Montserrat;font-weight:600;}.cls-3{fill:#ffec88;}.cls-4{font-size:27.72px;}.cls-10,.cls-4{fill:#d21e45;font-family:ProductSans-Regular, Product Sans;}.cls-5{letter-spacing:-0.01em;}.cls-6{letter-spacing:-0.01em;}.cls-7{letter-spacing:0em;}.cls-8{letter-spacing:-0.02em;}.cls-9{fill:url(#linear-gradient-2);}.cls-10{font-size:20.04px;}.cls-11{letter-spacing:0em;}.cls-12{letter-spacing:-0.01em;}.cls-13{letter-spacing:-0.02em;}.cls-14{letter-spacing:0em;}.cls-15{letter-spacing:-0.02em;}.cls-16{letter-spacing:-0.03em;}.cls-17{letter-spacing:0em;}.cls-18{letter-spacing:0em;}.cls-19{fill:url(#linear-gradient-13);}.cls-20{stroke:url(#linear-gradient-37);}</style><linearGradient id="linear-gradient" x1="365.5" y1="365.5" x2="0" gradientUnits="userSpaceOnUse"><stop offset="0" stop-color="#b47a1a"/><stop offset="0.05" stop-color="#b9811e"/><stop offset="0.13" stop-color="#c69429"/><stop offset="0.22" stop-color="#dcb33c"/><stop offset="0.32" stop-color="#fade56"/><stop offset="0.33" stop-color="#ffe55a"/><stop offset="0.52" stop-color="#ffec88"/><stop offset="0.66" stop-color="#ffe55a"/><stop offset="1" stop-color="#b47a1a"/></linearGradient><linearGradient id="linear-gradient-2" x1="101.88" y1="114.48" x2="263.96" y2="114.48" gradientUnits="userSpaceOnUse"><stop offset="0" stop-color="#b47a1a"/><stop offset="0" stop-color="#b88121"/><stop offset="0" stop-color="#c59433"/><stop offset="0" stop-color="#d9b351"/><stop offset="0" stop-color="#f6de7a"/><stop offset="0" stop-color="#ffec88"/></linearGradient><linearGradient id="linear-gradient-13" x1="58.58" y1="207.17" x2="306.62" y2="207.17" xlink:href="#linear-gradient-2"/><linearGradient id="linear-gradient-37" x1="331.88" y1="47.5" x2="397.88" y2="47.5" xlink:href="#linear-gradient"/></defs><title>Asset 22prize3</title><g id="Layer_2" data-name="Layer 2"><g id="Layer_1-2" data-name="Layer 1"><rect class="cls-1" x="1" y="1" width="363.5" height="363.5"/><text class="cls-2" transform="translate(38.55 180.31)">N50,000</text><text class="cls-3" transform="translate(38.55 180.31)">N50,000</text><text class="cls-4" transform="translate(100.77 121.41)">1<tspan class="cls-5" x="10.64" y="0">s</tspan><tspan x="23.12" y="0">t </tspan><tspan class="cls-6" x="39.03" y="0">R</tspan><tspan class="cls-7" x="54.77" y="0">unner</tspan><tspan class="cls-8" x="124.76" y="0"> </tspan><tspan x="130.31" y="0">Up</tspan></text><path class="cls-9" d="M109.09,102.45v19h-2.55v-15.8l-3.69,1.61-1-2.16,5.57-2.61Z"/><path class="cls-9" d="M123.36,117.64a3.69,3.69,0,0,1-1.55,3,6.11,6.11,0,0,1-3.91,1.22,6.18,6.18,0,0,1-3.6-1.06,5.82,5.82,0,0,1-2.22-2.82l2.27-1a4.21,4.21,0,0,0,1.46,1.9,3.48,3.48,0,0,0,2.09.68,3.64,3.64,0,0,0,2-.53,1.5,1.5,0,0,0,.82-1.24c0-.87-.67-1.51-2-1.92l-2.33-.58c-2.64-.66-4-1.94-4-3.82a3.52,3.52,0,0,1,1.51-3,6.9,6.9,0,0,1,7.12-.27,4.72,4.72,0,0,1,2,2.3l-2.27.95a2.93,2.93,0,0,0-1.26-1.35,4,4,0,0,0-2-.48,3.24,3.24,0,0,0-1.79.5,1.45,1.45,0,0,0-.79,1.22c0,.77.73,1.33,2.19,1.66l2,.53Q123.36,114.56,123.36,117.64Z"/><path class="cls-9" d="M130.82,121.63a3.89,3.89,0,0,1-2.76-1,3.83,3.83,0,0,1-1.12-2.86v-7.59h-2.39v-2.33h2.39v-4.16h2.55v4.16h3.32v2.33h-3.32v6.76a2.47,2.47,0,0,0,.52,1.84,1.71,1.71,0,0,0,1.2.49,2.32,2.32,0,0,0,.59-.07,3.42,3.42,0,0,0,.54-.18l.81,2.27A6.87,6.87,0,0,1,130.82,121.63Z"/><path class="cls-9" d="M144.34,121.41h-2.55V101.56h6.77a6.16,6.16,0,0,1,4.39,1.71,5.52,5.52,0,0,1,1.82,4.2,5.46,5.46,0,0,1-1.35,3.64,6,6,0,0,1-3.39,2l-.06.08,5.57,8.07v.11h-3l-5.35-8h-2.83Zm0-17.41v7h4.11a3.73,3.73,0,0,0,2.63-1,3.31,3.31,0,0,0,1.08-2.51,3.5,3.5,0,0,0-3.55-3.47Z"/><path class="cls-9" d="M169,121.41h-2.44v-1.88h-.12a4.49,4.49,0,0,1-1.78,1.66,5.18,5.18,0,0,1-2.51.66,5,5,0,0,1-3.84-1.42,5.69,5.69,0,0,1-1.35-4.06v-8.54h2.56v8.37q.08,3.33,3.35,3.33a3.16,3.16,0,0,0,2.55-1.24,4.47,4.47,0,0,0,1-3v-7.51H169Z"/><path class="cls-9" d="M172.12,107.83h2.44v1.88h.11a4.52,4.52,0,0,1,1.79-1.66,5.16,5.16,0,0,1,2.51-.67,5,5,0,0,1,3.83,1.43,5.69,5.69,0,0,1,1.35,4.06v8.54H181.6V113c-.06-2.22-1.17-3.33-3.35-3.33A3.19,3.19,0,0,0,175.7,111a4.42,4.42,0,0,0-1,3v7.51h-2.55Z"/><path class="cls-9" d="M187.14,107.83h2.44v1.88h.11a4.59,4.59,0,0,1,1.79-1.66,5.19,5.19,0,0,1,2.51-.67,5,5,0,0,1,3.84,1.43,5.68,5.68,0,0,1,1.34,4.06v8.54h-2.55V113q-.08-3.33-3.35-3.33a3.19,3.19,0,0,0-2.55,1.24,4.47,4.47,0,0,0-1,3v7.51h-2.55Z"/><path class="cls-9" d="M208.27,121.85a6.5,6.5,0,0,1-4.94-2,7.23,7.23,0,0,1-1.94-5.18,7.37,7.37,0,0,1,1.89-5.17,6.76,6.76,0,0,1,9.63-.11,7.82,7.82,0,0,1,1.79,5.47l0,.28H204a4.42,4.42,0,0,0,1.33,3.22,4.29,4.29,0,0,0,6.87-1.22l2.27,1.11a6.67,6.67,0,0,1-2.53,2.68A7,7,0,0,1,208.27,121.85ZM204.19,113H212a3.38,3.38,0,0,0-1.15-2.34,4,4,0,0,0-2.79-.93,3.72,3.72,0,0,0-2.48.89A4.25,4.25,0,0,0,204.19,113Z"/><path class="cls-9" d="M219.58,121.41H217V107.83h2.43v2.22h.12a3.67,3.67,0,0,1,1.59-1.85,4.38,4.38,0,0,1,2.37-.76,4.76,4.76,0,0,1,1.88.33l-.77,2.47a4.25,4.25,0,0,0-1.5-.19,3.29,3.29,0,0,0-2.51,1.16,3.9,3.9,0,0,0-1.06,2.72Z"/><path class="cls-9" d="M240,121.85a7,7,0,0,1-5.33-2.16,7.87,7.87,0,0,1-2-5.65V101.56h2.55v12.59a5.54,5.54,0,0,0,1.28,3.85,5.07,5.07,0,0,0,7,0,5.54,5.54,0,0,0,1.27-3.85V101.56h2.55V114a8,8,0,0,1-2,5.71A7,7,0,0,1,240,121.85Z"/><path class="cls-9" d="M257.5,121.85a5.9,5.9,0,0,1-2.73-.63,4.76,4.76,0,0,1-1.9-1.69h-.11l.11,1.88v6h-2.55V107.83h2.44v1.88h.11a4.76,4.76,0,0,1,1.9-1.69,5.91,5.91,0,0,1,2.73-.64,5.85,5.85,0,0,1,4.54,2.11,7.81,7.81,0,0,1,0,10.26A5.84,5.84,0,0,1,257.5,121.85Zm-.42-2.32a4,4,0,0,0,3.08-1.39,5,5,0,0,0,1.24-3.52,5.06,5.06,0,0,0-1.24-3.52,4.14,4.14,0,0,0-6.19,0,5.14,5.14,0,0,0-1.21,3.52,5.2,5.2,0,0,0,1.21,3.55A4.08,4.08,0,0,0,257.08,119.53Z"/><text class="cls-10" transform="translate(57.84 212.34)"><tspan class="cls-11">O</tspan><tspan x="16.13" y="0">ne m</tspan><tspan class="cls-12" x="59.21" y="0">o</tspan><tspan class="cls-13" x="70.24" y="0">n</tspan><tspan class="cls-14" x="80.6" y="0">t</tspan><tspan x="87.79" y="0">h</tspan><tspan class="cls-15" x="98.65" y="0"> </tspan><tspan x="102.66" y="0">f</tspan><tspan class="cls-16" x="110.03" y="0">r</tspan><tspan class="cls-17" x="116.71" y="0">e</tspan><tspan x="127.55" y="0">e su</tspan><tspan class="cls-18" x="162.67" y="0">b</tspan><tspan class="cls-14" x="174.12" y="0">s</tspan><tspan class="cls-11" x="183.33" y="0">c</tspan><tspan x="193.69" y="0">ri</tspan><tspan class="cls-15" x="205.38" y="0">p</tspan><tspan class="cls-17" x="216.44" y="0">t</tspan><tspan class="cls-18" x="223.63" y="0">i</tspan><tspan class="cls-12" x="227.94" y="0">o</tspan><tspan x="238.96" y="0">n</tspan></text><path class="cls-19" d="M73.33,205.16a7.28,7.28,0,0,1-2.12,5.33,7.44,7.44,0,0,1-10.5,0,7.73,7.73,0,0,1,0-10.66,7.44,7.44,0,0,1,10.5,0A7.27,7.27,0,0,1,73.33,205.16Zm-12.87,0A5.69,5.69,0,0,0,62,209.27,5.26,5.26,0,0,0,66,210.89a5.19,5.19,0,0,0,3.9-1.62,6.11,6.11,0,0,0,0-8.22,5.19,5.19,0,0,0-3.9-1.62A5.26,5.26,0,0,0,62,201.05,5.72,5.72,0,0,0,60.46,205.16Z"/><path class="cls-19" d="M75.09,202.52h1.77v1.36h.08a3.27,3.27,0,0,1,1.29-1.2A3.72,3.72,0,0,1,80,202.2a3.62,3.62,0,0,1,2.78,1,4.1,4.1,0,0,1,1,2.93v6.18H82v-6.06a2.17,2.17,0,0,0-2.43-2.4,2.31,2.31,0,0,0-1.84.89,3.22,3.22,0,0,0-.74,2.14v5.43H75.09Z"/><path class="cls-19" d="M90.36,212.66a4.68,4.68,0,0,1-3.56-1.49,5.19,5.19,0,0,1-1.41-3.74,5.32,5.32,0,0,1,1.37-3.74,4.9,4.9,0,0,1,7-.08,5.65,5.65,0,0,1,1.29,4l0,.2H87.28a3.15,3.15,0,0,0,1,2.32,3.11,3.11,0,0,0,5-.88l1.64.8A4.92,4.92,0,0,1,93,212,5.15,5.15,0,0,1,90.36,212.66Zm-2.94-6.42h5.63a2.47,2.47,0,0,0-.83-1.69,2.93,2.93,0,0,0-2-.67,2.66,2.66,0,0,0-1.79.64A3.07,3.07,0,0,0,87.42,206.24Z"/><path class="cls-19" d="M103,212.34H101.1v-9.82h1.77v1.36H103a3.27,3.27,0,0,1,1.29-1.2,3.62,3.62,0,0,1,3.64,0,3,3,0,0,1,1.2,1.38,3.81,3.81,0,0,1,3.38-1.88,3.3,3.3,0,0,1,2.63,1,4.29,4.29,0,0,1,.92,3v6.14h-1.84v-5.86a3.17,3.17,0,0,0-.5-2,2.07,2.07,0,0,0-1.69-.61,2.21,2.21,0,0,0-1.78.9,3.31,3.31,0,0,0-.72,2.13v5.43h-1.84v-5.86a3.11,3.11,0,0,0-.51-2,2,2,0,0,0-1.68-.61,2.19,2.19,0,0,0-1.78.9,3.31,3.31,0,0,0-.72,2.13Z"/><path class="cls-19" d="M117.62,207.43a5.19,5.19,0,0,1,1.42-3.75,4.84,4.84,0,0,1,3.63-1.48,4.77,4.77,0,0,1,3.6,1.48,5.17,5.17,0,0,1,1.44,3.75,5.1,5.1,0,0,1-1.44,3.74,4.78,4.78,0,0,1-3.6,1.49,4.85,4.85,0,0,1-3.63-1.49A5.15,5.15,0,0,1,117.62,207.43Zm1.84,0a3.6,3.6,0,0,0,.92,2.56,3.15,3.15,0,0,0,4.57,0,4,4,0,0,0,0-5.11,3.11,3.11,0,0,0-4.57,0A3.6,3.6,0,0,0,119.46,207.43Z"/><path class="cls-19" d="M129.2,202.52H131v1.36H131a3.27,3.27,0,0,1,1.29-1.2,3.75,3.75,0,0,1,1.82-.48,3.6,3.6,0,0,1,2.77,1,4.1,4.1,0,0,1,1,2.93v6.18h-1.84v-6.06a2.16,2.16,0,0,0-2.42-2.4,2.33,2.33,0,0,0-1.85.89,3.28,3.28,0,0,0-.74,2.14v5.43H129.2Z"/><path class="cls-19" d="M143.45,212.5a2.79,2.79,0,0,1-2-.75,2.72,2.72,0,0,1-.81-2.06V204.2h-1.72v-1.68h1.72v-3h1.84v3h2.41v1.68h-2.41v4.89a1.76,1.76,0,0,0,.39,1.33,1.2,1.2,0,0,0,.86.35,1.58,1.58,0,0,0,.43-.05,1.63,1.63,0,0,0,.39-.13l.58,1.65A5,5,0,0,1,143.45,212.5Z"/><path class="cls-19" d="M146.75,198h1.85v4.53l-.08,1.36h.08a3.27,3.27,0,0,1,1.29-1.2,3.69,3.69,0,0,1,1.81-.48,3.64,3.64,0,0,1,2.78,1,4.1,4.1,0,0,1,1,2.93v6.18h-1.84v-5.82c0-1.76-.79-2.64-2.35-2.64a2.36,2.36,0,0,0-1.89.93,3.29,3.29,0,0,0-.77,2.18v5.35h-1.85Z"/><path class="cls-19" d="M166.15,197.83a3.41,3.41,0,0,1,1.64.34l-.5,1.62a2.38,2.38,0,0,0-1.08-.24,1.43,1.43,0,0,0-1.11.47,1.78,1.78,0,0,0-.43,1.25v1.25h2.56v1.68h-2.56v8.14h-1.85V204.2H161v-1.68h1.84v-1.43a3.14,3.14,0,0,1,.93-2.36A3.32,3.32,0,0,1,166.15,197.83Z"/><path class="cls-19" d="M170.84,212.34H169v-9.82h1.77v1.6h.08a2.69,2.69,0,0,1,1.15-1.33,3.16,3.16,0,0,1,1.71-.55,3.5,3.5,0,0,1,1.37.24l-.56,1.78a3.18,3.18,0,0,0-1.09-.14,2.38,2.38,0,0,0-1.81.84,2.84,2.84,0,0,0-.77,2Z"/><path class="cls-19" d="M180.08,212.66a4.69,4.69,0,0,1-3.57-1.49,5.18,5.18,0,0,1-1.4-3.74,5.32,5.32,0,0,1,1.36-3.74,4.9,4.9,0,0,1,7-.08,5.65,5.65,0,0,1,1.29,4v.2H177a3.23,3.23,0,0,0,1,2.32,3.11,3.11,0,0,0,5-.88l1.64.8a4.92,4.92,0,0,1-1.83,2A5.14,5.14,0,0,1,180.08,212.66Zm-3-6.42h5.63a2.43,2.43,0,0,0-.83-1.69,2.89,2.89,0,0,0-2-.67,2.66,2.66,0,0,0-1.8.64A3.07,3.07,0,0,0,177.13,206.24Z"/><path class="cls-19" d="M190.92,212.66a4.7,4.7,0,0,1-3.57-1.49,5.22,5.22,0,0,1-1.4-3.74,5.32,5.32,0,0,1,1.36-3.74,4.9,4.9,0,0,1,7-.08,5.66,5.66,0,0,1,1.3,4l0,.2h-7.72a3.23,3.23,0,0,0,1,2.32,3.11,3.11,0,0,0,5-.88l1.65.8a5,5,0,0,1-1.84,2A5.12,5.12,0,0,1,190.92,212.66ZM188,206.24h5.63a2.43,2.43,0,0,0-.83-1.69,2.89,2.89,0,0,0-2-.67,2.66,2.66,0,0,0-1.8.64A3.07,3.07,0,0,0,188,206.24Z"/><path class="cls-19" d="M209.17,209.61a2.63,2.63,0,0,1-1.12,2.16,4.84,4.84,0,0,1-5.43.11,4.21,4.21,0,0,1-1.6-2l1.64-.7a3,3,0,0,0,1.05,1.37,2.54,2.54,0,0,0,1.51.49,2.65,2.65,0,0,0,1.48-.38,1.08,1.08,0,0,0,.59-.9q0-.94-1.44-1.38l-1.69-.42c-1.91-.48-2.86-1.41-2.86-2.77a2.54,2.54,0,0,1,1.09-2.15,4.57,4.57,0,0,1,2.79-.81,4.5,4.5,0,0,1,2.36.62,3.37,3.37,0,0,1,1.47,1.66l-1.64.68a2.08,2.08,0,0,0-.91-1,2.93,2.93,0,0,0-1.42-.35,2.36,2.36,0,0,0-1.29.36,1,1,0,0,0-.57.88c0,.56.53,1,1.58,1.2l1.49.39C208.2,207.15,209.17,208.13,209.17,209.61Z"/><path class="cls-19" d="M219.39,212.34h-1.76V211h-.08a3.29,3.29,0,0,1-1.29,1.21,3.75,3.75,0,0,1-1.82.48,3.64,3.64,0,0,1-2.77-1,4.12,4.12,0,0,1-1-2.94v-6.17h1.84v6A2.16,2.16,0,0,0,215,211a2.3,2.3,0,0,0,1.85-.89,3.23,3.23,0,0,0,.74-2.13v-5.43h1.84Z"/><path class="cls-19" d="M226.83,212.66a4.34,4.34,0,0,1-2-.46,3.49,3.49,0,0,1-1.37-1.23h-.08v1.37h-1.76V198h1.84v4.53l-.08,1.36h.08a3.4,3.4,0,0,1,1.37-1.22,4.36,4.36,0,0,1,5.26,1.06,5.37,5.37,0,0,1,1.39,3.71,5.31,5.31,0,0,1-1.39,3.7A4.2,4.2,0,0,1,226.83,212.66Zm-.3-1.69a2.86,2.86,0,0,0,2.22-1,3.6,3.6,0,0,0,.9-2.54,3.68,3.68,0,0,0-.9-2.55,2.86,2.86,0,0,0-2.22-1,2.89,2.89,0,0,0-2.25,1,4.15,4.15,0,0,0,0,5.11A2.91,2.91,0,0,0,226.53,211Z"/><path class="cls-19" d="M240.59,209.61a2.63,2.63,0,0,1-1.12,2.16,4.84,4.84,0,0,1-5.43.11,4.21,4.21,0,0,1-1.6-2l1.64-.7a3,3,0,0,0,1,1.37,2.54,2.54,0,0,0,1.51.49,2.65,2.65,0,0,0,1.48-.38,1.08,1.08,0,0,0,.59-.9q0-.94-1.44-1.38l-1.69-.42c-1.91-.48-2.86-1.41-2.86-2.77a2.54,2.54,0,0,1,1.09-2.15,4.58,4.58,0,0,1,2.8-.81,4.49,4.49,0,0,1,2.35.62,3.37,3.37,0,0,1,1.47,1.66l-1.64.68a2.08,2.08,0,0,0-.91-1,2.9,2.9,0,0,0-1.42-.35,2.36,2.36,0,0,0-1.29.36,1,1,0,0,0-.57.88c0,.56.53,1,1.58,1.2l1.49.39C239.62,207.15,240.59,208.13,240.59,209.61Z"/><path class="cls-19" d="M246.78,212.66a4.84,4.84,0,0,1-3.62-1.49,5.26,5.26,0,0,1-1.43-3.74,5.2,5.2,0,0,1,1.43-3.75,4.83,4.83,0,0,1,3.62-1.48,4.61,4.61,0,0,1,2.63.75,4.53,4.53,0,0,1,1.68,2.07l-1.68.7a2.77,2.77,0,0,0-2.75-1.84,2.84,2.84,0,0,0-2.18,1,4,4,0,0,0,0,5,2.84,2.84,0,0,0,2.18,1,2.89,2.89,0,0,0,2.85-1.84l1.64.7a4.44,4.44,0,0,1-1.69,2.08A4.8,4.8,0,0,1,246.78,212.66Z"/><path class="cls-19" d="M254.5,212.34h-1.84v-9.82h1.76v1.6h.08a2.69,2.69,0,0,1,1.15-1.33,3.17,3.17,0,0,1,1.72-.55,3.48,3.48,0,0,1,1.36.24l-.56,1.78a3.18,3.18,0,0,0-1.09-.14,2.4,2.4,0,0,0-1.81.84,2.84,2.84,0,0,0-.77,2Z"/><path class="cls-19" d="M262.31,199.13a1.3,1.3,0,0,1-2.22.92,1.3,1.3,0,0,1,1.84-1.84A1.22,1.22,0,0,1,262.31,199.13Zm-.38,3.39v9.82h-1.84v-9.82Z"/><path class="cls-19" d="M269.45,212.66a4.37,4.37,0,0,1-2-.46A3.49,3.49,0,0,1,266.1,211H266l.08,1.37v4.32h-1.84V202.52H266v1.36h.08a3.4,3.4,0,0,1,1.37-1.22,4.25,4.25,0,0,1,2-.46,4.19,4.19,0,0,1,3.28,1.52,5.33,5.33,0,0,1,1.39,3.71,5.27,5.27,0,0,1-1.39,3.7A4.2,4.2,0,0,1,269.45,212.66Zm-.3-1.69a2.86,2.86,0,0,0,2.22-1,3.6,3.6,0,0,0,.9-2.54,3.68,3.68,0,0,0-.9-2.55,2.86,2.86,0,0,0-2.22-1,2.89,2.89,0,0,0-2.25,1,4.15,4.15,0,0,0,0,5.11A2.91,2.91,0,0,0,269.15,211Z"/><path class="cls-19" d="M279.29,212.5a2.81,2.81,0,0,1-2-.75,2.75,2.75,0,0,1-.81-2.06V204.2h-1.72v-1.68h1.72v-3h1.85v3h2.4v1.68h-2.4v4.89a1.76,1.76,0,0,0,.38,1.33,1.2,1.2,0,0,0,.86.35,1.58,1.58,0,0,0,.43-.05,1.63,1.63,0,0,0,.39-.13l.58,1.65A5,5,0,0,1,279.29,212.5Z"/><path class="cls-19" d="M285,199.13a1.26,1.26,0,0,1-.38.92,1.32,1.32,0,0,1-1.85,0,1.3,1.3,0,0,1,0-1.84,1.32,1.32,0,0,1,1.85,0A1.26,1.26,0,0,1,285,199.13Zm-.38,3.39v9.82h-1.85v-9.82Z"/><path class="cls-19" d="M286.34,207.43a5.19,5.19,0,0,1,1.42-3.75,4.84,4.84,0,0,1,3.63-1.48,4.78,4.78,0,0,1,3.61,1.48,5.17,5.17,0,0,1,1.44,3.75,5.1,5.1,0,0,1-1.44,3.74,4.79,4.79,0,0,1-3.61,1.49,4.85,4.85,0,0,1-3.63-1.49A5.15,5.15,0,0,1,286.34,207.43Zm1.84,0a3.57,3.57,0,0,0,.93,2.56,3.14,3.14,0,0,0,4.56,0,4,4,0,0,0,0-5.11,3.1,3.1,0,0,0-4.56,0A3.56,3.56,0,0,0,288.18,207.43Z"/><path class="cls-19" d="M297.92,202.52h1.77v1.36h.08a3.27,3.27,0,0,1,1.29-1.2,3.69,3.69,0,0,1,1.81-.48,3.62,3.62,0,0,1,2.78,1,4.1,4.1,0,0,1,1,2.93v6.18h-1.84v-6.06a2.17,2.17,0,0,0-2.43-2.4,2.31,2.31,0,0,0-1.84.89,3.22,3.22,0,0,0-.74,2.14v5.43h-1.85Z"/><rect class="cls-20" x="332.88" y="15.5" width="64" height="64"/></g></g></svg>